M48
; DRILL file {KiCad (7.0.0)} date Sun Mar 26 02:59:32 2023
; FORMAT={-:-/ absolute / metric / decimal}
; #@! TF.CreationDate,2023-03-26T02:59:32-07:00
; #@! TF.GenerationSoftware,Kicad,Pcbnew,(7.0.0)
; #@! TF.FileFunction,Plated,1,2,PTH
FMAT,2
METRIC
; #@! TA.AperFunction,Plated,PTH,ViaDrill
T1C0.300
; #@! TA.AperFunction,Plated,PTH,ViaDrill
T2C0.350
; #@! TA.AperFunction,Plated,PTH,ComponentDrill
T3C0.350
; #@! TA.AperFunction,Plated,PTH,ViaDrill
T4C0.400
; #@! TA.AperFunction,Plated,PTH,ComponentDrill
T5C0.400
; #@! TA.AperFunction,Plated,PTH,ComponentDrill
T6C0.500
; #@! TA.AperFunction,Plated,PTH,ComponentDrill
T7C1.800
%
G90
G05
T1
X193.145Y-45.302
X196.831Y-57.891
X198.383Y-64.749
X198.863Y-49.763
X200.138Y-42.507
X201.518Y-37.187
X202.118Y-41.467
X202.188Y-34.547
X203.308Y-45.572
X203.463Y-48.605
X204.324Y-48.112
X204.419Y-45.08
X204.446Y-33.847
X204.451Y-60.939
X205.086Y-67.416
X205.721Y-63.733
X206.038Y-34.547
X206.128Y-35.647
X206.324Y-45.08
X207.372Y-61.828
X207.88Y-47.096
X209.531Y-67.227
X209.688Y-38.407
X209.931Y-64.707
X210.168Y-46.472
X210.268Y-33.338
X211.055Y-48.907
X211.078Y-52.217
X212.42Y-58.669
X212.778Y-45.312
X213.858Y-65.927
X213.862Y-69.261
X214.78Y-32.306
T2
X204.705Y-56.832
X204.832Y-52.595
T3
X202.823Y-53.457
X202.823Y-54.732
X202.823Y-56.007
X204.098Y-53.457
X204.098Y-54.732
X204.098Y-56.007
X205.373Y-53.457
X205.373Y-54.732
X205.373Y-56.007
T4
X76.42Y-72.3
X105.082Y-63.13
X122.5Y-107.03
X128.41Y-111.13
X129.36Y-110.27
X130.55Y-109.25
X131.44Y-107.62
X133.13Y-67.81
X133.98Y-97.91
X135.32Y-108.32
X137.1Y-105.26
X155.74Y-86.07
X170.03Y-133.31
X187.95Y-154.34
X195.23Y-59.32
X195.84Y-60.41
X196.85Y-61.42
X197.91Y-62.3
X198.518Y-28.477
X198.618Y-29.577
X209.7Y-82.04
X212.99Y-53.41
X215.03Y-55.02
X224.98Y-124.96
X233.04Y-152.08
X243.75Y-108.91
X250.88Y-133.94
X254.562Y-58.028
X261.16Y-83.89
X268.76Y-113.18
X277.1Y-39.49
X284.0Y-65.17
X284.56Y-108.72
X285.41Y-99.09
X285.99Y-107.37
X293.28Y-105.94
X293.7Y-108.1
X296.05Y-110.37
X305.26Y-35.05
X312.13Y-60.71
X334.72Y-43.79
X341.57Y-69.46
T5
X201.296Y-31.547
X201.696Y-30.847
X202.496Y-30.847
X202.896Y-31.547
X203.296Y-30.847
X203.696Y-31.547
X204.496Y-31.547
X204.896Y-30.847
X205.296Y-31.547
X205.696Y-30.847
X206.496Y-30.847
X206.896Y-31.547
T7
X97.913Y-143.637
X103.518Y-47.151
X117.283Y-93.347
X182.618Y-34.077
X225.808Y-34.077
X284.793Y-93.347
X310.513Y-143.637
X310.578Y-47.151
T6
X199.606Y-26.857G85X199.606Y-26.257
G05
X199.891Y-31.247G85X199.891Y-30.647
G05
X208.151Y-31.247G85X208.151Y-30.647
G05
X208.586Y-26.857G85X208.586Y-26.257
G05
T0
M30
