%TF.GenerationSoftware,KiCad,Pcbnew,(7.0.0)*%
%TF.CreationDate,2023-03-26T02:59:33-07:00*%
%TF.ProjectId,HallBox,48616c6c-426f-4782-9e6b-696361645f70,rev?*%
%TF.SameCoordinates,Original*%
%TF.FileFunction,Drillmap*%
%TF.FilePolarity,Positive*%
%FSLAX45Y45*%
G04 Gerber Fmt 4.5, Leading zero omitted, Abs format (unit mm)*
G04 Created by KiCad (PCBNEW (7.0.0)) date 2023-03-26 02:59:33*
%MOMM*%
%LPD*%
G01*
G04 APERTURE LIST*
%ADD10C,0.100000*%
%ADD11C,0.200000*%
%ADD12C,0.065000*%
%ADD13C,0.099060*%
G04 APERTURE END LIST*
D10*
X6287797Y-15020725D02*
G75*
G03*
X7412797Y-16145725I1125000J0D01*
G01*
X34557805Y-3648725D02*
G75*
G03*
X33432797Y-2523725I-1125005J-5D01*
G01*
X33432797Y-16145725D02*
G75*
G03*
X34557797Y-15020725I0J1125000D01*
G01*
X7412797Y-2523725D02*
G75*
G03*
X6287797Y-3648725I0J-1125000D01*
G01*
X6287797Y-3648725D02*
X6287797Y-15020725D01*
X34557797Y-3648725D02*
X34557797Y-15020725D01*
X33432797Y-2523725D02*
X7412797Y-2523725D01*
X7412797Y-16145725D02*
X33432797Y-16145725D01*
D11*
D12*
X20002147Y-3187225D02*
X20067147Y-3252225D01*
X20067147Y-3187225D02*
X20002147Y-3252225D01*
X20737147Y-3187225D02*
X20802147Y-3252225D01*
X20802147Y-3187225D02*
X20737147Y-3252225D01*
D13*
X21084727Y-6849725D02*
G75*
G03*
X21084727Y-6849725I-49530J0D01*
G01*
X21186327Y-6341725D02*
G75*
G03*
X21186327Y-6341725I-49530J0D01*
G01*
X21287927Y-6849725D02*
G75*
G03*
X21287927Y-6849725I-49530J0D01*
G01*
D11*
X6530416Y-16444201D02*
X6530416Y-16244201D01*
X6530416Y-16244201D02*
X6578035Y-16244201D01*
X6578035Y-16244201D02*
X6606607Y-16253725D01*
X6606607Y-16253725D02*
X6625654Y-16272773D01*
X6625654Y-16272773D02*
X6635178Y-16291821D01*
X6635178Y-16291821D02*
X6644702Y-16329916D01*
X6644702Y-16329916D02*
X6644702Y-16358487D01*
X6644702Y-16358487D02*
X6635178Y-16396582D01*
X6635178Y-16396582D02*
X6625654Y-16415630D01*
X6625654Y-16415630D02*
X6606607Y-16434678D01*
X6606607Y-16434678D02*
X6578035Y-16444201D01*
X6578035Y-16444201D02*
X6530416Y-16444201D01*
X6730416Y-16444201D02*
X6730416Y-16310868D01*
X6730416Y-16348963D02*
X6739940Y-16329916D01*
X6739940Y-16329916D02*
X6749464Y-16320392D01*
X6749464Y-16320392D02*
X6768512Y-16310868D01*
X6768512Y-16310868D02*
X6787559Y-16310868D01*
X6854226Y-16444201D02*
X6854226Y-16310868D01*
X6854226Y-16244201D02*
X6844702Y-16253725D01*
X6844702Y-16253725D02*
X6854226Y-16263249D01*
X6854226Y-16263249D02*
X6863750Y-16253725D01*
X6863750Y-16253725D02*
X6854226Y-16244201D01*
X6854226Y-16244201D02*
X6854226Y-16263249D01*
X6978035Y-16444201D02*
X6958988Y-16434678D01*
X6958988Y-16434678D02*
X6949464Y-16415630D01*
X6949464Y-16415630D02*
X6949464Y-16244201D01*
X7082797Y-16444201D02*
X7063750Y-16434678D01*
X7063750Y-16434678D02*
X7054226Y-16415630D01*
X7054226Y-16415630D02*
X7054226Y-16244201D01*
X7278988Y-16444201D02*
X7278988Y-16244201D01*
X7278988Y-16244201D02*
X7345654Y-16387059D01*
X7345654Y-16387059D02*
X7412321Y-16244201D01*
X7412321Y-16244201D02*
X7412321Y-16444201D01*
X7593273Y-16444201D02*
X7593273Y-16339440D01*
X7593273Y-16339440D02*
X7583750Y-16320392D01*
X7583750Y-16320392D02*
X7564702Y-16310868D01*
X7564702Y-16310868D02*
X7526607Y-16310868D01*
X7526607Y-16310868D02*
X7507559Y-16320392D01*
X7593273Y-16434678D02*
X7574226Y-16444201D01*
X7574226Y-16444201D02*
X7526607Y-16444201D01*
X7526607Y-16444201D02*
X7507559Y-16434678D01*
X7507559Y-16434678D02*
X7498035Y-16415630D01*
X7498035Y-16415630D02*
X7498035Y-16396582D01*
X7498035Y-16396582D02*
X7507559Y-16377535D01*
X7507559Y-16377535D02*
X7526607Y-16368011D01*
X7526607Y-16368011D02*
X7574226Y-16368011D01*
X7574226Y-16368011D02*
X7593273Y-16358487D01*
X7688512Y-16310868D02*
X7688512Y-16510868D01*
X7688512Y-16320392D02*
X7707559Y-16310868D01*
X7707559Y-16310868D02*
X7745654Y-16310868D01*
X7745654Y-16310868D02*
X7764702Y-16320392D01*
X7764702Y-16320392D02*
X7774226Y-16329916D01*
X7774226Y-16329916D02*
X7783750Y-16348963D01*
X7783750Y-16348963D02*
X7783750Y-16406106D01*
X7783750Y-16406106D02*
X7774226Y-16425154D01*
X7774226Y-16425154D02*
X7764702Y-16434678D01*
X7764702Y-16434678D02*
X7745654Y-16444201D01*
X7745654Y-16444201D02*
X7707559Y-16444201D01*
X7707559Y-16444201D02*
X7688512Y-16434678D01*
X7869464Y-16425154D02*
X7878988Y-16434678D01*
X7878988Y-16434678D02*
X7869464Y-16444201D01*
X7869464Y-16444201D02*
X7859940Y-16434678D01*
X7859940Y-16434678D02*
X7869464Y-16425154D01*
X7869464Y-16425154D02*
X7869464Y-16444201D01*
X7869464Y-16320392D02*
X7878988Y-16329916D01*
X7878988Y-16329916D02*
X7869464Y-16339440D01*
X7869464Y-16339440D02*
X7859940Y-16329916D01*
X7859940Y-16329916D02*
X7869464Y-16320392D01*
X7869464Y-16320392D02*
X7869464Y-16339440D01*
D12*
X6217797Y-16758225D02*
X6282797Y-16823225D01*
X6282797Y-16758225D02*
X6217797Y-16823225D01*
D11*
X6568512Y-16664201D02*
X6587559Y-16664201D01*
X6587559Y-16664201D02*
X6606607Y-16673725D01*
X6606607Y-16673725D02*
X6616131Y-16683249D01*
X6616131Y-16683249D02*
X6625654Y-16702297D01*
X6625654Y-16702297D02*
X6635178Y-16740392D01*
X6635178Y-16740392D02*
X6635178Y-16788011D01*
X6635178Y-16788011D02*
X6625654Y-16826106D01*
X6625654Y-16826106D02*
X6616131Y-16845154D01*
X6616131Y-16845154D02*
X6606607Y-16854678D01*
X6606607Y-16854678D02*
X6587559Y-16864202D01*
X6587559Y-16864202D02*
X6568512Y-16864202D01*
X6568512Y-16864202D02*
X6549464Y-16854678D01*
X6549464Y-16854678D02*
X6539940Y-16845154D01*
X6539940Y-16845154D02*
X6530416Y-16826106D01*
X6530416Y-16826106D02*
X6520893Y-16788011D01*
X6520893Y-16788011D02*
X6520893Y-16740392D01*
X6520893Y-16740392D02*
X6530416Y-16702297D01*
X6530416Y-16702297D02*
X6539940Y-16683249D01*
X6539940Y-16683249D02*
X6549464Y-16673725D01*
X6549464Y-16673725D02*
X6568512Y-16664201D01*
X6720893Y-16845154D02*
X6730416Y-16854678D01*
X6730416Y-16854678D02*
X6720893Y-16864202D01*
X6720893Y-16864202D02*
X6711369Y-16854678D01*
X6711369Y-16854678D02*
X6720893Y-16845154D01*
X6720893Y-16845154D02*
X6720893Y-16864202D01*
X6901845Y-16664201D02*
X6863750Y-16664201D01*
X6863750Y-16664201D02*
X6844702Y-16673725D01*
X6844702Y-16673725D02*
X6835178Y-16683249D01*
X6835178Y-16683249D02*
X6816131Y-16711821D01*
X6816131Y-16711821D02*
X6806607Y-16749916D01*
X6806607Y-16749916D02*
X6806607Y-16826106D01*
X6806607Y-16826106D02*
X6816131Y-16845154D01*
X6816131Y-16845154D02*
X6825654Y-16854678D01*
X6825654Y-16854678D02*
X6844702Y-16864202D01*
X6844702Y-16864202D02*
X6882797Y-16864202D01*
X6882797Y-16864202D02*
X6901845Y-16854678D01*
X6901845Y-16854678D02*
X6911369Y-16845154D01*
X6911369Y-16845154D02*
X6920893Y-16826106D01*
X6920893Y-16826106D02*
X6920893Y-16778487D01*
X6920893Y-16778487D02*
X6911369Y-16759440D01*
X6911369Y-16759440D02*
X6901845Y-16749916D01*
X6901845Y-16749916D02*
X6882797Y-16740392D01*
X6882797Y-16740392D02*
X6844702Y-16740392D01*
X6844702Y-16740392D02*
X6825654Y-16749916D01*
X6825654Y-16749916D02*
X6816131Y-16759440D01*
X6816131Y-16759440D02*
X6806607Y-16778487D01*
X7101845Y-16664201D02*
X7006607Y-16664201D01*
X7006607Y-16664201D02*
X6997083Y-16759440D01*
X6997083Y-16759440D02*
X7006607Y-16749916D01*
X7006607Y-16749916D02*
X7025654Y-16740392D01*
X7025654Y-16740392D02*
X7073274Y-16740392D01*
X7073274Y-16740392D02*
X7092321Y-16749916D01*
X7092321Y-16749916D02*
X7101845Y-16759440D01*
X7101845Y-16759440D02*
X7111369Y-16778487D01*
X7111369Y-16778487D02*
X7111369Y-16826106D01*
X7111369Y-16826106D02*
X7101845Y-16845154D01*
X7101845Y-16845154D02*
X7092321Y-16854678D01*
X7092321Y-16854678D02*
X7073274Y-16864202D01*
X7073274Y-16864202D02*
X7025654Y-16864202D01*
X7025654Y-16864202D02*
X7006607Y-16854678D01*
X7006607Y-16854678D02*
X6997083Y-16845154D01*
X7235178Y-16664201D02*
X7254226Y-16664201D01*
X7254226Y-16664201D02*
X7273274Y-16673725D01*
X7273274Y-16673725D02*
X7282797Y-16683249D01*
X7282797Y-16683249D02*
X7292321Y-16702297D01*
X7292321Y-16702297D02*
X7301845Y-16740392D01*
X7301845Y-16740392D02*
X7301845Y-16788011D01*
X7301845Y-16788011D02*
X7292321Y-16826106D01*
X7292321Y-16826106D02*
X7282797Y-16845154D01*
X7282797Y-16845154D02*
X7273274Y-16854678D01*
X7273274Y-16854678D02*
X7254226Y-16864202D01*
X7254226Y-16864202D02*
X7235178Y-16864202D01*
X7235178Y-16864202D02*
X7216131Y-16854678D01*
X7216131Y-16854678D02*
X7206607Y-16845154D01*
X7206607Y-16845154D02*
X7197083Y-16826106D01*
X7197083Y-16826106D02*
X7187559Y-16788011D01*
X7187559Y-16788011D02*
X7187559Y-16740392D01*
X7187559Y-16740392D02*
X7197083Y-16702297D01*
X7197083Y-16702297D02*
X7206607Y-16683249D01*
X7206607Y-16683249D02*
X7216131Y-16673725D01*
X7216131Y-16673725D02*
X7235178Y-16664201D01*
X7387559Y-16864202D02*
X7387559Y-16730868D01*
X7387559Y-16749916D02*
X7397083Y-16740392D01*
X7397083Y-16740392D02*
X7416131Y-16730868D01*
X7416131Y-16730868D02*
X7444702Y-16730868D01*
X7444702Y-16730868D02*
X7463750Y-16740392D01*
X7463750Y-16740392D02*
X7473274Y-16759440D01*
X7473274Y-16759440D02*
X7473274Y-16864202D01*
X7473274Y-16759440D02*
X7482797Y-16740392D01*
X7482797Y-16740392D02*
X7501845Y-16730868D01*
X7501845Y-16730868D02*
X7530416Y-16730868D01*
X7530416Y-16730868D02*
X7549464Y-16740392D01*
X7549464Y-16740392D02*
X7558988Y-16759440D01*
X7558988Y-16759440D02*
X7558988Y-16864202D01*
X7654226Y-16864202D02*
X7654226Y-16730868D01*
X7654226Y-16749916D02*
X7663750Y-16740392D01*
X7663750Y-16740392D02*
X7682797Y-16730868D01*
X7682797Y-16730868D02*
X7711369Y-16730868D01*
X7711369Y-16730868D02*
X7730416Y-16740392D01*
X7730416Y-16740392D02*
X7739940Y-16759440D01*
X7739940Y-16759440D02*
X7739940Y-16864202D01*
X7739940Y-16759440D02*
X7749464Y-16740392D01*
X7749464Y-16740392D02*
X7768512Y-16730868D01*
X7768512Y-16730868D02*
X7797083Y-16730868D01*
X7797083Y-16730868D02*
X7816131Y-16740392D01*
X7816131Y-16740392D02*
X7825655Y-16759440D01*
X7825655Y-16759440D02*
X7825655Y-16864202D01*
X8183750Y-16654678D02*
X8012321Y-16911821D01*
X8408512Y-16664201D02*
X8427559Y-16664201D01*
X8427559Y-16664201D02*
X8446607Y-16673725D01*
X8446607Y-16673725D02*
X8456131Y-16683249D01*
X8456131Y-16683249D02*
X8465655Y-16702297D01*
X8465655Y-16702297D02*
X8475178Y-16740392D01*
X8475178Y-16740392D02*
X8475178Y-16788011D01*
X8475178Y-16788011D02*
X8465655Y-16826106D01*
X8465655Y-16826106D02*
X8456131Y-16845154D01*
X8456131Y-16845154D02*
X8446607Y-16854678D01*
X8446607Y-16854678D02*
X8427559Y-16864202D01*
X8427559Y-16864202D02*
X8408512Y-16864202D01*
X8408512Y-16864202D02*
X8389464Y-16854678D01*
X8389464Y-16854678D02*
X8379940Y-16845154D01*
X8379940Y-16845154D02*
X8370416Y-16826106D01*
X8370416Y-16826106D02*
X8360893Y-16788011D01*
X8360893Y-16788011D02*
X8360893Y-16740392D01*
X8360893Y-16740392D02*
X8370416Y-16702297D01*
X8370416Y-16702297D02*
X8379940Y-16683249D01*
X8379940Y-16683249D02*
X8389464Y-16673725D01*
X8389464Y-16673725D02*
X8408512Y-16664201D01*
X8560893Y-16845154D02*
X8570417Y-16854678D01*
X8570417Y-16854678D02*
X8560893Y-16864202D01*
X8560893Y-16864202D02*
X8551369Y-16854678D01*
X8551369Y-16854678D02*
X8560893Y-16845154D01*
X8560893Y-16845154D02*
X8560893Y-16864202D01*
X8694226Y-16664201D02*
X8713274Y-16664201D01*
X8713274Y-16664201D02*
X8732321Y-16673725D01*
X8732321Y-16673725D02*
X8741845Y-16683249D01*
X8741845Y-16683249D02*
X8751369Y-16702297D01*
X8751369Y-16702297D02*
X8760893Y-16740392D01*
X8760893Y-16740392D02*
X8760893Y-16788011D01*
X8760893Y-16788011D02*
X8751369Y-16826106D01*
X8751369Y-16826106D02*
X8741845Y-16845154D01*
X8741845Y-16845154D02*
X8732321Y-16854678D01*
X8732321Y-16854678D02*
X8713274Y-16864202D01*
X8713274Y-16864202D02*
X8694226Y-16864202D01*
X8694226Y-16864202D02*
X8675178Y-16854678D01*
X8675178Y-16854678D02*
X8665655Y-16845154D01*
X8665655Y-16845154D02*
X8656131Y-16826106D01*
X8656131Y-16826106D02*
X8646607Y-16788011D01*
X8646607Y-16788011D02*
X8646607Y-16740392D01*
X8646607Y-16740392D02*
X8656131Y-16702297D01*
X8656131Y-16702297D02*
X8665655Y-16683249D01*
X8665655Y-16683249D02*
X8675178Y-16673725D01*
X8675178Y-16673725D02*
X8694226Y-16664201D01*
X8837083Y-16683249D02*
X8846607Y-16673725D01*
X8846607Y-16673725D02*
X8865655Y-16664201D01*
X8865655Y-16664201D02*
X8913274Y-16664201D01*
X8913274Y-16664201D02*
X8932321Y-16673725D01*
X8932321Y-16673725D02*
X8941845Y-16683249D01*
X8941845Y-16683249D02*
X8951369Y-16702297D01*
X8951369Y-16702297D02*
X8951369Y-16721344D01*
X8951369Y-16721344D02*
X8941845Y-16749916D01*
X8941845Y-16749916D02*
X8827559Y-16864202D01*
X8827559Y-16864202D02*
X8951369Y-16864202D01*
X9132321Y-16664201D02*
X9037083Y-16664201D01*
X9037083Y-16664201D02*
X9027559Y-16759440D01*
X9027559Y-16759440D02*
X9037083Y-16749916D01*
X9037083Y-16749916D02*
X9056131Y-16740392D01*
X9056131Y-16740392D02*
X9103750Y-16740392D01*
X9103750Y-16740392D02*
X9122798Y-16749916D01*
X9122798Y-16749916D02*
X9132321Y-16759440D01*
X9132321Y-16759440D02*
X9141845Y-16778487D01*
X9141845Y-16778487D02*
X9141845Y-16826106D01*
X9141845Y-16826106D02*
X9132321Y-16845154D01*
X9132321Y-16845154D02*
X9122798Y-16854678D01*
X9122798Y-16854678D02*
X9103750Y-16864202D01*
X9103750Y-16864202D02*
X9056131Y-16864202D01*
X9056131Y-16864202D02*
X9037083Y-16854678D01*
X9037083Y-16854678D02*
X9027559Y-16845154D01*
X9313274Y-16664201D02*
X9275178Y-16664201D01*
X9275178Y-16664201D02*
X9256131Y-16673725D01*
X9256131Y-16673725D02*
X9246607Y-16683249D01*
X9246607Y-16683249D02*
X9227559Y-16711821D01*
X9227559Y-16711821D02*
X9218036Y-16749916D01*
X9218036Y-16749916D02*
X9218036Y-16826106D01*
X9218036Y-16826106D02*
X9227559Y-16845154D01*
X9227559Y-16845154D02*
X9237083Y-16854678D01*
X9237083Y-16854678D02*
X9256131Y-16864202D01*
X9256131Y-16864202D02*
X9294226Y-16864202D01*
X9294226Y-16864202D02*
X9313274Y-16854678D01*
X9313274Y-16854678D02*
X9322798Y-16845154D01*
X9322798Y-16845154D02*
X9332321Y-16826106D01*
X9332321Y-16826106D02*
X9332321Y-16778487D01*
X9332321Y-16778487D02*
X9322798Y-16759440D01*
X9322798Y-16759440D02*
X9313274Y-16749916D01*
X9313274Y-16749916D02*
X9294226Y-16740392D01*
X9294226Y-16740392D02*
X9256131Y-16740392D01*
X9256131Y-16740392D02*
X9237083Y-16749916D01*
X9237083Y-16749916D02*
X9227559Y-16759440D01*
X9227559Y-16759440D02*
X9218036Y-16778487D01*
X9408512Y-16664201D02*
X9408512Y-16702297D01*
X9484702Y-16664201D02*
X9484702Y-16702297D01*
X9747560Y-16940392D02*
X9738036Y-16930868D01*
X9738036Y-16930868D02*
X9718988Y-16902297D01*
X9718988Y-16902297D02*
X9709464Y-16883249D01*
X9709464Y-16883249D02*
X9699940Y-16854678D01*
X9699940Y-16854678D02*
X9690417Y-16807059D01*
X9690417Y-16807059D02*
X9690417Y-16768963D01*
X9690417Y-16768963D02*
X9699940Y-16721344D01*
X9699940Y-16721344D02*
X9709464Y-16692773D01*
X9709464Y-16692773D02*
X9718988Y-16673725D01*
X9718988Y-16673725D02*
X9738036Y-16645154D01*
X9738036Y-16645154D02*
X9747560Y-16635630D01*
X9814226Y-16683249D02*
X9823750Y-16673725D01*
X9823750Y-16673725D02*
X9842798Y-16664201D01*
X9842798Y-16664201D02*
X9890417Y-16664201D01*
X9890417Y-16664201D02*
X9909464Y-16673725D01*
X9909464Y-16673725D02*
X9918988Y-16683249D01*
X9918988Y-16683249D02*
X9928512Y-16702297D01*
X9928512Y-16702297D02*
X9928512Y-16721344D01*
X9928512Y-16721344D02*
X9918988Y-16749916D01*
X9918988Y-16749916D02*
X9804702Y-16864202D01*
X9804702Y-16864202D02*
X9928512Y-16864202D01*
X10134226Y-16864202D02*
X10134226Y-16664201D01*
X10219940Y-16864202D02*
X10219940Y-16759440D01*
X10219940Y-16759440D02*
X10210417Y-16740392D01*
X10210417Y-16740392D02*
X10191369Y-16730868D01*
X10191369Y-16730868D02*
X10162798Y-16730868D01*
X10162798Y-16730868D02*
X10143750Y-16740392D01*
X10143750Y-16740392D02*
X10134226Y-16749916D01*
X10343750Y-16864202D02*
X10324702Y-16854678D01*
X10324702Y-16854678D02*
X10315179Y-16845154D01*
X10315179Y-16845154D02*
X10305655Y-16826106D01*
X10305655Y-16826106D02*
X10305655Y-16768963D01*
X10305655Y-16768963D02*
X10315179Y-16749916D01*
X10315179Y-16749916D02*
X10324702Y-16740392D01*
X10324702Y-16740392D02*
X10343750Y-16730868D01*
X10343750Y-16730868D02*
X10372321Y-16730868D01*
X10372321Y-16730868D02*
X10391369Y-16740392D01*
X10391369Y-16740392D02*
X10400893Y-16749916D01*
X10400893Y-16749916D02*
X10410417Y-16768963D01*
X10410417Y-16768963D02*
X10410417Y-16826106D01*
X10410417Y-16826106D02*
X10400893Y-16845154D01*
X10400893Y-16845154D02*
X10391369Y-16854678D01*
X10391369Y-16854678D02*
X10372321Y-16864202D01*
X10372321Y-16864202D02*
X10343750Y-16864202D01*
X10524702Y-16864202D02*
X10505655Y-16854678D01*
X10505655Y-16854678D02*
X10496131Y-16835630D01*
X10496131Y-16835630D02*
X10496131Y-16664201D01*
X10677083Y-16854678D02*
X10658036Y-16864202D01*
X10658036Y-16864202D02*
X10619940Y-16864202D01*
X10619940Y-16864202D02*
X10600893Y-16854678D01*
X10600893Y-16854678D02*
X10591369Y-16835630D01*
X10591369Y-16835630D02*
X10591369Y-16759440D01*
X10591369Y-16759440D02*
X10600893Y-16740392D01*
X10600893Y-16740392D02*
X10619940Y-16730868D01*
X10619940Y-16730868D02*
X10658036Y-16730868D01*
X10658036Y-16730868D02*
X10677083Y-16740392D01*
X10677083Y-16740392D02*
X10686607Y-16759440D01*
X10686607Y-16759440D02*
X10686607Y-16778487D01*
X10686607Y-16778487D02*
X10591369Y-16797535D01*
X10762798Y-16854678D02*
X10781845Y-16864202D01*
X10781845Y-16864202D02*
X10819940Y-16864202D01*
X10819940Y-16864202D02*
X10838988Y-16854678D01*
X10838988Y-16854678D02*
X10848512Y-16835630D01*
X10848512Y-16835630D02*
X10848512Y-16826106D01*
X10848512Y-16826106D02*
X10838988Y-16807059D01*
X10838988Y-16807059D02*
X10819940Y-16797535D01*
X10819940Y-16797535D02*
X10791369Y-16797535D01*
X10791369Y-16797535D02*
X10772321Y-16788011D01*
X10772321Y-16788011D02*
X10762798Y-16768963D01*
X10762798Y-16768963D02*
X10762798Y-16759440D01*
X10762798Y-16759440D02*
X10772321Y-16740392D01*
X10772321Y-16740392D02*
X10791369Y-16730868D01*
X10791369Y-16730868D02*
X10819940Y-16730868D01*
X10819940Y-16730868D02*
X10838988Y-16740392D01*
X10915179Y-16940392D02*
X10924702Y-16930868D01*
X10924702Y-16930868D02*
X10943750Y-16902297D01*
X10943750Y-16902297D02*
X10953274Y-16883249D01*
X10953274Y-16883249D02*
X10962798Y-16854678D01*
X10962798Y-16854678D02*
X10972321Y-16807059D01*
X10972321Y-16807059D02*
X10972321Y-16768963D01*
X10972321Y-16768963D02*
X10962798Y-16721344D01*
X10962798Y-16721344D02*
X10953274Y-16692773D01*
X10953274Y-16692773D02*
X10943750Y-16673725D01*
X10943750Y-16673725D02*
X10924702Y-16645154D01*
X10924702Y-16645154D02*
X10915179Y-16635630D01*
X11244702Y-16940392D02*
X11235178Y-16930868D01*
X11235178Y-16930868D02*
X11216131Y-16902297D01*
X11216131Y-16902297D02*
X11206607Y-16883249D01*
X11206607Y-16883249D02*
X11197083Y-16854678D01*
X11197083Y-16854678D02*
X11187559Y-16807059D01*
X11187559Y-16807059D02*
X11187559Y-16768963D01*
X11187559Y-16768963D02*
X11197083Y-16721344D01*
X11197083Y-16721344D02*
X11206607Y-16692773D01*
X11206607Y-16692773D02*
X11216131Y-16673725D01*
X11216131Y-16673725D02*
X11235178Y-16645154D01*
X11235178Y-16645154D02*
X11244702Y-16635630D01*
X11320893Y-16730868D02*
X11320893Y-16864202D01*
X11320893Y-16749916D02*
X11330417Y-16740392D01*
X11330417Y-16740392D02*
X11349464Y-16730868D01*
X11349464Y-16730868D02*
X11378036Y-16730868D01*
X11378036Y-16730868D02*
X11397083Y-16740392D01*
X11397083Y-16740392D02*
X11406607Y-16759440D01*
X11406607Y-16759440D02*
X11406607Y-16864202D01*
X11530417Y-16864202D02*
X11511369Y-16854678D01*
X11511369Y-16854678D02*
X11501845Y-16845154D01*
X11501845Y-16845154D02*
X11492321Y-16826106D01*
X11492321Y-16826106D02*
X11492321Y-16768963D01*
X11492321Y-16768963D02*
X11501845Y-16749916D01*
X11501845Y-16749916D02*
X11511369Y-16740392D01*
X11511369Y-16740392D02*
X11530417Y-16730868D01*
X11530417Y-16730868D02*
X11558988Y-16730868D01*
X11558988Y-16730868D02*
X11578036Y-16740392D01*
X11578036Y-16740392D02*
X11587559Y-16749916D01*
X11587559Y-16749916D02*
X11597083Y-16768963D01*
X11597083Y-16768963D02*
X11597083Y-16826106D01*
X11597083Y-16826106D02*
X11587559Y-16845154D01*
X11587559Y-16845154D02*
X11578036Y-16854678D01*
X11578036Y-16854678D02*
X11558988Y-16864202D01*
X11558988Y-16864202D02*
X11530417Y-16864202D01*
X11654226Y-16730868D02*
X11730417Y-16730868D01*
X11682798Y-16664201D02*
X11682798Y-16835630D01*
X11682798Y-16835630D02*
X11692321Y-16854678D01*
X11692321Y-16854678D02*
X11711369Y-16864202D01*
X11711369Y-16864202D02*
X11730417Y-16864202D01*
X11917083Y-16730868D02*
X11917083Y-16930868D01*
X11917083Y-16740392D02*
X11936131Y-16730868D01*
X11936131Y-16730868D02*
X11974226Y-16730868D01*
X11974226Y-16730868D02*
X11993274Y-16740392D01*
X11993274Y-16740392D02*
X12002798Y-16749916D01*
X12002798Y-16749916D02*
X12012321Y-16768963D01*
X12012321Y-16768963D02*
X12012321Y-16826106D01*
X12012321Y-16826106D02*
X12002798Y-16845154D01*
X12002798Y-16845154D02*
X11993274Y-16854678D01*
X11993274Y-16854678D02*
X11974226Y-16864202D01*
X11974226Y-16864202D02*
X11936131Y-16864202D01*
X11936131Y-16864202D02*
X11917083Y-16854678D01*
X12126607Y-16864202D02*
X12107559Y-16854678D01*
X12107559Y-16854678D02*
X12098036Y-16835630D01*
X12098036Y-16835630D02*
X12098036Y-16664201D01*
X12288512Y-16864202D02*
X12288512Y-16759440D01*
X12288512Y-16759440D02*
X12278988Y-16740392D01*
X12278988Y-16740392D02*
X12259940Y-16730868D01*
X12259940Y-16730868D02*
X12221845Y-16730868D01*
X12221845Y-16730868D02*
X12202798Y-16740392D01*
X12288512Y-16854678D02*
X12269464Y-16864202D01*
X12269464Y-16864202D02*
X12221845Y-16864202D01*
X12221845Y-16864202D02*
X12202798Y-16854678D01*
X12202798Y-16854678D02*
X12193274Y-16835630D01*
X12193274Y-16835630D02*
X12193274Y-16816583D01*
X12193274Y-16816583D02*
X12202798Y-16797535D01*
X12202798Y-16797535D02*
X12221845Y-16788011D01*
X12221845Y-16788011D02*
X12269464Y-16788011D01*
X12269464Y-16788011D02*
X12288512Y-16778487D01*
X12355179Y-16730868D02*
X12431369Y-16730868D01*
X12383750Y-16664201D02*
X12383750Y-16835630D01*
X12383750Y-16835630D02*
X12393274Y-16854678D01*
X12393274Y-16854678D02*
X12412321Y-16864202D01*
X12412321Y-16864202D02*
X12431369Y-16864202D01*
X12574226Y-16854678D02*
X12555179Y-16864202D01*
X12555179Y-16864202D02*
X12517083Y-16864202D01*
X12517083Y-16864202D02*
X12498036Y-16854678D01*
X12498036Y-16854678D02*
X12488512Y-16835630D01*
X12488512Y-16835630D02*
X12488512Y-16759440D01*
X12488512Y-16759440D02*
X12498036Y-16740392D01*
X12498036Y-16740392D02*
X12517083Y-16730868D01*
X12517083Y-16730868D02*
X12555179Y-16730868D01*
X12555179Y-16730868D02*
X12574226Y-16740392D01*
X12574226Y-16740392D02*
X12583750Y-16759440D01*
X12583750Y-16759440D02*
X12583750Y-16778487D01*
X12583750Y-16778487D02*
X12488512Y-16797535D01*
X12755179Y-16864202D02*
X12755179Y-16664201D01*
X12755179Y-16854678D02*
X12736131Y-16864202D01*
X12736131Y-16864202D02*
X12698036Y-16864202D01*
X12698036Y-16864202D02*
X12678988Y-16854678D01*
X12678988Y-16854678D02*
X12669464Y-16845154D01*
X12669464Y-16845154D02*
X12659940Y-16826106D01*
X12659940Y-16826106D02*
X12659940Y-16768963D01*
X12659940Y-16768963D02*
X12669464Y-16749916D01*
X12669464Y-16749916D02*
X12678988Y-16740392D01*
X12678988Y-16740392D02*
X12698036Y-16730868D01*
X12698036Y-16730868D02*
X12736131Y-16730868D01*
X12736131Y-16730868D02*
X12755179Y-16740392D01*
X12831369Y-16940392D02*
X12840893Y-16930868D01*
X12840893Y-16930868D02*
X12859940Y-16902297D01*
X12859940Y-16902297D02*
X12869464Y-16883249D01*
X12869464Y-16883249D02*
X12878988Y-16854678D01*
X12878988Y-16854678D02*
X12888512Y-16807059D01*
X12888512Y-16807059D02*
X12888512Y-16768963D01*
X12888512Y-16768963D02*
X12878988Y-16721344D01*
X12878988Y-16721344D02*
X12869464Y-16692773D01*
X12869464Y-16692773D02*
X12859940Y-16673725D01*
X12859940Y-16673725D02*
X12840893Y-16645154D01*
X12840893Y-16645154D02*
X12831369Y-16635630D01*
D13*
X6282797Y-17054725D02*
G75*
G03*
X6282797Y-17054725I-49530J0D01*
G01*
D11*
X6568512Y-16928202D02*
X6587559Y-16928202D01*
X6587559Y-16928202D02*
X6606607Y-16937725D01*
X6606607Y-16937725D02*
X6616131Y-16947249D01*
X6616131Y-16947249D02*
X6625654Y-16966297D01*
X6625654Y-16966297D02*
X6635178Y-17004392D01*
X6635178Y-17004392D02*
X6635178Y-17052011D01*
X6635178Y-17052011D02*
X6625654Y-17090106D01*
X6625654Y-17090106D02*
X6616131Y-17109154D01*
X6616131Y-17109154D02*
X6606607Y-17118678D01*
X6606607Y-17118678D02*
X6587559Y-17128202D01*
X6587559Y-17128202D02*
X6568512Y-17128202D01*
X6568512Y-17128202D02*
X6549464Y-17118678D01*
X6549464Y-17118678D02*
X6539940Y-17109154D01*
X6539940Y-17109154D02*
X6530416Y-17090106D01*
X6530416Y-17090106D02*
X6520893Y-17052011D01*
X6520893Y-17052011D02*
X6520893Y-17004392D01*
X6520893Y-17004392D02*
X6530416Y-16966297D01*
X6530416Y-16966297D02*
X6539940Y-16947249D01*
X6539940Y-16947249D02*
X6549464Y-16937725D01*
X6549464Y-16937725D02*
X6568512Y-16928202D01*
X6720893Y-17109154D02*
X6730416Y-17118678D01*
X6730416Y-17118678D02*
X6720893Y-17128202D01*
X6720893Y-17128202D02*
X6711369Y-17118678D01*
X6711369Y-17118678D02*
X6720893Y-17109154D01*
X6720893Y-17109154D02*
X6720893Y-17128202D01*
X6825654Y-17128202D02*
X6863750Y-17128202D01*
X6863750Y-17128202D02*
X6882797Y-17118678D01*
X6882797Y-17118678D02*
X6892321Y-17109154D01*
X6892321Y-17109154D02*
X6911369Y-17080583D01*
X6911369Y-17080583D02*
X6920893Y-17042487D01*
X6920893Y-17042487D02*
X6920893Y-16966297D01*
X6920893Y-16966297D02*
X6911369Y-16947249D01*
X6911369Y-16947249D02*
X6901845Y-16937725D01*
X6901845Y-16937725D02*
X6882797Y-16928202D01*
X6882797Y-16928202D02*
X6844702Y-16928202D01*
X6844702Y-16928202D02*
X6825654Y-16937725D01*
X6825654Y-16937725D02*
X6816131Y-16947249D01*
X6816131Y-16947249D02*
X6806607Y-16966297D01*
X6806607Y-16966297D02*
X6806607Y-17013916D01*
X6806607Y-17013916D02*
X6816131Y-17032963D01*
X6816131Y-17032963D02*
X6825654Y-17042487D01*
X6825654Y-17042487D02*
X6844702Y-17052011D01*
X6844702Y-17052011D02*
X6882797Y-17052011D01*
X6882797Y-17052011D02*
X6901845Y-17042487D01*
X6901845Y-17042487D02*
X6911369Y-17032963D01*
X6911369Y-17032963D02*
X6920893Y-17013916D01*
X7016131Y-17128202D02*
X7054226Y-17128202D01*
X7054226Y-17128202D02*
X7073274Y-17118678D01*
X7073274Y-17118678D02*
X7082797Y-17109154D01*
X7082797Y-17109154D02*
X7101845Y-17080583D01*
X7101845Y-17080583D02*
X7111369Y-17042487D01*
X7111369Y-17042487D02*
X7111369Y-16966297D01*
X7111369Y-16966297D02*
X7101845Y-16947249D01*
X7101845Y-16947249D02*
X7092321Y-16937725D01*
X7092321Y-16937725D02*
X7073274Y-16928202D01*
X7073274Y-16928202D02*
X7035178Y-16928202D01*
X7035178Y-16928202D02*
X7016131Y-16937725D01*
X7016131Y-16937725D02*
X7006607Y-16947249D01*
X7006607Y-16947249D02*
X6997083Y-16966297D01*
X6997083Y-16966297D02*
X6997083Y-17013916D01*
X6997083Y-17013916D02*
X7006607Y-17032963D01*
X7006607Y-17032963D02*
X7016131Y-17042487D01*
X7016131Y-17042487D02*
X7035178Y-17052011D01*
X7035178Y-17052011D02*
X7073274Y-17052011D01*
X7073274Y-17052011D02*
X7092321Y-17042487D01*
X7092321Y-17042487D02*
X7101845Y-17032963D01*
X7101845Y-17032963D02*
X7111369Y-17013916D01*
X7301845Y-17128202D02*
X7187559Y-17128202D01*
X7244702Y-17128202D02*
X7244702Y-16928202D01*
X7244702Y-16928202D02*
X7225654Y-16956773D01*
X7225654Y-16956773D02*
X7206607Y-16975821D01*
X7206607Y-16975821D02*
X7187559Y-16985344D01*
X7387559Y-17128202D02*
X7387559Y-16994868D01*
X7387559Y-17013916D02*
X7397083Y-17004392D01*
X7397083Y-17004392D02*
X7416131Y-16994868D01*
X7416131Y-16994868D02*
X7444702Y-16994868D01*
X7444702Y-16994868D02*
X7463750Y-17004392D01*
X7463750Y-17004392D02*
X7473274Y-17023440D01*
X7473274Y-17023440D02*
X7473274Y-17128202D01*
X7473274Y-17023440D02*
X7482797Y-17004392D01*
X7482797Y-17004392D02*
X7501845Y-16994868D01*
X7501845Y-16994868D02*
X7530416Y-16994868D01*
X7530416Y-16994868D02*
X7549464Y-17004392D01*
X7549464Y-17004392D02*
X7558988Y-17023440D01*
X7558988Y-17023440D02*
X7558988Y-17128202D01*
X7654226Y-17128202D02*
X7654226Y-16994868D01*
X7654226Y-17013916D02*
X7663750Y-17004392D01*
X7663750Y-17004392D02*
X7682797Y-16994868D01*
X7682797Y-16994868D02*
X7711369Y-16994868D01*
X7711369Y-16994868D02*
X7730416Y-17004392D01*
X7730416Y-17004392D02*
X7739940Y-17023440D01*
X7739940Y-17023440D02*
X7739940Y-17128202D01*
X7739940Y-17023440D02*
X7749464Y-17004392D01*
X7749464Y-17004392D02*
X7768512Y-16994868D01*
X7768512Y-16994868D02*
X7797083Y-16994868D01*
X7797083Y-16994868D02*
X7816131Y-17004392D01*
X7816131Y-17004392D02*
X7825655Y-17023440D01*
X7825655Y-17023440D02*
X7825655Y-17128202D01*
X8183750Y-16918678D02*
X8012321Y-17175821D01*
X8408512Y-16928202D02*
X8427559Y-16928202D01*
X8427559Y-16928202D02*
X8446607Y-16937725D01*
X8446607Y-16937725D02*
X8456131Y-16947249D01*
X8456131Y-16947249D02*
X8465655Y-16966297D01*
X8465655Y-16966297D02*
X8475178Y-17004392D01*
X8475178Y-17004392D02*
X8475178Y-17052011D01*
X8475178Y-17052011D02*
X8465655Y-17090106D01*
X8465655Y-17090106D02*
X8456131Y-17109154D01*
X8456131Y-17109154D02*
X8446607Y-17118678D01*
X8446607Y-17118678D02*
X8427559Y-17128202D01*
X8427559Y-17128202D02*
X8408512Y-17128202D01*
X8408512Y-17128202D02*
X8389464Y-17118678D01*
X8389464Y-17118678D02*
X8379940Y-17109154D01*
X8379940Y-17109154D02*
X8370416Y-17090106D01*
X8370416Y-17090106D02*
X8360893Y-17052011D01*
X8360893Y-17052011D02*
X8360893Y-17004392D01*
X8360893Y-17004392D02*
X8370416Y-16966297D01*
X8370416Y-16966297D02*
X8379940Y-16947249D01*
X8379940Y-16947249D02*
X8389464Y-16937725D01*
X8389464Y-16937725D02*
X8408512Y-16928202D01*
X8560893Y-17109154D02*
X8570417Y-17118678D01*
X8570417Y-17118678D02*
X8560893Y-17128202D01*
X8560893Y-17128202D02*
X8551369Y-17118678D01*
X8551369Y-17118678D02*
X8560893Y-17109154D01*
X8560893Y-17109154D02*
X8560893Y-17128202D01*
X8694226Y-16928202D02*
X8713274Y-16928202D01*
X8713274Y-16928202D02*
X8732321Y-16937725D01*
X8732321Y-16937725D02*
X8741845Y-16947249D01*
X8741845Y-16947249D02*
X8751369Y-16966297D01*
X8751369Y-16966297D02*
X8760893Y-17004392D01*
X8760893Y-17004392D02*
X8760893Y-17052011D01*
X8760893Y-17052011D02*
X8751369Y-17090106D01*
X8751369Y-17090106D02*
X8741845Y-17109154D01*
X8741845Y-17109154D02*
X8732321Y-17118678D01*
X8732321Y-17118678D02*
X8713274Y-17128202D01*
X8713274Y-17128202D02*
X8694226Y-17128202D01*
X8694226Y-17128202D02*
X8675178Y-17118678D01*
X8675178Y-17118678D02*
X8665655Y-17109154D01*
X8665655Y-17109154D02*
X8656131Y-17090106D01*
X8656131Y-17090106D02*
X8646607Y-17052011D01*
X8646607Y-17052011D02*
X8646607Y-17004392D01*
X8646607Y-17004392D02*
X8656131Y-16966297D01*
X8656131Y-16966297D02*
X8665655Y-16947249D01*
X8665655Y-16947249D02*
X8675178Y-16937725D01*
X8675178Y-16937725D02*
X8694226Y-16928202D01*
X8827559Y-16928202D02*
X8951369Y-16928202D01*
X8951369Y-16928202D02*
X8884702Y-17004392D01*
X8884702Y-17004392D02*
X8913274Y-17004392D01*
X8913274Y-17004392D02*
X8932321Y-17013916D01*
X8932321Y-17013916D02*
X8941845Y-17023440D01*
X8941845Y-17023440D02*
X8951369Y-17042487D01*
X8951369Y-17042487D02*
X8951369Y-17090106D01*
X8951369Y-17090106D02*
X8941845Y-17109154D01*
X8941845Y-17109154D02*
X8932321Y-17118678D01*
X8932321Y-17118678D02*
X8913274Y-17128202D01*
X8913274Y-17128202D02*
X8856131Y-17128202D01*
X8856131Y-17128202D02*
X8837083Y-17118678D01*
X8837083Y-17118678D02*
X8827559Y-17109154D01*
X9046607Y-17128202D02*
X9084702Y-17128202D01*
X9084702Y-17128202D02*
X9103750Y-17118678D01*
X9103750Y-17118678D02*
X9113274Y-17109154D01*
X9113274Y-17109154D02*
X9132321Y-17080583D01*
X9132321Y-17080583D02*
X9141845Y-17042487D01*
X9141845Y-17042487D02*
X9141845Y-16966297D01*
X9141845Y-16966297D02*
X9132321Y-16947249D01*
X9132321Y-16947249D02*
X9122798Y-16937725D01*
X9122798Y-16937725D02*
X9103750Y-16928202D01*
X9103750Y-16928202D02*
X9065655Y-16928202D01*
X9065655Y-16928202D02*
X9046607Y-16937725D01*
X9046607Y-16937725D02*
X9037083Y-16947249D01*
X9037083Y-16947249D02*
X9027559Y-16966297D01*
X9027559Y-16966297D02*
X9027559Y-17013916D01*
X9027559Y-17013916D02*
X9037083Y-17032963D01*
X9037083Y-17032963D02*
X9046607Y-17042487D01*
X9046607Y-17042487D02*
X9065655Y-17052011D01*
X9065655Y-17052011D02*
X9103750Y-17052011D01*
X9103750Y-17052011D02*
X9122798Y-17042487D01*
X9122798Y-17042487D02*
X9132321Y-17032963D01*
X9132321Y-17032963D02*
X9141845Y-17013916D01*
X9265655Y-16928202D02*
X9284702Y-16928202D01*
X9284702Y-16928202D02*
X9303750Y-16937725D01*
X9303750Y-16937725D02*
X9313274Y-16947249D01*
X9313274Y-16947249D02*
X9322798Y-16966297D01*
X9322798Y-16966297D02*
X9332321Y-17004392D01*
X9332321Y-17004392D02*
X9332321Y-17052011D01*
X9332321Y-17052011D02*
X9322798Y-17090106D01*
X9322798Y-17090106D02*
X9313274Y-17109154D01*
X9313274Y-17109154D02*
X9303750Y-17118678D01*
X9303750Y-17118678D02*
X9284702Y-17128202D01*
X9284702Y-17128202D02*
X9265655Y-17128202D01*
X9265655Y-17128202D02*
X9246607Y-17118678D01*
X9246607Y-17118678D02*
X9237083Y-17109154D01*
X9237083Y-17109154D02*
X9227559Y-17090106D01*
X9227559Y-17090106D02*
X9218036Y-17052011D01*
X9218036Y-17052011D02*
X9218036Y-17004392D01*
X9218036Y-17004392D02*
X9227559Y-16966297D01*
X9227559Y-16966297D02*
X9237083Y-16947249D01*
X9237083Y-16947249D02*
X9246607Y-16937725D01*
X9246607Y-16937725D02*
X9265655Y-16928202D01*
X9408512Y-16928202D02*
X9408512Y-16966297D01*
X9484702Y-16928202D02*
X9484702Y-16966297D01*
X9747560Y-17204392D02*
X9738036Y-17194868D01*
X9738036Y-17194868D02*
X9718988Y-17166297D01*
X9718988Y-17166297D02*
X9709464Y-17147249D01*
X9709464Y-17147249D02*
X9699940Y-17118678D01*
X9699940Y-17118678D02*
X9690417Y-17071059D01*
X9690417Y-17071059D02*
X9690417Y-17032963D01*
X9690417Y-17032963D02*
X9699940Y-16985344D01*
X9699940Y-16985344D02*
X9709464Y-16956773D01*
X9709464Y-16956773D02*
X9718988Y-16937725D01*
X9718988Y-16937725D02*
X9738036Y-16909154D01*
X9738036Y-16909154D02*
X9747560Y-16899630D01*
X9804702Y-16928202D02*
X9928512Y-16928202D01*
X9928512Y-16928202D02*
X9861845Y-17004392D01*
X9861845Y-17004392D02*
X9890417Y-17004392D01*
X9890417Y-17004392D02*
X9909464Y-17013916D01*
X9909464Y-17013916D02*
X9918988Y-17023440D01*
X9918988Y-17023440D02*
X9928512Y-17042487D01*
X9928512Y-17042487D02*
X9928512Y-17090106D01*
X9928512Y-17090106D02*
X9918988Y-17109154D01*
X9918988Y-17109154D02*
X9909464Y-17118678D01*
X9909464Y-17118678D02*
X9890417Y-17128202D01*
X9890417Y-17128202D02*
X9833274Y-17128202D01*
X9833274Y-17128202D02*
X9814226Y-17118678D01*
X9814226Y-17118678D02*
X9804702Y-17109154D01*
X10134226Y-17128202D02*
X10134226Y-16928202D01*
X10219940Y-17128202D02*
X10219940Y-17023440D01*
X10219940Y-17023440D02*
X10210417Y-17004392D01*
X10210417Y-17004392D02*
X10191369Y-16994868D01*
X10191369Y-16994868D02*
X10162798Y-16994868D01*
X10162798Y-16994868D02*
X10143750Y-17004392D01*
X10143750Y-17004392D02*
X10134226Y-17013916D01*
X10343750Y-17128202D02*
X10324702Y-17118678D01*
X10324702Y-17118678D02*
X10315179Y-17109154D01*
X10315179Y-17109154D02*
X10305655Y-17090106D01*
X10305655Y-17090106D02*
X10305655Y-17032963D01*
X10305655Y-17032963D02*
X10315179Y-17013916D01*
X10315179Y-17013916D02*
X10324702Y-17004392D01*
X10324702Y-17004392D02*
X10343750Y-16994868D01*
X10343750Y-16994868D02*
X10372321Y-16994868D01*
X10372321Y-16994868D02*
X10391369Y-17004392D01*
X10391369Y-17004392D02*
X10400893Y-17013916D01*
X10400893Y-17013916D02*
X10410417Y-17032963D01*
X10410417Y-17032963D02*
X10410417Y-17090106D01*
X10410417Y-17090106D02*
X10400893Y-17109154D01*
X10400893Y-17109154D02*
X10391369Y-17118678D01*
X10391369Y-17118678D02*
X10372321Y-17128202D01*
X10372321Y-17128202D02*
X10343750Y-17128202D01*
X10524702Y-17128202D02*
X10505655Y-17118678D01*
X10505655Y-17118678D02*
X10496131Y-17099630D01*
X10496131Y-17099630D02*
X10496131Y-16928202D01*
X10677083Y-17118678D02*
X10658036Y-17128202D01*
X10658036Y-17128202D02*
X10619940Y-17128202D01*
X10619940Y-17128202D02*
X10600893Y-17118678D01*
X10600893Y-17118678D02*
X10591369Y-17099630D01*
X10591369Y-17099630D02*
X10591369Y-17023440D01*
X10591369Y-17023440D02*
X10600893Y-17004392D01*
X10600893Y-17004392D02*
X10619940Y-16994868D01*
X10619940Y-16994868D02*
X10658036Y-16994868D01*
X10658036Y-16994868D02*
X10677083Y-17004392D01*
X10677083Y-17004392D02*
X10686607Y-17023440D01*
X10686607Y-17023440D02*
X10686607Y-17042487D01*
X10686607Y-17042487D02*
X10591369Y-17061535D01*
X10762798Y-17118678D02*
X10781845Y-17128202D01*
X10781845Y-17128202D02*
X10819940Y-17128202D01*
X10819940Y-17128202D02*
X10838988Y-17118678D01*
X10838988Y-17118678D02*
X10848512Y-17099630D01*
X10848512Y-17099630D02*
X10848512Y-17090106D01*
X10848512Y-17090106D02*
X10838988Y-17071059D01*
X10838988Y-17071059D02*
X10819940Y-17061535D01*
X10819940Y-17061535D02*
X10791369Y-17061535D01*
X10791369Y-17061535D02*
X10772321Y-17052011D01*
X10772321Y-17052011D02*
X10762798Y-17032963D01*
X10762798Y-17032963D02*
X10762798Y-17023440D01*
X10762798Y-17023440D02*
X10772321Y-17004392D01*
X10772321Y-17004392D02*
X10791369Y-16994868D01*
X10791369Y-16994868D02*
X10819940Y-16994868D01*
X10819940Y-16994868D02*
X10838988Y-17004392D01*
X10915179Y-17204392D02*
X10924702Y-17194868D01*
X10924702Y-17194868D02*
X10943750Y-17166297D01*
X10943750Y-17166297D02*
X10953274Y-17147249D01*
X10953274Y-17147249D02*
X10962798Y-17118678D01*
X10962798Y-17118678D02*
X10972321Y-17071059D01*
X10972321Y-17071059D02*
X10972321Y-17032963D01*
X10972321Y-17032963D02*
X10962798Y-16985344D01*
X10962798Y-16985344D02*
X10953274Y-16956773D01*
X10953274Y-16956773D02*
X10943750Y-16937725D01*
X10943750Y-16937725D02*
X10924702Y-16909154D01*
X10924702Y-16909154D02*
X10915179Y-16899630D01*
X11244702Y-17204392D02*
X11235178Y-17194868D01*
X11235178Y-17194868D02*
X11216131Y-17166297D01*
X11216131Y-17166297D02*
X11206607Y-17147249D01*
X11206607Y-17147249D02*
X11197083Y-17118678D01*
X11197083Y-17118678D02*
X11187559Y-17071059D01*
X11187559Y-17071059D02*
X11187559Y-17032963D01*
X11187559Y-17032963D02*
X11197083Y-16985344D01*
X11197083Y-16985344D02*
X11206607Y-16956773D01*
X11206607Y-16956773D02*
X11216131Y-16937725D01*
X11216131Y-16937725D02*
X11235178Y-16909154D01*
X11235178Y-16909154D02*
X11244702Y-16899630D01*
X11320893Y-16994868D02*
X11320893Y-17128202D01*
X11320893Y-17013916D02*
X11330417Y-17004392D01*
X11330417Y-17004392D02*
X11349464Y-16994868D01*
X11349464Y-16994868D02*
X11378036Y-16994868D01*
X11378036Y-16994868D02*
X11397083Y-17004392D01*
X11397083Y-17004392D02*
X11406607Y-17023440D01*
X11406607Y-17023440D02*
X11406607Y-17128202D01*
X11530417Y-17128202D02*
X11511369Y-17118678D01*
X11511369Y-17118678D02*
X11501845Y-17109154D01*
X11501845Y-17109154D02*
X11492321Y-17090106D01*
X11492321Y-17090106D02*
X11492321Y-17032963D01*
X11492321Y-17032963D02*
X11501845Y-17013916D01*
X11501845Y-17013916D02*
X11511369Y-17004392D01*
X11511369Y-17004392D02*
X11530417Y-16994868D01*
X11530417Y-16994868D02*
X11558988Y-16994868D01*
X11558988Y-16994868D02*
X11578036Y-17004392D01*
X11578036Y-17004392D02*
X11587559Y-17013916D01*
X11587559Y-17013916D02*
X11597083Y-17032963D01*
X11597083Y-17032963D02*
X11597083Y-17090106D01*
X11597083Y-17090106D02*
X11587559Y-17109154D01*
X11587559Y-17109154D02*
X11578036Y-17118678D01*
X11578036Y-17118678D02*
X11558988Y-17128202D01*
X11558988Y-17128202D02*
X11530417Y-17128202D01*
X11654226Y-16994868D02*
X11730417Y-16994868D01*
X11682798Y-16928202D02*
X11682798Y-17099630D01*
X11682798Y-17099630D02*
X11692321Y-17118678D01*
X11692321Y-17118678D02*
X11711369Y-17128202D01*
X11711369Y-17128202D02*
X11730417Y-17128202D01*
X11917083Y-16994868D02*
X11917083Y-17194868D01*
X11917083Y-17004392D02*
X11936131Y-16994868D01*
X11936131Y-16994868D02*
X11974226Y-16994868D01*
X11974226Y-16994868D02*
X11993274Y-17004392D01*
X11993274Y-17004392D02*
X12002798Y-17013916D01*
X12002798Y-17013916D02*
X12012321Y-17032963D01*
X12012321Y-17032963D02*
X12012321Y-17090106D01*
X12012321Y-17090106D02*
X12002798Y-17109154D01*
X12002798Y-17109154D02*
X11993274Y-17118678D01*
X11993274Y-17118678D02*
X11974226Y-17128202D01*
X11974226Y-17128202D02*
X11936131Y-17128202D01*
X11936131Y-17128202D02*
X11917083Y-17118678D01*
X12126607Y-17128202D02*
X12107559Y-17118678D01*
X12107559Y-17118678D02*
X12098036Y-17099630D01*
X12098036Y-17099630D02*
X12098036Y-16928202D01*
X12288512Y-17128202D02*
X12288512Y-17023440D01*
X12288512Y-17023440D02*
X12278988Y-17004392D01*
X12278988Y-17004392D02*
X12259940Y-16994868D01*
X12259940Y-16994868D02*
X12221845Y-16994868D01*
X12221845Y-16994868D02*
X12202798Y-17004392D01*
X12288512Y-17118678D02*
X12269464Y-17128202D01*
X12269464Y-17128202D02*
X12221845Y-17128202D01*
X12221845Y-17128202D02*
X12202798Y-17118678D01*
X12202798Y-17118678D02*
X12193274Y-17099630D01*
X12193274Y-17099630D02*
X12193274Y-17080583D01*
X12193274Y-17080583D02*
X12202798Y-17061535D01*
X12202798Y-17061535D02*
X12221845Y-17052011D01*
X12221845Y-17052011D02*
X12269464Y-17052011D01*
X12269464Y-17052011D02*
X12288512Y-17042487D01*
X12355179Y-16994868D02*
X12431369Y-16994868D01*
X12383750Y-16928202D02*
X12383750Y-17099630D01*
X12383750Y-17099630D02*
X12393274Y-17118678D01*
X12393274Y-17118678D02*
X12412321Y-17128202D01*
X12412321Y-17128202D02*
X12431369Y-17128202D01*
X12574226Y-17118678D02*
X12555179Y-17128202D01*
X12555179Y-17128202D02*
X12517083Y-17128202D01*
X12517083Y-17128202D02*
X12498036Y-17118678D01*
X12498036Y-17118678D02*
X12488512Y-17099630D01*
X12488512Y-17099630D02*
X12488512Y-17023440D01*
X12488512Y-17023440D02*
X12498036Y-17004392D01*
X12498036Y-17004392D02*
X12517083Y-16994868D01*
X12517083Y-16994868D02*
X12555179Y-16994868D01*
X12555179Y-16994868D02*
X12574226Y-17004392D01*
X12574226Y-17004392D02*
X12583750Y-17023440D01*
X12583750Y-17023440D02*
X12583750Y-17042487D01*
X12583750Y-17042487D02*
X12488512Y-17061535D01*
X12755179Y-17128202D02*
X12755179Y-16928202D01*
X12755179Y-17118678D02*
X12736131Y-17128202D01*
X12736131Y-17128202D02*
X12698036Y-17128202D01*
X12698036Y-17128202D02*
X12678988Y-17118678D01*
X12678988Y-17118678D02*
X12669464Y-17109154D01*
X12669464Y-17109154D02*
X12659940Y-17090106D01*
X12659940Y-17090106D02*
X12659940Y-17032963D01*
X12659940Y-17032963D02*
X12669464Y-17013916D01*
X12669464Y-17013916D02*
X12678988Y-17004392D01*
X12678988Y-17004392D02*
X12698036Y-16994868D01*
X12698036Y-16994868D02*
X12736131Y-16994868D01*
X12736131Y-16994868D02*
X12755179Y-17004392D01*
X12831369Y-17204392D02*
X12840893Y-17194868D01*
X12840893Y-17194868D02*
X12859940Y-17166297D01*
X12859940Y-17166297D02*
X12869464Y-17147249D01*
X12869464Y-17147249D02*
X12878988Y-17118678D01*
X12878988Y-17118678D02*
X12888512Y-17071059D01*
X12888512Y-17071059D02*
X12888512Y-17032963D01*
X12888512Y-17032963D02*
X12878988Y-16985344D01*
X12878988Y-16985344D02*
X12869464Y-16956773D01*
X12869464Y-16956773D02*
X12859940Y-16937725D01*
X12859940Y-16937725D02*
X12840893Y-16909154D01*
X12840893Y-16909154D02*
X12831369Y-16899630D01*
M02*
