G04 #@! TF.GenerationSoftware,KiCad,Pcbnew,(7.0.0)*
G04 #@! TF.CreationDate,2023-03-26T02:59:07-07:00*
G04 #@! TF.ProjectId,HallBox,48616c6c-426f-4782-9e6b-696361645f70,rev?*
G04 #@! TF.SameCoordinates,Original*
G04 #@! TF.FileFunction,Paste,Top*
G04 #@! TF.FilePolarity,Positive*
%FSLAX46Y46*%
G04 Gerber Fmt 4.6, Leading zero omitted, Abs format (unit mm)*
G04 Created by KiCad (PCBNEW (7.0.0)) date 2023-03-26 02:59:07*
%MOMM*%
%LPD*%
G01*
G04 APERTURE LIST*
G04 Aperture macros list*
%AMRoundRect*
0 Rectangle with rounded corners*
0 $1 Rounding radius*
0 $2 $3 $4 $5 $6 $7 $8 $9 X,Y pos of 4 corners*
0 Add a 4 corners polygon primitive as box body*
4,1,4,$2,$3,$4,$5,$6,$7,$8,$9,$2,$3,0*
0 Add four circle primitives for the rounded corners*
1,1,$1+$1,$2,$3*
1,1,$1+$1,$4,$5*
1,1,$1+$1,$6,$7*
1,1,$1+$1,$8,$9*
0 Add four rect primitives between the rounded corners*
20,1,$1+$1,$2,$3,$4,$5,0*
20,1,$1+$1,$4,$5,$6,$7,0*
20,1,$1+$1,$6,$7,$8,$9,0*
20,1,$1+$1,$8,$9,$2,$3,0*%
G04 Aperture macros list end*
%ADD10R,1.750000X0.450000*%
%ADD11RoundRect,0.135000X0.135000X0.185000X-0.135000X0.185000X-0.135000X-0.185000X0.135000X-0.185000X0*%
%ADD12RoundRect,0.200000X-0.275000X0.200000X-0.275000X-0.200000X0.275000X-0.200000X0.275000X0.200000X0*%
%ADD13RoundRect,0.200000X0.275000X-0.200000X0.275000X0.200000X-0.275000X0.200000X-0.275000X-0.200000X0*%
%ADD14RoundRect,0.135000X-0.185000X0.135000X-0.185000X-0.135000X0.185000X-0.135000X0.185000X0.135000X0*%
%ADD15RoundRect,0.140000X-0.219203X-0.021213X-0.021213X-0.219203X0.219203X0.021213X0.021213X0.219203X0*%
%ADD16RoundRect,0.225000X0.375000X-0.225000X0.375000X0.225000X-0.375000X0.225000X-0.375000X-0.225000X0*%
%ADD17RoundRect,0.150000X-0.309359X-0.521491X0.521491X0.309359X0.309359X0.521491X-0.521491X-0.309359X0*%
%ADD18RoundRect,0.140000X0.170000X-0.140000X0.170000X0.140000X-0.170000X0.140000X-0.170000X-0.140000X0*%
%ADD19RoundRect,0.200000X0.200000X0.275000X-0.200000X0.275000X-0.200000X-0.275000X0.200000X-0.275000X0*%
%ADD20RoundRect,0.150000X0.587500X0.150000X-0.587500X0.150000X-0.587500X-0.150000X0.587500X-0.150000X0*%
%ADD21RoundRect,0.140000X0.140000X0.170000X-0.140000X0.170000X-0.140000X-0.170000X0.140000X-0.170000X0*%
%ADD22RoundRect,0.140000X-0.140000X-0.170000X0.140000X-0.170000X0.140000X0.170000X-0.140000X0.170000X0*%
%ADD23R,1.100000X1.800000*%
%ADD24RoundRect,0.140000X-0.170000X0.140000X-0.170000X-0.140000X0.170000X-0.140000X0.170000X0.140000X0*%
%ADD25RoundRect,0.050000X-0.050000X-0.387500X0.050000X-0.387500X0.050000X0.387500X-0.050000X0.387500X0*%
%ADD26RoundRect,0.050000X-0.387500X-0.050000X0.387500X-0.050000X0.387500X0.050000X-0.387500X0.050000X0*%
%ADD27RoundRect,0.250000X-0.292217X-0.292217X0.292217X-0.292217X0.292217X0.292217X-0.292217X0.292217X0*%
%ADD28R,1.400000X1.200000*%
%ADD29R,0.300000X0.900000*%
%ADD30R,0.300000X0.700000*%
%ADD31RoundRect,0.135000X0.185000X-0.135000X0.185000X0.135000X-0.185000X0.135000X-0.185000X-0.135000X0*%
%ADD32RoundRect,0.140000X-0.021213X0.219203X-0.219203X0.021213X0.021213X-0.219203X0.219203X-0.021213X0*%
%ADD33RoundRect,0.250000X-0.375000X-0.625000X0.375000X-0.625000X0.375000X0.625000X-0.375000X0.625000X0*%
%ADD34RoundRect,0.135000X-0.135000X-0.185000X0.135000X-0.185000X0.135000X0.185000X-0.135000X0.185000X0*%
%ADD35RoundRect,0.150000X-0.150000X0.512500X-0.150000X-0.512500X0.150000X-0.512500X0.150000X0.512500X0*%
%ADD36RoundRect,0.150000X-0.650000X-0.150000X0.650000X-0.150000X0.650000X0.150000X-0.650000X0.150000X0*%
G04 APERTURE END LIST*
D10*
X126629999Y-102244999D03*
X126629999Y-102894999D03*
X126629999Y-103544999D03*
X126629999Y-104194999D03*
X126629999Y-104844999D03*
X126629999Y-105494999D03*
X126629999Y-106144999D03*
X126629999Y-106794999D03*
X126629999Y-107444999D03*
X126629999Y-108094999D03*
X126629999Y-108744999D03*
X126629999Y-109394999D03*
X133829999Y-109394999D03*
X133829999Y-108744999D03*
X133829999Y-108094999D03*
X133829999Y-107444999D03*
X133829999Y-106794999D03*
X133829999Y-106144999D03*
X133829999Y-105494999D03*
X133829999Y-104844999D03*
X133829999Y-104194999D03*
X133829999Y-103544999D03*
X133829999Y-102894999D03*
X133829999Y-102244999D03*
D11*
X200457974Y-35067254D03*
X199437974Y-35067254D03*
D12*
X214547974Y-48617254D03*
X214547974Y-50267254D03*
D13*
X216087974Y-50267254D03*
X216087974Y-48617254D03*
D12*
X204527974Y-42152254D03*
X204527974Y-43802254D03*
D14*
X191367974Y-39047254D03*
X191367974Y-40067254D03*
D15*
X211743385Y-57992558D03*
X211064563Y-57313736D03*
D16*
X211967974Y-40597254D03*
X211967974Y-43897254D03*
D10*
X296679999Y-101424999D03*
X296679999Y-102074999D03*
X296679999Y-102724999D03*
X296679999Y-103374999D03*
X296679999Y-104024999D03*
X296679999Y-104674999D03*
X296679999Y-105324999D03*
X296679999Y-105974999D03*
X296679999Y-106624999D03*
X296679999Y-107274999D03*
X296679999Y-107924999D03*
X296679999Y-108574999D03*
X289479999Y-108574999D03*
X289479999Y-107924999D03*
X289479999Y-107274999D03*
X289479999Y-106624999D03*
X289479999Y-105974999D03*
X289479999Y-105324999D03*
X289479999Y-104674999D03*
X289479999Y-104024999D03*
X289479999Y-103374999D03*
X289479999Y-102724999D03*
X289479999Y-102074999D03*
X289479999Y-101424999D03*
D17*
X240070000Y-111240000D03*
X241413503Y-112583503D03*
X242067577Y-110585926D03*
D18*
X198862724Y-50553272D03*
X198862724Y-51513272D03*
X204097974Y-46219504D03*
X204097974Y-47179504D03*
D17*
X301530000Y-37430000D03*
X302873503Y-38773503D03*
X303527577Y-36775926D03*
D19*
X210387974Y-26557254D03*
X212037974Y-26557254D03*
D18*
X207879724Y-48013272D03*
X207879724Y-48973272D03*
D17*
X221260000Y-127340000D03*
X222603503Y-128683503D03*
X223257577Y-126685926D03*
X229320000Y-154460000D03*
X230663503Y-155803503D03*
X231317577Y-153805926D03*
D18*
X202573974Y-46219504D03*
X202573974Y-47179504D03*
D20*
X207932974Y-40657254D03*
X209807974Y-39707254D03*
X209807974Y-41607254D03*
D21*
X210957974Y-45262254D03*
X211917974Y-45262254D03*
D17*
X206000000Y-84400000D03*
X207343503Y-85743503D03*
X207997577Y-83745926D03*
X166380000Y-135620000D03*
X167723503Y-136963503D03*
X168377577Y-134965926D03*
X280255336Y-67571161D03*
X281598839Y-68914664D03*
X282252913Y-66917087D03*
X184200000Y-156720000D03*
X185543503Y-158063503D03*
X186197577Y-156065926D03*
D22*
X211054974Y-51271504D03*
X210094974Y-51271504D03*
D23*
X191277973Y-37437253D03*
X191277973Y-31237253D03*
X194977973Y-37437253D03*
X194977973Y-31237253D03*
D18*
X206863724Y-48013272D03*
X206863724Y-48973272D03*
D17*
X337900000Y-71800000D03*
X339243503Y-73143503D03*
X339897577Y-71145926D03*
X331000000Y-46140000D03*
X332343503Y-47483503D03*
X332997577Y-45485926D03*
X72662423Y-74684074D03*
X74005926Y-76027577D03*
X74660000Y-74030000D03*
X247142423Y-136374074D03*
X248485926Y-137717577D03*
X249140000Y-135720000D03*
D24*
X204986974Y-62800504D03*
X204986974Y-61840504D03*
D21*
X207937974Y-38417254D03*
X208897974Y-38417254D03*
D25*
X201497974Y-51294754D03*
X201897974Y-51294754D03*
X202297974Y-51294754D03*
X202697974Y-51294754D03*
X203097974Y-51294754D03*
X203497974Y-51294754D03*
X203897974Y-51294754D03*
X204297974Y-51294754D03*
X204697974Y-51294754D03*
X205097974Y-51294754D03*
X205497974Y-51294754D03*
X205897974Y-51294754D03*
X206297974Y-51294754D03*
X206697974Y-51294754D03*
D26*
X207535474Y-52132254D03*
X207535474Y-52532254D03*
X207535474Y-52932254D03*
X207535474Y-53332254D03*
X207535474Y-53732254D03*
X207535474Y-54132254D03*
X207535474Y-54532254D03*
X207535474Y-54932254D03*
X207535474Y-55332254D03*
X207535474Y-55732254D03*
X207535474Y-56132254D03*
X207535474Y-56532254D03*
X207535474Y-56932254D03*
X207535474Y-57332254D03*
D25*
X206697974Y-58169754D03*
X206297974Y-58169754D03*
X205897974Y-58169754D03*
X205497974Y-58169754D03*
X205097974Y-58169754D03*
X204697974Y-58169754D03*
X204297974Y-58169754D03*
X203897974Y-58169754D03*
X203497974Y-58169754D03*
X203097974Y-58169754D03*
X202697974Y-58169754D03*
X202297974Y-58169754D03*
X201897974Y-58169754D03*
X201497974Y-58169754D03*
D26*
X200660474Y-57332254D03*
X200660474Y-56932254D03*
X200660474Y-56532254D03*
X200660474Y-56132254D03*
X200660474Y-55732254D03*
X200660474Y-55332254D03*
X200660474Y-54932254D03*
X200660474Y-54532254D03*
X200660474Y-54132254D03*
X200660474Y-53732254D03*
X200660474Y-53332254D03*
X200660474Y-52932254D03*
X200660474Y-52532254D03*
X200660474Y-52132254D03*
D27*
X204735474Y-55369754D03*
X204735474Y-54094754D03*
X203460474Y-55369754D03*
X203460474Y-54094754D03*
D28*
X202911973Y-66726503D03*
X200711973Y-66726503D03*
X200711973Y-65026503D03*
X202911973Y-65026503D03*
D22*
X211917974Y-46462254D03*
X210957974Y-46462254D03*
D17*
X273370000Y-41900000D03*
X274713503Y-43243503D03*
X275367577Y-41245926D03*
D29*
X201346473Y-32757253D03*
X201846473Y-32757253D03*
X202346473Y-32757253D03*
X202846473Y-32757253D03*
X203346473Y-32757253D03*
D30*
X203846473Y-32757253D03*
X204346473Y-32757253D03*
D29*
X204846473Y-32757253D03*
X205346473Y-32757253D03*
X205846473Y-32757253D03*
X206346473Y-32757253D03*
X206846473Y-32757253D03*
D17*
X101370000Y-65490000D03*
X102713503Y-66833503D03*
X103367577Y-64835926D03*
D12*
X206057974Y-43802254D03*
X206057974Y-42152254D03*
D31*
X202954974Y-62830504D03*
X202954974Y-61810504D03*
D32*
X197507313Y-57214683D03*
X198186135Y-56535861D03*
D33*
X210627974Y-35297254D03*
X207827974Y-35297254D03*
D22*
X201097974Y-41477254D03*
X200137974Y-41477254D03*
D17*
X129420000Y-70190000D03*
X130763503Y-71533503D03*
X131417577Y-69535926D03*
D24*
X198382974Y-66626272D03*
X198382974Y-65666272D03*
D11*
X209507974Y-61767254D03*
X210527974Y-61767254D03*
D17*
X152045336Y-88411161D03*
X153388839Y-89754664D03*
X154042913Y-87757087D03*
X250870000Y-60370000D03*
X252213503Y-61713503D03*
X252867577Y-59715926D03*
D34*
X211287974Y-32407254D03*
X210267974Y-32407254D03*
D17*
X265042423Y-115594074D03*
X266385926Y-116937577D03*
X267040000Y-114940000D03*
D22*
X211054974Y-49747504D03*
X210094974Y-49747504D03*
D17*
X308420000Y-63090000D03*
X309763503Y-64433503D03*
X310417577Y-62435926D03*
D35*
X205047974Y-38324754D03*
X204097974Y-38324754D03*
X203147974Y-38324754D03*
X203147974Y-36049754D03*
X204097974Y-36049754D03*
X205047974Y-36049754D03*
D17*
X257752423Y-86014074D03*
X259095926Y-87357577D03*
X259750000Y-85360000D03*
D16*
X214347974Y-35667254D03*
X214347974Y-38967254D03*
D36*
X198567974Y-41482254D03*
X198567974Y-42752254D03*
X198567974Y-44022254D03*
X198567974Y-45292254D03*
X191367974Y-45292254D03*
X191367974Y-44022254D03*
X191367974Y-42752254D03*
X191367974Y-41482254D03*
D24*
X206510974Y-62800504D03*
X206510974Y-61840504D03*
D18*
X205085724Y-65412272D03*
X205085724Y-66372272D03*
M02*
