G04 #@! TF.GenerationSoftware,KiCad,Pcbnew,(7.0.0)*
G04 #@! TF.CreationDate,2023-03-26T02:59:07-07:00*
G04 #@! TF.ProjectId,HallBox,48616c6c-426f-4782-9e6b-696361645f70,rev?*
G04 #@! TF.SameCoordinates,Original*
G04 #@! TF.FileFunction,Copper,L2,Bot*
G04 #@! TF.FilePolarity,Positive*
%FSLAX46Y46*%
G04 Gerber Fmt 4.6, Leading zero omitted, Abs format (unit mm)*
G04 Created by KiCad (PCBNEW (7.0.0)) date 2023-03-26 02:59:07*
%MOMM*%
%LPD*%
G01*
G04 APERTURE LIST*
G04 #@! TA.AperFunction,ComponentPad*
%ADD10C,3.800000*%
G04 #@! TD*
G04 #@! TA.AperFunction,ComponentPad*
%ADD11C,0.600000*%
G04 #@! TD*
G04 #@! TA.AperFunction,ComponentPad*
%ADD12O,0.800000X1.400000*%
G04 #@! TD*
G04 #@! TA.AperFunction,ComponentPad*
%ADD13C,0.650000*%
G04 #@! TD*
G04 #@! TA.AperFunction,ViaPad*
%ADD14C,0.800000*%
G04 #@! TD*
G04 #@! TA.AperFunction,ViaPad*
%ADD15C,0.600000*%
G04 #@! TD*
G04 #@! TA.AperFunction,Conductor*
%ADD16C,0.200000*%
G04 #@! TD*
G04 #@! TA.AperFunction,Conductor*
%ADD17C,0.250000*%
G04 #@! TD*
G04 #@! TA.AperFunction,Conductor*
%ADD18C,0.500000*%
G04 #@! TD*
G04 #@! TA.AperFunction,Conductor*
%ADD19C,0.635000*%
G04 #@! TD*
G04 #@! TA.AperFunction,Conductor*
%ADD20C,0.381000*%
G04 #@! TD*
G04 APERTURE END LIST*
D10*
X310512974Y-143637254D03*
X182617974Y-34077254D03*
X225807974Y-34077254D03*
X117282974Y-93347300D03*
X97912974Y-143637254D03*
X310577974Y-47150637D03*
X284792974Y-93347300D03*
D11*
X205372974Y-56007254D03*
X205372974Y-54732254D03*
X205372974Y-53457254D03*
X204097974Y-56007254D03*
X204097974Y-54732254D03*
X204097974Y-53457254D03*
X202822974Y-56007254D03*
X202822974Y-54732254D03*
X202822974Y-53457254D03*
D12*
X199606473Y-26557253D03*
X199891473Y-30947253D03*
X208151473Y-30947253D03*
X208586473Y-26557253D03*
D13*
X206896474Y-31547254D03*
X206496474Y-30847254D03*
X205696474Y-30847254D03*
X205296474Y-31547254D03*
X204896474Y-30847254D03*
X204496474Y-31547254D03*
X203696474Y-31547254D03*
X203296474Y-30847254D03*
X202896474Y-31547254D03*
X202496474Y-30847254D03*
X201696474Y-30847254D03*
X201296474Y-31547254D03*
D10*
X103517974Y-47150637D03*
D14*
X122500000Y-107030000D03*
X137100000Y-105260000D03*
X195230000Y-59320000D03*
X195840000Y-60410000D03*
X196850000Y-61420000D03*
X197910000Y-62300000D03*
X135320000Y-108320000D03*
X215030000Y-55020000D03*
X133980000Y-97910000D03*
X212990000Y-53410000D03*
X285410000Y-99090000D03*
X296050000Y-110370000D03*
X293700000Y-108100000D03*
X128410000Y-111130000D03*
X129360000Y-110270000D03*
X284560000Y-108720000D03*
X285990000Y-107370000D03*
X131440000Y-107620000D03*
X130550000Y-109250000D03*
X293280000Y-105940000D03*
X76420000Y-72300000D03*
X105082423Y-63130000D03*
X133130000Y-67810000D03*
X155740000Y-86070000D03*
X170030000Y-133310000D03*
X187950000Y-154340000D03*
X312130000Y-60710000D03*
X254562423Y-58027577D03*
X243750000Y-108910000D03*
X224980000Y-124960000D03*
X233040000Y-152080000D03*
X268760000Y-113180000D03*
X250880000Y-133940000D03*
X341570000Y-69460000D03*
X334720000Y-43790000D03*
X305260000Y-35050000D03*
X277100000Y-39490000D03*
X284000000Y-65170000D03*
X261160000Y-83890000D03*
X209700000Y-82040000D03*
X198517974Y-28477254D03*
D15*
X214779563Y-32305665D03*
X211077974Y-52217254D03*
D14*
X198617974Y-29577254D03*
D15*
X200137974Y-42507254D03*
X204450724Y-60939272D03*
X209930713Y-64707254D03*
X204323724Y-48112272D03*
X203307724Y-45572272D03*
X207879724Y-47096272D03*
X196830724Y-57891272D03*
X193145474Y-45302254D03*
X212777974Y-45312254D03*
X198382974Y-64749272D03*
X209687974Y-38407254D03*
X212419974Y-58669147D03*
X205720724Y-63733272D03*
X209530713Y-67227254D03*
X201517974Y-37187254D03*
X202117974Y-41467254D03*
X211054724Y-48907254D03*
X206323974Y-45080147D03*
X198862724Y-49763272D03*
X205085724Y-67416272D03*
X210167974Y-46472254D03*
X204418974Y-45080147D03*
X203462974Y-48604504D03*
X207371724Y-61828272D03*
X204704724Y-56831754D03*
X204831724Y-52594504D03*
X202187974Y-34547254D03*
X206037974Y-34547254D03*
X213861885Y-69261165D03*
X213858474Y-65927254D03*
X206127974Y-35647254D03*
X210267974Y-33337754D03*
X204445974Y-33847254D03*
D16*
X131440000Y-107620000D02*
X131440000Y-100702691D01*
X132318685Y-98581375D02*
G75*
G03*
X131440000Y-100702691I2121315J-2121325D01*
G01*
X132318680Y-98581370D02*
X166624006Y-64276044D01*
X171442883Y-62279982D02*
G75*
G03*
X166624006Y-64276044I17J-6814918D01*
G01*
X171442883Y-62280000D02*
X197860000Y-62280000D01*
X171960138Y-59370000D02*
X195230000Y-59320000D01*
X129288680Y-99914314D02*
X168328876Y-60874118D01*
X171960138Y-59370033D02*
G75*
G03*
X168328876Y-60874118I-38J-5135367D01*
G01*
X129288663Y-99914297D02*
G75*
G03*
X128410000Y-102035635I2121337J-2121303D01*
G01*
X128410000Y-111130000D02*
X128410000Y-102035635D01*
X130238670Y-99529989D02*
G75*
G03*
X129360000Y-101651320I2121330J-2121311D01*
G01*
X131428678Y-98905682D02*
G75*
G03*
X130550000Y-101027005I2121322J-2121318D01*
G01*
X170757632Y-61475935D02*
G75*
G03*
X167508548Y-62825818I9868J-4608865D01*
G01*
X171201865Y-60389987D02*
G75*
G03*
X168089492Y-61679187I35J-4401613D01*
G01*
X171201865Y-60390000D02*
X195820000Y-60390000D01*
X130238680Y-99529999D02*
X168089492Y-61679187D01*
X129360000Y-110270000D02*
X129360000Y-101651320D01*
X170757632Y-61475921D02*
X196850000Y-61420000D01*
X131428680Y-98905684D02*
X167508547Y-62825817D01*
X130550000Y-109250000D02*
X130550000Y-101027005D01*
X131440000Y-107620000D02*
X285990000Y-107370000D01*
X291640000Y-110160000D02*
X293700000Y-108100000D01*
X129360000Y-110270000D02*
X291640000Y-110160000D01*
X293620000Y-111080000D02*
X296050000Y-110370000D01*
X128410000Y-111130000D02*
X293620000Y-111080000D01*
X243070000Y-108210000D02*
X284070000Y-108210000D01*
X242030000Y-109250000D02*
X243070000Y-108210000D01*
X130550000Y-109250000D02*
X242030000Y-109250000D01*
X284070000Y-108210000D02*
X284560000Y-108700000D01*
X133980000Y-97910000D02*
X178095320Y-97910000D01*
X178095320Y-97909999D02*
G75*
G03*
X191694574Y-92277005I-20J19232299D01*
G01*
X191694574Y-92277005D02*
X214612022Y-69359557D01*
X214612045Y-69359580D02*
G75*
G03*
X214981861Y-68471183I-892945J892880D01*
G01*
X214981862Y-68471183D02*
X215030000Y-55020000D01*
X229690050Y-53410000D02*
X212990000Y-53410000D01*
X275370050Y-99090000D02*
X229690050Y-53410000D01*
X285410000Y-99090000D02*
X275370050Y-99090000D01*
X212358184Y-29884286D02*
X214779563Y-32305665D01*
X198517974Y-28477254D02*
X208961308Y-28477254D01*
D17*
X212096653Y-30505933D02*
X215355460Y-33764740D01*
X211726215Y-52217254D02*
X211077974Y-52217254D01*
X216557974Y-36667866D02*
X216557974Y-48164613D01*
X198617974Y-29577254D02*
X205400760Y-29577254D01*
X206107867Y-29870147D02*
X206496474Y-30258754D01*
X215679295Y-50285933D02*
X215177573Y-50787655D01*
X206496474Y-30847254D02*
X206496474Y-30258754D01*
X207542188Y-29627254D02*
X209975333Y-29627254D01*
X206496474Y-30258754D02*
X206835081Y-29920147D01*
D16*
X212358188Y-29884282D02*
G75*
G03*
X208961308Y-28477254I-3396888J-3396918D01*
G01*
D17*
X216557988Y-36667866D02*
G75*
G03*
X215355460Y-33764740I-4105688J-34D01*
G01*
X212096646Y-30505940D02*
G75*
G03*
X209975333Y-29627254I-2121346J-2121360D01*
G01*
X211726215Y-52217265D02*
G75*
G03*
X215177572Y-50787654I-15J4880965D01*
G01*
X215679283Y-50285921D02*
G75*
G03*
X216557974Y-48164613I-2121283J2121321D01*
G01*
X206107896Y-29870118D02*
G75*
G03*
X205400760Y-29577254I-707096J-707182D01*
G01*
X207542188Y-29627259D02*
G75*
G03*
X206835081Y-29920147I12J-1000041D01*
G01*
D18*
X204450724Y-60939272D02*
X207925813Y-64414361D01*
X201141544Y-44930092D02*
X204323724Y-48112272D01*
X208632920Y-64707254D02*
X209930713Y-64707254D01*
X207925813Y-64414361D02*
G75*
G03*
X208632920Y-64707254I707087J707061D01*
G01*
X200138010Y-42507254D02*
G75*
G03*
X201141544Y-44930092I3426390J-46D01*
G01*
D19*
X204097974Y-53457254D02*
X204097974Y-56007254D01*
X202822974Y-56007254D02*
X203122974Y-55707254D01*
X203122974Y-55707254D02*
X205072974Y-55707254D01*
X205372974Y-56007254D02*
X205372974Y-53457254D01*
X202822974Y-56007254D02*
X202822974Y-53457254D01*
X205372974Y-53457254D02*
X202822974Y-53457254D01*
X205072974Y-55707254D02*
X205372974Y-56007254D01*
X205372974Y-54732254D02*
X202822974Y-54732254D01*
D20*
X203462974Y-50811540D02*
X203462974Y-48604504D01*
X204704724Y-56831754D02*
X204704724Y-59465040D01*
X204997617Y-60172147D02*
X206360849Y-61535379D01*
X204831724Y-52594504D02*
X203755867Y-51518647D01*
X207067956Y-61828272D02*
X207371724Y-61828272D01*
X206360877Y-61535351D02*
G75*
G03*
X207067956Y-61828272I707123J707051D01*
G01*
X204704689Y-59465040D02*
G75*
G03*
X204997617Y-60172147I1000011J40D01*
G01*
X203462954Y-50811540D02*
G75*
G03*
X203755868Y-51518646I1000046J40D01*
G01*
D16*
X202187974Y-34547254D02*
X206037974Y-34547254D01*
X213858474Y-65927254D02*
X213858474Y-69257754D01*
X213858474Y-69257754D02*
X213861885Y-69261165D01*
D18*
X199891474Y-30947254D02*
X198417974Y-30947254D01*
X197417974Y-29947254D02*
X197417974Y-27557254D01*
X198417974Y-26557254D02*
X199606474Y-26557254D01*
X197418046Y-29947254D02*
G75*
G03*
X198417974Y-30947254I999954J-46D01*
G01*
X198417974Y-26557274D02*
G75*
G03*
X197417974Y-27557254I26J-1000026D01*
G01*
D16*
X210267974Y-33921684D02*
X210267974Y-33337754D01*
X206127974Y-35647254D02*
X208542404Y-35647254D01*
X208542404Y-35647274D02*
G75*
G03*
X210267974Y-33921684I-4J1725574D01*
G01*
X203696474Y-32404796D02*
X203696474Y-31547254D01*
X204445974Y-33847254D02*
X204186469Y-33587749D01*
X203696471Y-32404796D02*
G75*
G03*
X204186470Y-33587748I1672929J-4D01*
G01*
G04 #@! TA.AperFunction,Conductor*
G36*
X199139427Y-25254631D02*
G01*
X199185545Y-25300742D01*
X199202433Y-25363733D01*
X199185566Y-25426730D01*
X199148230Y-25464083D01*
X199149722Y-25466136D01*
X199000565Y-25574504D01*
X199000557Y-25574510D01*
X198995221Y-25578388D01*
X198990804Y-25583293D01*
X198990799Y-25583298D01*
X198936662Y-25643424D01*
X198867434Y-25720310D01*
X198864135Y-25726023D01*
X198864132Y-25726028D01*
X198858516Y-25735756D01*
X198812397Y-25781874D01*
X198749398Y-25798754D01*
X198497691Y-25798754D01*
X198497683Y-25798753D01*
X198497676Y-25798752D01*
X198497654Y-25798752D01*
X198417954Y-25798754D01*
X198373794Y-25798754D01*
X198373672Y-25798768D01*
X198373433Y-25798775D01*
X198296693Y-25798776D01*
X198296680Y-25798776D01*
X198292188Y-25798777D01*
X198287733Y-25799417D01*
X198287727Y-25799418D01*
X198047673Y-25833937D01*
X198047658Y-25833940D01*
X198043216Y-25834579D01*
X198038910Y-25835843D01*
X198038898Y-25835846D01*
X197806191Y-25904178D01*
X197806181Y-25904181D01*
X197801872Y-25905447D01*
X197797777Y-25907317D01*
X197797772Y-25907319D01*
X197577168Y-26008067D01*
X197577157Y-26008072D01*
X197573071Y-26009939D01*
X197569291Y-26012367D01*
X197569284Y-26012372D01*
X197365249Y-26143497D01*
X197365238Y-26143504D01*
X197361468Y-26145928D01*
X197358072Y-26148869D01*
X197358070Y-26148872D01*
X197174763Y-26307705D01*
X197174755Y-26307712D01*
X197171370Y-26310646D01*
X197168435Y-26314032D01*
X197168429Y-26314039D01*
X197009599Y-26497333D01*
X197009590Y-26497344D01*
X197006649Y-26500739D01*
X197004222Y-26504515D01*
X197004214Y-26504526D01*
X196873084Y-26708560D01*
X196873076Y-26708573D01*
X196870656Y-26712340D01*
X196868793Y-26716417D01*
X196868788Y-26716428D01*
X196768026Y-26937050D01*
X196768023Y-26937056D01*
X196766159Y-26941139D01*
X196764894Y-26945446D01*
X196764892Y-26945452D01*
X196696553Y-27178164D01*
X196696550Y-27178173D01*
X196695286Y-27182481D01*
X196694647Y-27186917D01*
X196694645Y-27186931D01*
X196660119Y-27426997D01*
X196660118Y-27427008D01*
X196659479Y-27431453D01*
X196659478Y-27435945D01*
X196659478Y-27435956D01*
X196659477Y-27459411D01*
X196659477Y-27468583D01*
X196659474Y-27468598D01*
X196659474Y-27557219D01*
X196659470Y-27636941D01*
X196659473Y-27636955D01*
X196659474Y-27636973D01*
X196659474Y-29991434D01*
X196659518Y-29991823D01*
X196659542Y-29992634D01*
X196659540Y-30068488D01*
X196659540Y-30072988D01*
X196660179Y-30077439D01*
X196660180Y-30077442D01*
X196694685Y-30317506D01*
X196694687Y-30317516D01*
X196695327Y-30321967D01*
X196696595Y-30326286D01*
X196745450Y-30492699D01*
X196766183Y-30563318D01*
X196768048Y-30567403D01*
X196768051Y-30567410D01*
X196868801Y-30788046D01*
X196868804Y-30788052D01*
X196870666Y-30792129D01*
X196873089Y-30795901D01*
X196873091Y-30795903D01*
X196974612Y-30953887D01*
X197006649Y-31003741D01*
X197009591Y-31007137D01*
X197009593Y-31007139D01*
X197168421Y-31190450D01*
X197168425Y-31190454D01*
X197171364Y-31193846D01*
X197361458Y-31358575D01*
X197573060Y-31494573D01*
X197801863Y-31599073D01*
X198043209Y-31669946D01*
X198292186Y-31705751D01*
X198329300Y-31705751D01*
X198329312Y-31705752D01*
X198329318Y-31705754D01*
X198329336Y-31705754D01*
X198417954Y-31705754D01*
X198497676Y-31705756D01*
X198497684Y-31705754D01*
X198497691Y-31705754D01*
X199034398Y-31705754D01*
X199097397Y-31722634D01*
X199143516Y-31768752D01*
X199152434Y-31784198D01*
X199280221Y-31926120D01*
X199434722Y-32038372D01*
X199609186Y-32116048D01*
X199672422Y-32129489D01*
X199719392Y-32150156D01*
X199754228Y-32187840D01*
X199771147Y-32236289D01*
X199784708Y-32339301D01*
X199784709Y-32339307D01*
X199785787Y-32347490D01*
X199788946Y-32355118D01*
X199788947Y-32355119D01*
X199840615Y-32479857D01*
X199840616Y-32479859D01*
X199843776Y-32487487D01*
X199848802Y-32494037D01*
X199848804Y-32494040D01*
X199915230Y-32580607D01*
X199936023Y-32607705D01*
X200056241Y-32699952D01*
X200196238Y-32757941D01*
X200308754Y-32772754D01*
X200380072Y-32772754D01*
X200384194Y-32772754D01*
X200496710Y-32757941D01*
X200636707Y-32699952D01*
X200756925Y-32607705D01*
X200849172Y-32487487D01*
X200879662Y-32413877D01*
X200916778Y-32364175D01*
X200973115Y-32338206D01*
X201035016Y-32342267D01*
X201044105Y-32345221D01*
X201202465Y-32378881D01*
X201215525Y-32380254D01*
X201377423Y-32380254D01*
X201390482Y-32378881D01*
X201548844Y-32345220D01*
X201561337Y-32341161D01*
X201664844Y-32295075D01*
X201674013Y-32287944D01*
X201668007Y-32277997D01*
X201191502Y-31801492D01*
X201157926Y-31741169D01*
X201161178Y-31672208D01*
X201200282Y-31615312D01*
X201263497Y-31587563D01*
X201331844Y-31597289D01*
X201437490Y-31644326D01*
X201608870Y-31680754D01*
X201615473Y-31680754D01*
X201736994Y-31680754D01*
X201785212Y-31690345D01*
X201826089Y-31717659D01*
X202027499Y-31919069D01*
X202038840Y-31926121D01*
X202043186Y-31926550D01*
X202090139Y-31920629D01*
X202145276Y-31940358D01*
X202185539Y-31982879D01*
X202218444Y-32039872D01*
X202222860Y-32044777D01*
X202222862Y-32044779D01*
X202287033Y-32116048D01*
X202335682Y-32170077D01*
X202477428Y-32273062D01*
X202637490Y-32344326D01*
X202808870Y-32380754D01*
X202815473Y-32380754D01*
X202961971Y-32380754D01*
X203024971Y-32397635D01*
X203071090Y-32443754D01*
X203087971Y-32506754D01*
X203087971Y-32532918D01*
X203088365Y-32536417D01*
X203088366Y-32536430D01*
X203116264Y-32784040D01*
X203116266Y-32784056D01*
X203116661Y-32787555D01*
X203117448Y-32791003D01*
X203144110Y-32907818D01*
X203173682Y-33037378D01*
X203174847Y-33040708D01*
X203174849Y-33040714D01*
X203251881Y-33260861D01*
X203258315Y-33279246D01*
X203259846Y-33282426D01*
X203259851Y-33282437D01*
X203367966Y-33506937D01*
X203367970Y-33506945D01*
X203369498Y-33510117D01*
X203371374Y-33513102D01*
X203371377Y-33513108D01*
X203503952Y-33724098D01*
X203505831Y-33727088D01*
X203511498Y-33734195D01*
X203538196Y-33798645D01*
X203526510Y-33867423D01*
X203480024Y-33919441D01*
X203412988Y-33938754D01*
X202772696Y-33938754D01*
X202731080Y-33931683D01*
X202696907Y-33912795D01*
X202695255Y-33911143D01*
X202689265Y-33907379D01*
X202546980Y-33817975D01*
X202546977Y-33817973D01*
X202540989Y-33814211D01*
X202534313Y-33811875D01*
X202534309Y-33811873D01*
X202375698Y-33756373D01*
X202375694Y-33756372D01*
X202369021Y-33754037D01*
X202187974Y-33733638D01*
X202180945Y-33734430D01*
X202013955Y-33753245D01*
X202013953Y-33753245D01*
X202006927Y-33754037D01*
X202000254Y-33756371D01*
X202000249Y-33756373D01*
X201841638Y-33811873D01*
X201841630Y-33811876D01*
X201834959Y-33814211D01*
X201828974Y-33817971D01*
X201828967Y-33817975D01*
X201686688Y-33907375D01*
X201686683Y-33907379D01*
X201680693Y-33911143D01*
X201675688Y-33916147D01*
X201675684Y-33916151D01*
X201556871Y-34034964D01*
X201556867Y-34034968D01*
X201551863Y-34039973D01*
X201548100Y-34045961D01*
X201548095Y-34045968D01*
X201458695Y-34188247D01*
X201458691Y-34188254D01*
X201454931Y-34194239D01*
X201452596Y-34200910D01*
X201452593Y-34200918D01*
X201397093Y-34359529D01*
X201397091Y-34359534D01*
X201394757Y-34366207D01*
X201374358Y-34547254D01*
X201375150Y-34554283D01*
X201389822Y-34684506D01*
X201394757Y-34728301D01*
X201397092Y-34734974D01*
X201397093Y-34734978D01*
X201452593Y-34893589D01*
X201452595Y-34893593D01*
X201454931Y-34900269D01*
X201458693Y-34906257D01*
X201458695Y-34906260D01*
X201541645Y-35038274D01*
X201551863Y-35054535D01*
X201680693Y-35183365D01*
X201834959Y-35280297D01*
X202006927Y-35340471D01*
X202187974Y-35360870D01*
X202369021Y-35340471D01*
X202540989Y-35280297D01*
X202695255Y-35183365D01*
X202696907Y-35181712D01*
X202731080Y-35162825D01*
X202772696Y-35155754D01*
X205265809Y-35155754D01*
X205323641Y-35169810D01*
X205368570Y-35208841D01*
X205390572Y-35264140D01*
X205384738Y-35323369D01*
X205337093Y-35459529D01*
X205337091Y-35459534D01*
X205334757Y-35466207D01*
X205333965Y-35473233D01*
X205333965Y-35473235D01*
X205330241Y-35506291D01*
X205314358Y-35647254D01*
X205334757Y-35828301D01*
X205337092Y-35834974D01*
X205337093Y-35834978D01*
X205392593Y-35993589D01*
X205392595Y-35993593D01*
X205394931Y-36000269D01*
X205398693Y-36006257D01*
X205398695Y-36006260D01*
X205468118Y-36116746D01*
X205491863Y-36154535D01*
X205620693Y-36283365D01*
X205626687Y-36287131D01*
X205626688Y-36287132D01*
X205700837Y-36333723D01*
X205774959Y-36380297D01*
X205946927Y-36440471D01*
X206127974Y-36460870D01*
X206309021Y-36440471D01*
X206480989Y-36380297D01*
X206635255Y-36283365D01*
X206636907Y-36281712D01*
X206671080Y-36262825D01*
X206712696Y-36255754D01*
X208468520Y-36255754D01*
X208542331Y-36255754D01*
X208542405Y-36255763D01*
X208542405Y-36255774D01*
X208683591Y-36255773D01*
X208963905Y-36221736D01*
X209238071Y-36154159D01*
X209502094Y-36054028D01*
X209752121Y-35922802D01*
X209984508Y-35762395D01*
X210195866Y-35575146D01*
X210383112Y-35363787D01*
X210543516Y-35131398D01*
X210674739Y-34881369D01*
X210774868Y-34617346D01*
X210842441Y-34343178D01*
X210876475Y-34062864D01*
X210876474Y-33922476D01*
X210883545Y-33880860D01*
X210902432Y-33846687D01*
X210904085Y-33845035D01*
X211001017Y-33690769D01*
X211061191Y-33518801D01*
X211081590Y-33337754D01*
X211061191Y-33156707D01*
X211001017Y-32984739D01*
X210904085Y-32830473D01*
X210775255Y-32701643D01*
X210769261Y-32697877D01*
X210769259Y-32697875D01*
X210626980Y-32608475D01*
X210626977Y-32608473D01*
X210620989Y-32604711D01*
X210614313Y-32602375D01*
X210614309Y-32602373D01*
X210455698Y-32546873D01*
X210455694Y-32546872D01*
X210449021Y-32544537D01*
X210267974Y-32524138D01*
X210260945Y-32524930D01*
X210093955Y-32543745D01*
X210093953Y-32543745D01*
X210086927Y-32544537D01*
X210080254Y-32546871D01*
X210080249Y-32546873D01*
X209921638Y-32602373D01*
X209921630Y-32602376D01*
X209914959Y-32604711D01*
X209908974Y-32608471D01*
X209908967Y-32608475D01*
X209766688Y-32697875D01*
X209766681Y-32697880D01*
X209760693Y-32701643D01*
X209755688Y-32706647D01*
X209755684Y-32706651D01*
X209636871Y-32825464D01*
X209636867Y-32825468D01*
X209631863Y-32830473D01*
X209628100Y-32836461D01*
X209628095Y-32836468D01*
X209538695Y-32978747D01*
X209538691Y-32978754D01*
X209534931Y-32984739D01*
X209532596Y-32991410D01*
X209532593Y-32991418D01*
X209477093Y-33150029D01*
X209477091Y-33150034D01*
X209474757Y-33156707D01*
X209473965Y-33163733D01*
X209473965Y-33163735D01*
X209468475Y-33212458D01*
X209454358Y-33337754D01*
X209474757Y-33518801D01*
X209477092Y-33525474D01*
X209477093Y-33525478D01*
X209532593Y-33684089D01*
X209532595Y-33684093D01*
X209534931Y-33690769D01*
X209538693Y-33696757D01*
X209538695Y-33696760D01*
X209559423Y-33729748D01*
X209631863Y-33845035D01*
X209632995Y-33846167D01*
X209653609Y-33885464D01*
X209658499Y-33932835D01*
X209643465Y-34104689D01*
X209639651Y-34126319D01*
X209594961Y-34293107D01*
X209587449Y-34313745D01*
X209514477Y-34470236D01*
X209503496Y-34489256D01*
X209404455Y-34630706D01*
X209390336Y-34647533D01*
X209268239Y-34769629D01*
X209251416Y-34783745D01*
X209109970Y-34882789D01*
X209090948Y-34893772D01*
X208934460Y-34966744D01*
X208913822Y-34974255D01*
X208747029Y-35018948D01*
X208725399Y-35022762D01*
X208548107Y-35038274D01*
X208537125Y-35038754D01*
X206900139Y-35038754D01*
X206842307Y-35024698D01*
X206797378Y-34985667D01*
X206775376Y-34930368D01*
X206781210Y-34871139D01*
X206781738Y-34869629D01*
X206831191Y-34728301D01*
X206851590Y-34547254D01*
X206831191Y-34366207D01*
X206771017Y-34194239D01*
X206751264Y-34162803D01*
X206677852Y-34045968D01*
X206677851Y-34045967D01*
X206674085Y-34039973D01*
X206545255Y-33911143D01*
X206539261Y-33907377D01*
X206539259Y-33907375D01*
X206396980Y-33817975D01*
X206396977Y-33817973D01*
X206390989Y-33814211D01*
X206384313Y-33811875D01*
X206384309Y-33811873D01*
X206225698Y-33756373D01*
X206225694Y-33756372D01*
X206219021Y-33754037D01*
X206037974Y-33733638D01*
X206030945Y-33734430D01*
X205863955Y-33753245D01*
X205863953Y-33753245D01*
X205856927Y-33754037D01*
X205850254Y-33756371D01*
X205850249Y-33756373D01*
X205691638Y-33811873D01*
X205691630Y-33811876D01*
X205684959Y-33814211D01*
X205678974Y-33817971D01*
X205678967Y-33817975D01*
X205536682Y-33907379D01*
X205536676Y-33907383D01*
X205530693Y-33911143D01*
X205529040Y-33912795D01*
X205494868Y-33931683D01*
X205453252Y-33938754D01*
X205382500Y-33938754D01*
X205323624Y-33924152D01*
X205278394Y-33883732D01*
X205257292Y-33826861D01*
X205255867Y-33814211D01*
X205239191Y-33666207D01*
X205179017Y-33494239D01*
X205082085Y-33339973D01*
X204953255Y-33211143D01*
X204947261Y-33207377D01*
X204947259Y-33207375D01*
X204804980Y-33117975D01*
X204804977Y-33117973D01*
X204798989Y-33114211D01*
X204792313Y-33111875D01*
X204792309Y-33111873D01*
X204633700Y-33056374D01*
X204633699Y-33056373D01*
X204627021Y-33054037D01*
X204617208Y-33052931D01*
X204576136Y-33048303D01*
X204522611Y-33029404D01*
X204482812Y-32988930D01*
X204433106Y-32907818D01*
X204426166Y-32896492D01*
X204417197Y-32878891D01*
X204360861Y-32742885D01*
X204354754Y-32724089D01*
X204320391Y-32580955D01*
X204317298Y-32561427D01*
X204314776Y-32529382D01*
X204313773Y-32516639D01*
X204327118Y-32449552D01*
X204373550Y-32399321D01*
X204439385Y-32380754D01*
X204577475Y-32380754D01*
X204584078Y-32380754D01*
X204755458Y-32344326D01*
X204845224Y-32304358D01*
X204896474Y-32293465D01*
X204947723Y-32304358D01*
X205037490Y-32344326D01*
X205208870Y-32380754D01*
X205377475Y-32380754D01*
X205384078Y-32380754D01*
X205555458Y-32344326D01*
X205715520Y-32273062D01*
X205857266Y-32170077D01*
X205974504Y-32039872D01*
X206007408Y-31982879D01*
X206047670Y-31940358D01*
X206102809Y-31920629D01*
X206149760Y-31926549D01*
X206154107Y-31926121D01*
X206165445Y-31919071D01*
X206366858Y-31717659D01*
X206407735Y-31690345D01*
X206455953Y-31680754D01*
X206577475Y-31680754D01*
X206584078Y-31680754D01*
X206755458Y-31644326D01*
X206861099Y-31597291D01*
X206929446Y-31587564D01*
X206992662Y-31615313D01*
X207031766Y-31672209D01*
X207035018Y-31741170D01*
X207001443Y-31801493D01*
X206524938Y-32277998D01*
X206518933Y-32287943D01*
X206528102Y-32295075D01*
X206631610Y-32341161D01*
X206644103Y-32345220D01*
X206802465Y-32378881D01*
X206815525Y-32380254D01*
X206977423Y-32380254D01*
X206990486Y-32378881D01*
X207033474Y-32369743D01*
X207091219Y-32371002D01*
X207142336Y-32397895D01*
X207176082Y-32444771D01*
X207190615Y-32479857D01*
X207193776Y-32487487D01*
X207198801Y-32494036D01*
X207198802Y-32494037D01*
X207236944Y-32543745D01*
X207286023Y-32607705D01*
X207406241Y-32699952D01*
X207546238Y-32757941D01*
X207658754Y-32772754D01*
X207730072Y-32772754D01*
X207734194Y-32772754D01*
X207846710Y-32757941D01*
X207986707Y-32699952D01*
X208106925Y-32607705D01*
X208199172Y-32487487D01*
X208257161Y-32347490D01*
X208271801Y-32236286D01*
X208288719Y-32187840D01*
X208323554Y-32150156D01*
X208370523Y-32129489D01*
X208433762Y-32116048D01*
X208608226Y-32038372D01*
X208762727Y-31926120D01*
X208890514Y-31784198D01*
X208986001Y-31618810D01*
X209045016Y-31437182D01*
X209059974Y-31294864D01*
X209059974Y-30599644D01*
X209045016Y-30457326D01*
X209034737Y-30425690D01*
X209030121Y-30367043D01*
X209052634Y-30312693D01*
X209097367Y-30274487D01*
X209154570Y-30260754D01*
X209971785Y-30260754D01*
X209978851Y-30260952D01*
X210233223Y-30275240D01*
X210247263Y-30276822D01*
X210299846Y-30285756D01*
X210494963Y-30318909D01*
X210508714Y-30322048D01*
X210668594Y-30368110D01*
X210750124Y-30391599D01*
X210763463Y-30396265D01*
X210995585Y-30492415D01*
X211008302Y-30498540D01*
X211022473Y-30506372D01*
X211228183Y-30620064D01*
X211240147Y-30627581D01*
X211445045Y-30772964D01*
X211456092Y-30781774D01*
X211646194Y-30951659D01*
X211651328Y-30956513D01*
X211686473Y-30991657D01*
X214905323Y-34210508D01*
X214909588Y-34214987D01*
X215132178Y-34460578D01*
X215140022Y-34470136D01*
X215335625Y-34733875D01*
X215342495Y-34744156D01*
X215511312Y-35025809D01*
X215517140Y-35036713D01*
X215657534Y-35333548D01*
X215662261Y-35344960D01*
X215715013Y-35492390D01*
X215772885Y-35654127D01*
X215776475Y-35665960D01*
X215856263Y-35984487D01*
X215858675Y-35996614D01*
X215906857Y-36321418D01*
X215908069Y-36333723D01*
X215924322Y-36664492D01*
X215924474Y-36670676D01*
X215924474Y-48161070D01*
X215924276Y-48168136D01*
X215909989Y-48422508D01*
X215908407Y-48436548D01*
X215866323Y-48684231D01*
X215863178Y-48698008D01*
X215793628Y-48939412D01*
X215788962Y-48952748D01*
X215692822Y-49184847D01*
X215686691Y-49197577D01*
X215565162Y-49417464D01*
X215557644Y-49429428D01*
X215412269Y-49634313D01*
X215403459Y-49645361D01*
X215233487Y-49835556D01*
X215228632Y-49840690D01*
X215176957Y-49892364D01*
X215176955Y-49892368D01*
X215176953Y-49892370D01*
X214731556Y-50337765D01*
X214727586Y-50341566D01*
X214460482Y-50586324D01*
X214452061Y-50593389D01*
X214166821Y-50812262D01*
X214157817Y-50818567D01*
X213854583Y-51011750D01*
X213845064Y-51017246D01*
X213526148Y-51183264D01*
X213516185Y-51187910D01*
X213184007Y-51325503D01*
X213173679Y-51329262D01*
X212830785Y-51437378D01*
X212820167Y-51440223D01*
X212469150Y-51518042D01*
X212458325Y-51519951D01*
X212101857Y-51566883D01*
X212090906Y-51567841D01*
X211729213Y-51583634D01*
X211723717Y-51583754D01*
X211625710Y-51583754D01*
X211558674Y-51564441D01*
X211436980Y-51487975D01*
X211436977Y-51487973D01*
X211430989Y-51484211D01*
X211424313Y-51481875D01*
X211424309Y-51481873D01*
X211265698Y-51426373D01*
X211265694Y-51426372D01*
X211259021Y-51424037D01*
X211077974Y-51403638D01*
X211070945Y-51404430D01*
X210903955Y-51423245D01*
X210903953Y-51423245D01*
X210896927Y-51424037D01*
X210890254Y-51426371D01*
X210890249Y-51426373D01*
X210731638Y-51481873D01*
X210731630Y-51481876D01*
X210724959Y-51484211D01*
X210718974Y-51487971D01*
X210718967Y-51487975D01*
X210576688Y-51577375D01*
X210576681Y-51577380D01*
X210570693Y-51581143D01*
X210565688Y-51586147D01*
X210565684Y-51586151D01*
X210446871Y-51704964D01*
X210446867Y-51704968D01*
X210441863Y-51709973D01*
X210438100Y-51715961D01*
X210438095Y-51715968D01*
X210348695Y-51858247D01*
X210348691Y-51858254D01*
X210344931Y-51864239D01*
X210342596Y-51870910D01*
X210342593Y-51870918D01*
X210287093Y-52029529D01*
X210287091Y-52029534D01*
X210284757Y-52036207D01*
X210264358Y-52217254D01*
X210284757Y-52398301D01*
X210287092Y-52404974D01*
X210287093Y-52404978D01*
X210342593Y-52563589D01*
X210342595Y-52563593D01*
X210344931Y-52570269D01*
X210348693Y-52576257D01*
X210348695Y-52576260D01*
X210420405Y-52690386D01*
X210441863Y-52724535D01*
X210570693Y-52853365D01*
X210576687Y-52857131D01*
X210576688Y-52857132D01*
X210662711Y-52911184D01*
X210724959Y-52950297D01*
X210896927Y-53010471D01*
X211077974Y-53030870D01*
X211259021Y-53010471D01*
X211430989Y-52950297D01*
X211558673Y-52870067D01*
X211625710Y-52850754D01*
X211649296Y-52850754D01*
X211726176Y-52850754D01*
X211726217Y-52850759D01*
X211726217Y-52850765D01*
X211940412Y-52850765D01*
X211942881Y-52850765D01*
X211973488Y-52848356D01*
X212040356Y-52843093D01*
X212106705Y-52856062D01*
X212156800Y-52901460D01*
X212176219Y-52966216D01*
X212160740Y-53026372D01*
X212161461Y-53026693D01*
X212159559Y-53030964D01*
X212159373Y-53031688D01*
X212158778Y-53032718D01*
X212158774Y-53032724D01*
X212155473Y-53038444D01*
X212153434Y-53044718D01*
X212153430Y-53044728D01*
X212098497Y-53213794D01*
X212098495Y-53213801D01*
X212096458Y-53220072D01*
X212095768Y-53226633D01*
X212095768Y-53226635D01*
X212080894Y-53368159D01*
X212076496Y-53410000D01*
X212096458Y-53599928D01*
X212098495Y-53606200D01*
X212098497Y-53606205D01*
X212153430Y-53775271D01*
X212153433Y-53775278D01*
X212155473Y-53781556D01*
X212250960Y-53946944D01*
X212378747Y-54088866D01*
X212384089Y-54092747D01*
X212384091Y-54092749D01*
X212409900Y-54111500D01*
X212533248Y-54201118D01*
X212707712Y-54278794D01*
X212894513Y-54318500D01*
X213078884Y-54318500D01*
X213085487Y-54318500D01*
X213272288Y-54278794D01*
X213446752Y-54201118D01*
X213601253Y-54088866D01*
X213627073Y-54060189D01*
X213669461Y-54029393D01*
X213720710Y-54018500D01*
X214475026Y-54018500D01*
X214535727Y-54034085D01*
X214581411Y-54076986D01*
X214600777Y-54136588D01*
X214589034Y-54198148D01*
X214549087Y-54246436D01*
X214424091Y-54337250D01*
X214424083Y-54337256D01*
X214418747Y-54341134D01*
X214414330Y-54346039D01*
X214414325Y-54346044D01*
X214295379Y-54478148D01*
X214290960Y-54483056D01*
X214287661Y-54488769D01*
X214287658Y-54488774D01*
X214247487Y-54558353D01*
X214195473Y-54648444D01*
X214193434Y-54654718D01*
X214193430Y-54654728D01*
X214138497Y-54823794D01*
X214138495Y-54823801D01*
X214136458Y-54830072D01*
X214135768Y-54836633D01*
X214135768Y-54836635D01*
X214127020Y-54919871D01*
X214116496Y-55020000D01*
X214136458Y-55209928D01*
X214138495Y-55216200D01*
X214138497Y-55216205D01*
X214193430Y-55385271D01*
X214193433Y-55385278D01*
X214195473Y-55391556D01*
X214290960Y-55556944D01*
X214370995Y-55645832D01*
X214386528Y-55663083D01*
X214410604Y-55702449D01*
X214418891Y-55747844D01*
X214385497Y-65078812D01*
X214369613Y-65139605D01*
X214326344Y-65185167D01*
X214266453Y-65204169D01*
X214211815Y-65193276D01*
X214211489Y-65194211D01*
X214204849Y-65191887D01*
X214204845Y-65191886D01*
X214142338Y-65170014D01*
X214046198Y-65136373D01*
X214046194Y-65136372D01*
X214039521Y-65134037D01*
X213858474Y-65113638D01*
X213851445Y-65114430D01*
X213684455Y-65133245D01*
X213684453Y-65133245D01*
X213677427Y-65134037D01*
X213670754Y-65136371D01*
X213670749Y-65136373D01*
X213512138Y-65191873D01*
X213512130Y-65191876D01*
X213505459Y-65194211D01*
X213499474Y-65197971D01*
X213499467Y-65197975D01*
X213357188Y-65287375D01*
X213357181Y-65287380D01*
X213351193Y-65291143D01*
X213346188Y-65296147D01*
X213346184Y-65296151D01*
X213227371Y-65414964D01*
X213227367Y-65414968D01*
X213222363Y-65419973D01*
X213218600Y-65425961D01*
X213218595Y-65425968D01*
X213129195Y-65568247D01*
X213129191Y-65568254D01*
X213125431Y-65574239D01*
X213123096Y-65580910D01*
X213123093Y-65580918D01*
X213067593Y-65739529D01*
X213067591Y-65739534D01*
X213065257Y-65746207D01*
X213044858Y-65927254D01*
X213065257Y-66108301D01*
X213067592Y-66114974D01*
X213067593Y-66114978D01*
X213123093Y-66273589D01*
X213123095Y-66273593D01*
X213125431Y-66280269D01*
X213222363Y-66434535D01*
X213224015Y-66436187D01*
X213242903Y-66470360D01*
X213249974Y-66511976D01*
X213249974Y-68031334D01*
X213234530Y-68091778D01*
X213191983Y-68137404D01*
X213132763Y-68157027D01*
X213071389Y-68145837D01*
X213022909Y-68106578D01*
X212930142Y-67981971D01*
X212796588Y-67869905D01*
X212640789Y-67791660D01*
X212607850Y-67783853D01*
X212478283Y-67753145D01*
X212478276Y-67753144D01*
X212471145Y-67751454D01*
X212340538Y-67751454D01*
X212336910Y-67751877D01*
X212336893Y-67751879D01*
X212218094Y-67765765D01*
X212218088Y-67765766D01*
X212210810Y-67766617D01*
X212203923Y-67769123D01*
X212203917Y-67769125D01*
X212053877Y-67823735D01*
X212053869Y-67823738D01*
X212046981Y-67826246D01*
X212040849Y-67830278D01*
X212040847Y-67830280D01*
X211907455Y-67918013D01*
X211907449Y-67918017D01*
X211901320Y-67922049D01*
X211896286Y-67927384D01*
X211896282Y-67927388D01*
X211786716Y-68043520D01*
X211786712Y-68043525D01*
X211781678Y-68048861D01*
X211778006Y-68055220D01*
X211778006Y-68055221D01*
X211735665Y-68128559D01*
X211694507Y-68199847D01*
X211692402Y-68206876D01*
X211692401Y-68206880D01*
X211646609Y-68359835D01*
X211646607Y-68359842D01*
X211644505Y-68366866D01*
X211634367Y-68540914D01*
X211635640Y-68548138D01*
X211635641Y-68548140D01*
X211643980Y-68595433D01*
X211664642Y-68712608D01*
X211667546Y-68719342D01*
X211667548Y-68719346D01*
X211697002Y-68787627D01*
X211733695Y-68872692D01*
X211738077Y-68878578D01*
X211738080Y-68878583D01*
X211788008Y-68945647D01*
X211837806Y-69012537D01*
X211971360Y-69124603D01*
X212127159Y-69202848D01*
X212296803Y-69243054D01*
X212423741Y-69243054D01*
X212427410Y-69243054D01*
X212557138Y-69227891D01*
X212720967Y-69168262D01*
X212861236Y-69076004D01*
X212928508Y-69055292D01*
X212996395Y-69073899D01*
X213043708Y-69126018D01*
X213055680Y-69195383D01*
X213049061Y-69254134D01*
X213048269Y-69261165D01*
X213068668Y-69442212D01*
X213071003Y-69448885D01*
X213071004Y-69448889D01*
X213126504Y-69607500D01*
X213126506Y-69607504D01*
X213128842Y-69614180D01*
X213132604Y-69620168D01*
X213132606Y-69620171D01*
X213217389Y-69755101D01*
X213235910Y-69808029D01*
X213229631Y-69863752D01*
X213199797Y-69911232D01*
X191265281Y-91845748D01*
X191263316Y-91847671D01*
X190679329Y-92406715D01*
X190675276Y-92410429D01*
X190068495Y-92942560D01*
X190064284Y-92946093D01*
X189434892Y-93451233D01*
X189430531Y-93454580D01*
X188779678Y-93931804D01*
X188775175Y-93934957D01*
X188104136Y-94383331D01*
X188099499Y-94386285D01*
X187409557Y-94804952D01*
X187404797Y-94807701D01*
X186697205Y-95195899D01*
X186692328Y-95198437D01*
X185968517Y-95555380D01*
X185963535Y-95557703D01*
X185224838Y-95882737D01*
X185219759Y-95884841D01*
X184467572Y-96177351D01*
X184462407Y-96179231D01*
X183920366Y-96363229D01*
X183698179Y-96438652D01*
X183692946Y-96440302D01*
X182918143Y-96666136D01*
X182912833Y-96667559D01*
X182128910Y-96859384D01*
X182123543Y-96860574D01*
X181332007Y-97018021D01*
X181326593Y-97018976D01*
X180528908Y-97141751D01*
X180523458Y-97142468D01*
X179721216Y-97230329D01*
X179715740Y-97230808D01*
X178910424Y-97283592D01*
X178904932Y-97283832D01*
X178096648Y-97301470D01*
X178093899Y-97301500D01*
X134763288Y-97301500D01*
X134706085Y-97287767D01*
X134661352Y-97249561D01*
X134638839Y-97195211D01*
X134643455Y-97136564D01*
X134674193Y-97086405D01*
X140821798Y-90938800D01*
X163219684Y-68540914D01*
X209602367Y-68540914D01*
X209603640Y-68548138D01*
X209603641Y-68548140D01*
X209611980Y-68595433D01*
X209632642Y-68712608D01*
X209635546Y-68719342D01*
X209635548Y-68719346D01*
X209665002Y-68787627D01*
X209701695Y-68872692D01*
X209706077Y-68878578D01*
X209706080Y-68878583D01*
X209756008Y-68945647D01*
X209805806Y-69012537D01*
X209939360Y-69124603D01*
X210095159Y-69202848D01*
X210264803Y-69243054D01*
X210391741Y-69243054D01*
X210395410Y-69243054D01*
X210525138Y-69227891D01*
X210688967Y-69168262D01*
X210834628Y-69072459D01*
X210954270Y-68945647D01*
X211041441Y-68794661D01*
X211091443Y-68627642D01*
X211101581Y-68453594D01*
X211071306Y-68281900D01*
X211002253Y-68121816D01*
X210990907Y-68106576D01*
X210947940Y-68048861D01*
X210898142Y-67981971D01*
X210764588Y-67869905D01*
X210608789Y-67791660D01*
X210575850Y-67783853D01*
X210446283Y-67753145D01*
X210446276Y-67753144D01*
X210439145Y-67751454D01*
X210308538Y-67751454D01*
X210304910Y-67751877D01*
X210304893Y-67751879D01*
X210186094Y-67765765D01*
X210186088Y-67765766D01*
X210178810Y-67766617D01*
X210171923Y-67769123D01*
X210171917Y-67769125D01*
X210021877Y-67823735D01*
X210021869Y-67823738D01*
X210014981Y-67826246D01*
X210008849Y-67830278D01*
X210008847Y-67830280D01*
X209875455Y-67918013D01*
X209875449Y-67918017D01*
X209869320Y-67922049D01*
X209864286Y-67927384D01*
X209864282Y-67927388D01*
X209754716Y-68043520D01*
X209754712Y-68043525D01*
X209749678Y-68048861D01*
X209746006Y-68055220D01*
X209746006Y-68055221D01*
X209703665Y-68128559D01*
X209662507Y-68199847D01*
X209660402Y-68206876D01*
X209660401Y-68206880D01*
X209614609Y-68359835D01*
X209614607Y-68359842D01*
X209612505Y-68366866D01*
X209602367Y-68540914D01*
X163219684Y-68540914D01*
X167052698Y-64707900D01*
X167055877Y-64704831D01*
X167375258Y-64407475D01*
X167382052Y-64401590D01*
X167720022Y-64129233D01*
X167727190Y-64123867D01*
X168083767Y-63876290D01*
X168091291Y-63871455D01*
X168464607Y-63649953D01*
X168472470Y-63645660D01*
X168860630Y-63451359D01*
X168868777Y-63447639D01*
X169269816Y-63281521D01*
X169278220Y-63278387D01*
X169690067Y-63141310D01*
X169698687Y-63138779D01*
X170119254Y-63031434D01*
X170128038Y-63029523D01*
X170555214Y-62952451D01*
X170564069Y-62951178D01*
X170995659Y-62904775D01*
X171004601Y-62904136D01*
X171440141Y-62888579D01*
X171444638Y-62888500D01*
X197161282Y-62888500D01*
X197212531Y-62899393D01*
X197254918Y-62930190D01*
X197294327Y-62973958D01*
X197294331Y-62973961D01*
X197298747Y-62978866D01*
X197453248Y-63091118D01*
X197627712Y-63168794D01*
X197814513Y-63208500D01*
X197998884Y-63208500D01*
X198005487Y-63208500D01*
X198192288Y-63168794D01*
X198366752Y-63091118D01*
X198521253Y-62978866D01*
X198649040Y-62836944D01*
X198744527Y-62671556D01*
X198803542Y-62489928D01*
X198823504Y-62300000D01*
X198803542Y-62110072D01*
X198744527Y-61928444D01*
X198649040Y-61763056D01*
X198521253Y-61621134D01*
X198515911Y-61617253D01*
X198515908Y-61617250D01*
X198438057Y-61560688D01*
X198366752Y-61508882D01*
X198192288Y-61431206D01*
X198185835Y-61429834D01*
X198185831Y-61429833D01*
X198011943Y-61392872D01*
X198011940Y-61392871D01*
X198005487Y-61391500D01*
X197873960Y-61391500D01*
X197814807Y-61376751D01*
X197769501Y-61335959D01*
X197748650Y-61278671D01*
X197747314Y-61265968D01*
X197743542Y-61230072D01*
X197700952Y-61098993D01*
X197686569Y-61054728D01*
X197686568Y-61054726D01*
X197684527Y-61048444D01*
X197589040Y-60883056D01*
X197461253Y-60741134D01*
X197455911Y-60737253D01*
X197455908Y-60737250D01*
X197378057Y-60680688D01*
X197306752Y-60628882D01*
X197132288Y-60551206D01*
X197125835Y-60549834D01*
X197125831Y-60549833D01*
X196951943Y-60512872D01*
X196951940Y-60512871D01*
X196945487Y-60511500D01*
X196877623Y-60511500D01*
X196818469Y-60496751D01*
X196773164Y-60455958D01*
X196752313Y-60398670D01*
X196742801Y-60308169D01*
X196733542Y-60220072D01*
X196674527Y-60038444D01*
X196579040Y-59873056D01*
X196451253Y-59731134D01*
X196445911Y-59727253D01*
X196445908Y-59727250D01*
X196368057Y-59670688D01*
X196296752Y-59618882D01*
X196253941Y-59599821D01*
X196203975Y-59577575D01*
X196161588Y-59546778D01*
X196135391Y-59501404D01*
X196129914Y-59449297D01*
X196136535Y-59386310D01*
X196143504Y-59320000D01*
X196123542Y-59130072D01*
X196064527Y-58948444D01*
X195969040Y-58783056D01*
X195841253Y-58641134D01*
X195835911Y-58637253D01*
X195835908Y-58637250D01*
X195758057Y-58580688D01*
X195686752Y-58528882D01*
X195512288Y-58451206D01*
X195505835Y-58449834D01*
X195505831Y-58449833D01*
X195331943Y-58412872D01*
X195331940Y-58412871D01*
X195325487Y-58411500D01*
X195134513Y-58411500D01*
X195128060Y-58412871D01*
X195128056Y-58412872D01*
X194954168Y-58449833D01*
X194954161Y-58449835D01*
X194947712Y-58451206D01*
X194941682Y-58453890D01*
X194941681Y-58453891D01*
X194779278Y-58526197D01*
X194779275Y-58526198D01*
X194773248Y-58528882D01*
X194767907Y-58532762D01*
X194767906Y-58532763D01*
X194624086Y-58637254D01*
X194624080Y-58637259D01*
X194618747Y-58641134D01*
X194614335Y-58646033D01*
X194614326Y-58646042D01*
X194591510Y-58671382D01*
X194549247Y-58702123D01*
X194498146Y-58713071D01*
X171944143Y-58761531D01*
X171736936Y-58761531D01*
X171736935Y-58761531D01*
X171734466Y-58761531D01*
X171732018Y-58761723D01*
X171732008Y-58761724D01*
X171286950Y-58796748D01*
X171286939Y-58796749D01*
X171284503Y-58796941D01*
X171282088Y-58797323D01*
X171282075Y-58797325D01*
X170841144Y-58867157D01*
X170841126Y-58867160D01*
X170838705Y-58867544D01*
X170836323Y-58868115D01*
X170836302Y-58868120D01*
X170402239Y-58972327D01*
X170402226Y-58972330D01*
X170399821Y-58972908D01*
X170397471Y-58973671D01*
X170397448Y-58973678D01*
X169972909Y-59111615D01*
X169972890Y-59111621D01*
X169970557Y-59112380D01*
X169968287Y-59113319D01*
X169968274Y-59113325D01*
X169555860Y-59284149D01*
X169555840Y-59284157D01*
X169553559Y-59285103D01*
X169551352Y-59286227D01*
X169551340Y-59286233D01*
X169153602Y-59488886D01*
X169153581Y-59488897D01*
X169151398Y-59490010D01*
X169149306Y-59491291D01*
X169149288Y-59491302D01*
X168768669Y-59724542D01*
X168768651Y-59724553D01*
X168766554Y-59725839D01*
X168764560Y-59727287D01*
X168764549Y-59727295D01*
X168403394Y-59989685D01*
X168403384Y-59989692D01*
X168401399Y-59991135D01*
X168399548Y-59992715D01*
X168399525Y-59992734D01*
X168060061Y-60282660D01*
X168060048Y-60282671D01*
X168058184Y-60284264D01*
X168056441Y-60286006D01*
X168056429Y-60286018D01*
X167926807Y-60415638D01*
X167926805Y-60415640D01*
X128858466Y-99483978D01*
X128858392Y-99484033D01*
X128858385Y-99484026D01*
X128858325Y-99484085D01*
X128858321Y-99484089D01*
X128735226Y-99607185D01*
X128735216Y-99607195D01*
X128733033Y-99609379D01*
X128731073Y-99611766D01*
X128731066Y-99611775D01*
X128510078Y-99881054D01*
X128510069Y-99881066D01*
X128508111Y-99883452D01*
X128506401Y-99886010D01*
X128506387Y-99886030D01*
X128312853Y-100175680D01*
X128312845Y-100175692D01*
X128311136Y-100178251D01*
X128309683Y-100180968D01*
X128309679Y-100180976D01*
X128145462Y-100488212D01*
X128145454Y-100488228D01*
X128144006Y-100490938D01*
X128142824Y-100493791D01*
X128142821Y-100493798D01*
X128009511Y-100815643D01*
X128009505Y-100815657D01*
X128008328Y-100818501D01*
X128007437Y-100821437D01*
X128007431Y-100821455D01*
X127906306Y-101154833D01*
X127905411Y-101157785D01*
X127904810Y-101160803D01*
X127904808Y-101160814D01*
X127836851Y-101502478D01*
X127836848Y-101502494D01*
X127836246Y-101505524D01*
X127835942Y-101508602D01*
X127835941Y-101508615D01*
X127801801Y-101855284D01*
X127801800Y-101855296D01*
X127801498Y-101858367D01*
X127801498Y-101861459D01*
X127801498Y-101861460D01*
X127801500Y-101995750D01*
X127801500Y-110399710D01*
X127793131Y-110444864D01*
X127769136Y-110484020D01*
X127675379Y-110588147D01*
X127675374Y-110588153D01*
X127670960Y-110593056D01*
X127667661Y-110598769D01*
X127667658Y-110598774D01*
X127588852Y-110735271D01*
X127575473Y-110758444D01*
X127573434Y-110764718D01*
X127573430Y-110764728D01*
X127518497Y-110933794D01*
X127518495Y-110933801D01*
X127516458Y-110940072D01*
X127515768Y-110946633D01*
X127515768Y-110946635D01*
X127505023Y-111048866D01*
X127496496Y-111130000D01*
X127516458Y-111319928D01*
X127518495Y-111326200D01*
X127518497Y-111326205D01*
X127573430Y-111495271D01*
X127573433Y-111495278D01*
X127575473Y-111501556D01*
X127670960Y-111666944D01*
X127798747Y-111808866D01*
X127953248Y-111921118D01*
X128127712Y-111998794D01*
X128314513Y-112038500D01*
X128498884Y-112038500D01*
X128505487Y-112038500D01*
X128692288Y-111998794D01*
X128866752Y-111921118D01*
X129021253Y-111808866D01*
X129047274Y-111779966D01*
X129089641Y-111749180D01*
X129140869Y-111738278D01*
X293580211Y-111688512D01*
X293593884Y-111689252D01*
X293633789Y-111693596D01*
X293705028Y-111682582D01*
X293707618Y-111682212D01*
X293764936Y-111674649D01*
X293770838Y-111673871D01*
X293770838Y-111673870D01*
X293779030Y-111672790D01*
X293816122Y-111657411D01*
X293829020Y-111652868D01*
X295516714Y-111159756D01*
X295560524Y-111154985D01*
X295603299Y-111165593D01*
X295767712Y-111238794D01*
X295954513Y-111278500D01*
X296138884Y-111278500D01*
X296145487Y-111278500D01*
X296332288Y-111238794D01*
X296506752Y-111161118D01*
X296661253Y-111048866D01*
X296789040Y-110906944D01*
X296884527Y-110741556D01*
X296943542Y-110559928D01*
X296963504Y-110370000D01*
X296943542Y-110180072D01*
X296884527Y-109998444D01*
X296789040Y-109833056D01*
X296661253Y-109691134D01*
X296655911Y-109687253D01*
X296655908Y-109687250D01*
X296514857Y-109584771D01*
X296506752Y-109578882D01*
X296332288Y-109501206D01*
X296325835Y-109499834D01*
X296325831Y-109499833D01*
X296151943Y-109462872D01*
X296151940Y-109462871D01*
X296145487Y-109461500D01*
X295954513Y-109461500D01*
X295948060Y-109462871D01*
X295948056Y-109462872D01*
X295774168Y-109499833D01*
X295774161Y-109499835D01*
X295767712Y-109501206D01*
X295761682Y-109503890D01*
X295761681Y-109503891D01*
X295599278Y-109576197D01*
X295599275Y-109576198D01*
X295593248Y-109578882D01*
X295587907Y-109582762D01*
X295587906Y-109582763D01*
X295444091Y-109687250D01*
X295444083Y-109687256D01*
X295438747Y-109691134D01*
X295434330Y-109696039D01*
X295434325Y-109696044D01*
X295315379Y-109828148D01*
X295310960Y-109833056D01*
X295307661Y-109838769D01*
X295307658Y-109838774D01*
X295253628Y-109932357D01*
X295222331Y-109968452D01*
X295179846Y-109990300D01*
X293550123Y-110466474D01*
X293514824Y-110471531D01*
X292492935Y-110471840D01*
X292435721Y-110458121D01*
X292390974Y-110419919D01*
X292368451Y-110365566D01*
X292373062Y-110306911D01*
X292403800Y-110256747D01*
X293615143Y-109045404D01*
X293656020Y-109018091D01*
X293704238Y-109008500D01*
X293788884Y-109008500D01*
X293795487Y-109008500D01*
X293982288Y-108968794D01*
X294156752Y-108891118D01*
X294311253Y-108778866D01*
X294439040Y-108636944D01*
X294534527Y-108471556D01*
X294593542Y-108289928D01*
X294613504Y-108100000D01*
X294593542Y-107910072D01*
X294540647Y-107747278D01*
X294536569Y-107734728D01*
X294536568Y-107734726D01*
X294534527Y-107728444D01*
X294439040Y-107563056D01*
X294311253Y-107421134D01*
X294305911Y-107417253D01*
X294305908Y-107417250D01*
X294228057Y-107360688D01*
X294156752Y-107308882D01*
X293982288Y-107231206D01*
X293975835Y-107229834D01*
X293975831Y-107229833D01*
X293801943Y-107192872D01*
X293801940Y-107192871D01*
X293795487Y-107191500D01*
X293604513Y-107191500D01*
X293598060Y-107192871D01*
X293598056Y-107192872D01*
X293424168Y-107229833D01*
X293424161Y-107229835D01*
X293417712Y-107231206D01*
X293411682Y-107233890D01*
X293411681Y-107233891D01*
X293249278Y-107306197D01*
X293249275Y-107306198D01*
X293243248Y-107308882D01*
X293237907Y-107312762D01*
X293237906Y-107312763D01*
X293094091Y-107417250D01*
X293094083Y-107417256D01*
X293088747Y-107421134D01*
X293084330Y-107426039D01*
X293084325Y-107426044D01*
X292965379Y-107558148D01*
X292960960Y-107563056D01*
X292957661Y-107568769D01*
X292957658Y-107568774D01*
X292868777Y-107722721D01*
X292865473Y-107728444D01*
X292863434Y-107734718D01*
X292863430Y-107734728D01*
X292808497Y-107903794D01*
X292808495Y-107903801D01*
X292806458Y-107910072D01*
X292805768Y-107916633D01*
X292805768Y-107916635D01*
X292787186Y-108093435D01*
X292786496Y-108100000D01*
X292786739Y-108102318D01*
X292777595Y-108148293D01*
X292750283Y-108189167D01*
X291688225Y-109251225D01*
X291424649Y-109514801D01*
X291383812Y-109542097D01*
X291335639Y-109551705D01*
X285313044Y-109555787D01*
X285256996Y-109542677D01*
X285212627Y-109506007D01*
X285189197Y-109453430D01*
X285191596Y-109395919D01*
X285219321Y-109345480D01*
X285299040Y-109256944D01*
X285394527Y-109091556D01*
X285453542Y-108909928D01*
X285473504Y-108720000D01*
X285453542Y-108530072D01*
X285394527Y-108348444D01*
X285391222Y-108342720D01*
X285388772Y-108337217D01*
X285378127Y-108278056D01*
X285396101Y-108220696D01*
X285438606Y-108178191D01*
X285495966Y-108160215D01*
X285555126Y-108170858D01*
X285707712Y-108238794D01*
X285894513Y-108278500D01*
X286078884Y-108278500D01*
X286085487Y-108278500D01*
X286272288Y-108238794D01*
X286446752Y-108161118D01*
X286601253Y-108048866D01*
X286729040Y-107906944D01*
X286824527Y-107741556D01*
X286883542Y-107559928D01*
X286903504Y-107370000D01*
X286883542Y-107180072D01*
X286824527Y-106998444D01*
X286729040Y-106833056D01*
X286601253Y-106691134D01*
X286595911Y-106687253D01*
X286595908Y-106687250D01*
X286518057Y-106630688D01*
X286446752Y-106578882D01*
X286272288Y-106501206D01*
X286265835Y-106499834D01*
X286265831Y-106499833D01*
X286091943Y-106462872D01*
X286091940Y-106462871D01*
X286085487Y-106461500D01*
X285894513Y-106461500D01*
X285888060Y-106462871D01*
X285888056Y-106462872D01*
X285714168Y-106499833D01*
X285714161Y-106499835D01*
X285707712Y-106501206D01*
X285701682Y-106503890D01*
X285701681Y-106503891D01*
X285539278Y-106576197D01*
X285539275Y-106576198D01*
X285533248Y-106578882D01*
X285527907Y-106582762D01*
X285527906Y-106582763D01*
X285384086Y-106687254D01*
X285384080Y-106687259D01*
X285378747Y-106691134D01*
X285374336Y-106696032D01*
X285374329Y-106696039D01*
X285351859Y-106720994D01*
X285309565Y-106751747D01*
X285258429Y-106762681D01*
X132174704Y-107010310D01*
X132111618Y-106993497D01*
X132065415Y-106947369D01*
X132048500Y-106884310D01*
X132048500Y-100706229D01*
X132048698Y-100699164D01*
X132060392Y-100490938D01*
X132063141Y-100441991D01*
X132064723Y-100427954D01*
X132107278Y-100177492D01*
X132110417Y-100163742D01*
X132180745Y-99919633D01*
X132185410Y-99906301D01*
X132208167Y-99851359D01*
X132282632Y-99671587D01*
X132288753Y-99658877D01*
X132411647Y-99436518D01*
X132419150Y-99424577D01*
X132566165Y-99217381D01*
X132574954Y-99206359D01*
X132746714Y-99014160D01*
X132751535Y-99009062D01*
X133181516Y-98579081D01*
X133240123Y-98545922D01*
X133307440Y-98547681D01*
X133358704Y-98580334D01*
X133359420Y-98579540D01*
X133364164Y-98583811D01*
X133364237Y-98583858D01*
X133364328Y-98583959D01*
X133364331Y-98583962D01*
X133368747Y-98588866D01*
X133523248Y-98701118D01*
X133697712Y-98778794D01*
X133884513Y-98818500D01*
X134068884Y-98818500D01*
X134075487Y-98818500D01*
X134262288Y-98778794D01*
X134436752Y-98701118D01*
X134591253Y-98588866D01*
X134617073Y-98560189D01*
X134659461Y-98529393D01*
X134710710Y-98518500D01*
X178135189Y-98518500D01*
X178135205Y-98518500D01*
X178135210Y-98518499D01*
X178135221Y-98518499D01*
X178526871Y-98518499D01*
X178528247Y-98518499D01*
X179393276Y-98480730D01*
X180255835Y-98405265D01*
X181114280Y-98292248D01*
X181966979Y-98141894D01*
X182812308Y-97954489D01*
X183648658Y-97730389D01*
X184474436Y-97470022D01*
X185288072Y-97173883D01*
X186088016Y-96842535D01*
X186872746Y-96476610D01*
X187640767Y-96076803D01*
X188390618Y-95643877D01*
X189120871Y-95178655D01*
X189830137Y-94682023D01*
X190517065Y-94154925D01*
X191180348Y-93598366D01*
X191818722Y-93013405D01*
X192124848Y-92707280D01*
X192177093Y-92655035D01*
X214990061Y-69842066D01*
X214990069Y-69842062D01*
X215042203Y-69789924D01*
X215042326Y-69789830D01*
X215042335Y-69789839D01*
X215128689Y-69703531D01*
X215277445Y-69509893D01*
X215399780Y-69298568D01*
X215493620Y-69073140D01*
X215557374Y-68837429D01*
X215589960Y-68595433D01*
X215590349Y-68475787D01*
X215635881Y-55752743D01*
X215644330Y-55707833D01*
X215668239Y-55668894D01*
X215769040Y-55556944D01*
X215864527Y-55391556D01*
X215923542Y-55209928D01*
X215943504Y-55020000D01*
X215923542Y-54830072D01*
X215864527Y-54648444D01*
X215769040Y-54483056D01*
X215641253Y-54341134D01*
X215635911Y-54337253D01*
X215635908Y-54337250D01*
X215510913Y-54246436D01*
X215470966Y-54198148D01*
X215459223Y-54136588D01*
X215478589Y-54076986D01*
X215524273Y-54034085D01*
X215584974Y-54018500D01*
X229385811Y-54018500D01*
X229434029Y-54028091D01*
X229474906Y-54055405D01*
X274905730Y-99486229D01*
X274916597Y-99498619D01*
X274936063Y-99523987D01*
X274967975Y-99548474D01*
X274967979Y-99548478D01*
X275063174Y-99621524D01*
X275211200Y-99682838D01*
X275370050Y-99703751D01*
X275401748Y-99699577D01*
X275418194Y-99698500D01*
X284679290Y-99698500D01*
X284730539Y-99709393D01*
X284772926Y-99740189D01*
X284798747Y-99768866D01*
X284953248Y-99881118D01*
X285127712Y-99958794D01*
X285314513Y-99998500D01*
X285498884Y-99998500D01*
X285505487Y-99998500D01*
X285692288Y-99958794D01*
X285866752Y-99881118D01*
X286021253Y-99768866D01*
X286149040Y-99626944D01*
X286244527Y-99461556D01*
X286303542Y-99279928D01*
X286323504Y-99090000D01*
X286303542Y-98900072D01*
X286244527Y-98718444D01*
X286149040Y-98553056D01*
X286021253Y-98411134D01*
X286015911Y-98407253D01*
X286015908Y-98407250D01*
X285938057Y-98350688D01*
X285866752Y-98298882D01*
X285692288Y-98221206D01*
X285685835Y-98219834D01*
X285685831Y-98219833D01*
X285511943Y-98182872D01*
X285511940Y-98182871D01*
X285505487Y-98181500D01*
X285314513Y-98181500D01*
X285308060Y-98182871D01*
X285308056Y-98182872D01*
X285134168Y-98219833D01*
X285134161Y-98219835D01*
X285127712Y-98221206D01*
X285121682Y-98223890D01*
X285121681Y-98223891D01*
X284959278Y-98296197D01*
X284959275Y-98296198D01*
X284953248Y-98298882D01*
X284947907Y-98302762D01*
X284947906Y-98302763D01*
X284804086Y-98407254D01*
X284804080Y-98407259D01*
X284798747Y-98411134D01*
X284794333Y-98416035D01*
X284794332Y-98416037D01*
X284772926Y-98439811D01*
X284730539Y-98470607D01*
X284679290Y-98481500D01*
X275674289Y-98481500D01*
X275626071Y-98471909D01*
X275585194Y-98444595D01*
X270487899Y-93347300D01*
X282379712Y-93347300D01*
X282379961Y-93351258D01*
X282398491Y-93645799D01*
X282398492Y-93645809D01*
X282398741Y-93649762D01*
X282399482Y-93653650D01*
X282399484Y-93653660D01*
X282454784Y-93943553D01*
X282454787Y-93943565D01*
X282455529Y-93947454D01*
X282456751Y-93951216D01*
X282456755Y-93951230D01*
X282523211Y-94155758D01*
X282549180Y-94235681D01*
X282678216Y-94509898D01*
X282744071Y-94613669D01*
X282838481Y-94762436D01*
X282838487Y-94762445D01*
X282840604Y-94765780D01*
X283033782Y-94999292D01*
X283036668Y-95002002D01*
X283245850Y-95198437D01*
X283254703Y-95206750D01*
X283499884Y-95384884D01*
X283765457Y-95530885D01*
X284047235Y-95642449D01*
X284340774Y-95717816D01*
X284641444Y-95755800D01*
X284940545Y-95755800D01*
X284944504Y-95755800D01*
X285245174Y-95717816D01*
X285538713Y-95642449D01*
X285820491Y-95530885D01*
X286086064Y-95384884D01*
X286331245Y-95206750D01*
X286552166Y-94999292D01*
X286745344Y-94765780D01*
X286907732Y-94509898D01*
X287036768Y-94235681D01*
X287130419Y-93947454D01*
X287187207Y-93649762D01*
X287206236Y-93347300D01*
X287187207Y-93044838D01*
X287130419Y-92747146D01*
X287036768Y-92458919D01*
X286907732Y-92184702D01*
X286745344Y-91928820D01*
X286552166Y-91695308D01*
X286331245Y-91487850D01*
X286328041Y-91485522D01*
X286089266Y-91312042D01*
X286089261Y-91312039D01*
X286086064Y-91309716D01*
X286082592Y-91307807D01*
X285823959Y-91165621D01*
X285823951Y-91165617D01*
X285820491Y-91163715D01*
X285801924Y-91156363D01*
X285542382Y-91053603D01*
X285542372Y-91053599D01*
X285538713Y-91052151D01*
X285513274Y-91045619D01*
X285249009Y-90977768D01*
X285248999Y-90977766D01*
X285245174Y-90976784D01*
X285241249Y-90976288D01*
X285241238Y-90976286D01*
X284948435Y-90939296D01*
X284948425Y-90939295D01*
X284944504Y-90938800D01*
X284641444Y-90938800D01*
X284637523Y-90939295D01*
X284637512Y-90939296D01*
X284344709Y-90976286D01*
X284344695Y-90976288D01*
X284340774Y-90976784D01*
X284336951Y-90977765D01*
X284336938Y-90977768D01*
X284051055Y-91051170D01*
X284051052Y-91051170D01*
X284047235Y-91052151D01*
X284043579Y-91053598D01*
X284043565Y-91053603D01*
X283769131Y-91162260D01*
X283769126Y-91162262D01*
X283765457Y-91163715D01*
X283762002Y-91165614D01*
X283761988Y-91165621D01*
X283503355Y-91307807D01*
X283503345Y-91307812D01*
X283499884Y-91309716D01*
X283496693Y-91312034D01*
X283496681Y-91312042D01*
X283257906Y-91485522D01*
X283257897Y-91485529D01*
X283254703Y-91487850D01*
X283251825Y-91490552D01*
X283251816Y-91490560D01*
X283036668Y-91692597D01*
X283036661Y-91692604D01*
X283033782Y-91695308D01*
X283031265Y-91698350D01*
X283031257Y-91698359D01*
X282843126Y-91925770D01*
X282843117Y-91925781D01*
X282840604Y-91928820D01*
X282838492Y-91932147D01*
X282838481Y-91932163D01*
X282680340Y-92181355D01*
X282678216Y-92184702D01*
X282676531Y-92188280D01*
X282676528Y-92188288D01*
X282550869Y-92455328D01*
X282550864Y-92455338D01*
X282549180Y-92458919D01*
X282547956Y-92462685D01*
X282547954Y-92462691D01*
X282456755Y-92743369D01*
X282456750Y-92743386D01*
X282455529Y-92747146D01*
X282454788Y-92751030D01*
X282454784Y-92751046D01*
X282399484Y-93040939D01*
X282399482Y-93040951D01*
X282398741Y-93044838D01*
X282398492Y-93048788D01*
X282398491Y-93048800D01*
X282379961Y-93343342D01*
X282379712Y-93347300D01*
X270487899Y-93347300D01*
X230154364Y-53013765D01*
X230143496Y-53001373D01*
X230129064Y-52982564D01*
X230129063Y-52982563D01*
X230124037Y-52976013D01*
X230117486Y-52970986D01*
X230117484Y-52970984D01*
X230092125Y-52951526D01*
X230092122Y-52951523D01*
X230003479Y-52883504D01*
X230003477Y-52883502D01*
X229996926Y-52878476D01*
X229989299Y-52875316D01*
X229989296Y-52875315D01*
X229856529Y-52820321D01*
X229856524Y-52820319D01*
X229848901Y-52817162D01*
X229840713Y-52816084D01*
X229824411Y-52813938D01*
X229729942Y-52801500D01*
X229729924Y-52801499D01*
X229698239Y-52797328D01*
X229690050Y-52796250D01*
X229658357Y-52800422D01*
X229641914Y-52801500D01*
X213720710Y-52801500D01*
X213669461Y-52790607D01*
X213627074Y-52759811D01*
X213605671Y-52736040D01*
X213605667Y-52736037D01*
X213601253Y-52731134D01*
X213595912Y-52727253D01*
X213594572Y-52726047D01*
X213559436Y-52672516D01*
X213555148Y-52608627D01*
X213582817Y-52550880D01*
X213635137Y-52514300D01*
X213636338Y-52513910D01*
X214036680Y-52348081D01*
X214422777Y-52151354D01*
X214792249Y-51924940D01*
X215142818Y-51670235D01*
X215472322Y-51388810D01*
X215568933Y-51292197D01*
X215568935Y-51292197D01*
X215625526Y-51235606D01*
X215679918Y-51181215D01*
X215679919Y-51181212D01*
X216155430Y-50705703D01*
X216155489Y-50705624D01*
X216155597Y-50705509D01*
X216253452Y-50607658D01*
X216479936Y-50331692D01*
X216678279Y-50034855D01*
X216846572Y-49720007D01*
X216983194Y-49390179D01*
X217086829Y-49048547D01*
X217156479Y-48698403D01*
X217191473Y-48343118D01*
X217191474Y-48164616D01*
X217191474Y-48087695D01*
X217191474Y-47150637D01*
X308164712Y-47150637D01*
X308164961Y-47154595D01*
X308183491Y-47449136D01*
X308183492Y-47449146D01*
X308183741Y-47453099D01*
X308184482Y-47456987D01*
X308184484Y-47456997D01*
X308239784Y-47746890D01*
X308239787Y-47746902D01*
X308240529Y-47750791D01*
X308241751Y-47754553D01*
X308241755Y-47754567D01*
X308301439Y-47938253D01*
X308334180Y-48039018D01*
X308335867Y-48042603D01*
X308335869Y-48042608D01*
X308450537Y-48286290D01*
X308463216Y-48313235D01*
X308528927Y-48416779D01*
X308623481Y-48565773D01*
X308623487Y-48565782D01*
X308625604Y-48569117D01*
X308628123Y-48572162D01*
X308628126Y-48572166D01*
X308816257Y-48799577D01*
X308818782Y-48802629D01*
X309039703Y-49010087D01*
X309284884Y-49188221D01*
X309550457Y-49334222D01*
X309832235Y-49445786D01*
X310125774Y-49521153D01*
X310426444Y-49559137D01*
X310725545Y-49559137D01*
X310729504Y-49559137D01*
X311030174Y-49521153D01*
X311323713Y-49445786D01*
X311605491Y-49334222D01*
X311871064Y-49188221D01*
X312116245Y-49010087D01*
X312337166Y-48802629D01*
X312530344Y-48569117D01*
X312692732Y-48313235D01*
X312821768Y-48039018D01*
X312915419Y-47750791D01*
X312972207Y-47453099D01*
X312991236Y-47150637D01*
X312972207Y-46848175D01*
X312915419Y-46550483D01*
X312821768Y-46262256D01*
X312692732Y-45988039D01*
X312530344Y-45732157D01*
X312337166Y-45498645D01*
X312116245Y-45291187D01*
X312113041Y-45288859D01*
X311874266Y-45115379D01*
X311874261Y-45115376D01*
X311871064Y-45113053D01*
X311867592Y-45111144D01*
X311608959Y-44968958D01*
X311608951Y-44968954D01*
X311605491Y-44967052D01*
X311586924Y-44959700D01*
X311327382Y-44856940D01*
X311327372Y-44856936D01*
X311323713Y-44855488D01*
X311298274Y-44848956D01*
X311034009Y-44781105D01*
X311033999Y-44781103D01*
X311030174Y-44780121D01*
X311026249Y-44779625D01*
X311026238Y-44779623D01*
X310733435Y-44742633D01*
X310733425Y-44742632D01*
X310729504Y-44742137D01*
X310426444Y-44742137D01*
X310422523Y-44742632D01*
X310422512Y-44742633D01*
X310129709Y-44779623D01*
X310129695Y-44779625D01*
X310125774Y-44780121D01*
X310121951Y-44781102D01*
X310121938Y-44781105D01*
X309836055Y-44854507D01*
X309836052Y-44854507D01*
X309832235Y-44855488D01*
X309828579Y-44856935D01*
X309828565Y-44856940D01*
X309554131Y-44965597D01*
X309554126Y-44965599D01*
X309550457Y-44967052D01*
X309547002Y-44968951D01*
X309546988Y-44968958D01*
X309288355Y-45111144D01*
X309288345Y-45111149D01*
X309284884Y-45113053D01*
X309281693Y-45115371D01*
X309281681Y-45115379D01*
X309042906Y-45288859D01*
X309042897Y-45288866D01*
X309039703Y-45291187D01*
X309036825Y-45293889D01*
X309036816Y-45293897D01*
X308821668Y-45495934D01*
X308821661Y-45495941D01*
X308818782Y-45498645D01*
X308816265Y-45501687D01*
X308816257Y-45501696D01*
X308628126Y-45729107D01*
X308628117Y-45729118D01*
X308625604Y-45732157D01*
X308623492Y-45735484D01*
X308623481Y-45735500D01*
X308465340Y-45984692D01*
X308463216Y-45988039D01*
X308461531Y-45991617D01*
X308461528Y-45991625D01*
X308335869Y-46258665D01*
X308335864Y-46258675D01*
X308334180Y-46262256D01*
X308332956Y-46266022D01*
X308332954Y-46266028D01*
X308241755Y-46546706D01*
X308241750Y-46546723D01*
X308240529Y-46550483D01*
X308239788Y-46554367D01*
X308239784Y-46554383D01*
X308184484Y-46844276D01*
X308184482Y-46844288D01*
X308183741Y-46848175D01*
X308183492Y-46852125D01*
X308183491Y-46852137D01*
X308164961Y-47146679D01*
X308164712Y-47150637D01*
X217191474Y-47150637D01*
X217191474Y-36744786D01*
X217191475Y-36744782D01*
X217191474Y-36667913D01*
X217191480Y-36667861D01*
X217191488Y-36667861D01*
X217191487Y-36481659D01*
X217162266Y-36110405D01*
X217104007Y-35742588D01*
X217017069Y-35380475D01*
X216901989Y-35026300D01*
X216759475Y-34682246D01*
X216590407Y-34350433D01*
X216423001Y-34077254D01*
X223394712Y-34077254D01*
X223394961Y-34081212D01*
X223413491Y-34375753D01*
X223413492Y-34375763D01*
X223413741Y-34379716D01*
X223414482Y-34383604D01*
X223414484Y-34383614D01*
X223469784Y-34673507D01*
X223469787Y-34673519D01*
X223470529Y-34677408D01*
X223471751Y-34681170D01*
X223471755Y-34681184D01*
X223540830Y-34893772D01*
X223564180Y-34965635D01*
X223565867Y-34969220D01*
X223565869Y-34969225D01*
X223640596Y-35128028D01*
X223693216Y-35239852D01*
X223727731Y-35294239D01*
X223853481Y-35492390D01*
X223853487Y-35492399D01*
X223855604Y-35495734D01*
X223858123Y-35498779D01*
X223858126Y-35498783D01*
X223996427Y-35665960D01*
X224048782Y-35729246D01*
X224269703Y-35936704D01*
X224272907Y-35939031D01*
X224272906Y-35939031D01*
X224433045Y-36055379D01*
X224514884Y-36114838D01*
X224780457Y-36260839D01*
X225062235Y-36372403D01*
X225355774Y-36447770D01*
X225656444Y-36485754D01*
X225955545Y-36485754D01*
X225959504Y-36485754D01*
X226260174Y-36447770D01*
X226553713Y-36372403D01*
X226835491Y-36260839D01*
X227101064Y-36114838D01*
X227346245Y-35936704D01*
X227567166Y-35729246D01*
X227760344Y-35495734D01*
X227922732Y-35239852D01*
X228051768Y-34965635D01*
X228145419Y-34677408D01*
X228202207Y-34379716D01*
X228221236Y-34077254D01*
X228202207Y-33774792D01*
X228145419Y-33477100D01*
X228136727Y-33450350D01*
X228102426Y-33344783D01*
X228051768Y-33188873D01*
X227922732Y-32914656D01*
X227787550Y-32701643D01*
X227762466Y-32662117D01*
X227762462Y-32662111D01*
X227760344Y-32658774D01*
X227744556Y-32639690D01*
X227569690Y-32428313D01*
X227567166Y-32425262D01*
X227475627Y-32339301D01*
X227349131Y-32220514D01*
X227349129Y-32220513D01*
X227346245Y-32217804D01*
X227343041Y-32215476D01*
X227104266Y-32041996D01*
X227104261Y-32041993D01*
X227101064Y-32039670D01*
X227091025Y-32034151D01*
X226838959Y-31895575D01*
X226838951Y-31895571D01*
X226835491Y-31893669D01*
X226816924Y-31886317D01*
X226557382Y-31783557D01*
X226557372Y-31783553D01*
X226553713Y-31782105D01*
X226501706Y-31768752D01*
X226264009Y-31707722D01*
X226263999Y-31707720D01*
X226260174Y-31706738D01*
X226256249Y-31706242D01*
X226256238Y-31706240D01*
X225963435Y-31669250D01*
X225963425Y-31669249D01*
X225959504Y-31668754D01*
X225656444Y-31668754D01*
X225652523Y-31669249D01*
X225652512Y-31669250D01*
X225359709Y-31706240D01*
X225359695Y-31706242D01*
X225355774Y-31706738D01*
X225351951Y-31707719D01*
X225351938Y-31707722D01*
X225066055Y-31781124D01*
X225066052Y-31781124D01*
X225062235Y-31782105D01*
X225058579Y-31783552D01*
X225058565Y-31783557D01*
X224784131Y-31892214D01*
X224784126Y-31892216D01*
X224780457Y-31893669D01*
X224777002Y-31895568D01*
X224776988Y-31895575D01*
X224518355Y-32037761D01*
X224518345Y-32037766D01*
X224514884Y-32039670D01*
X224511693Y-32041988D01*
X224511681Y-32041996D01*
X224272906Y-32215476D01*
X224272897Y-32215483D01*
X224269703Y-32217804D01*
X224266825Y-32220506D01*
X224266816Y-32220514D01*
X224051668Y-32422551D01*
X224051661Y-32422558D01*
X224048782Y-32425262D01*
X224046265Y-32428304D01*
X224046257Y-32428313D01*
X223858126Y-32655724D01*
X223858117Y-32655735D01*
X223855604Y-32658774D01*
X223853492Y-32662101D01*
X223853481Y-32662117D01*
X223695340Y-32911309D01*
X223693216Y-32914656D01*
X223691531Y-32918234D01*
X223691528Y-32918242D01*
X223565869Y-33185282D01*
X223565864Y-33185292D01*
X223564180Y-33188873D01*
X223562956Y-33192639D01*
X223562954Y-33192645D01*
X223471755Y-33473323D01*
X223471750Y-33473340D01*
X223470529Y-33477100D01*
X223469788Y-33480984D01*
X223469784Y-33481000D01*
X223414484Y-33770893D01*
X223414482Y-33770905D01*
X223413741Y-33774792D01*
X223413492Y-33778742D01*
X223413491Y-33778754D01*
X223397628Y-34030898D01*
X223394712Y-34077254D01*
X216423001Y-34077254D01*
X216395826Y-34032908D01*
X216176933Y-33731629D01*
X215935077Y-33448452D01*
X215803412Y-33316788D01*
X215749021Y-33262397D01*
X215749020Y-33262396D01*
X215749019Y-33262394D01*
X215441923Y-32955298D01*
X215412089Y-32907818D01*
X215405810Y-32852095D01*
X215424329Y-32799171D01*
X215512606Y-32658680D01*
X215572780Y-32486712D01*
X215593179Y-32305665D01*
X215572780Y-32124618D01*
X215512606Y-31952650D01*
X215415674Y-31798384D01*
X215286844Y-31669554D01*
X215280850Y-31665788D01*
X215280848Y-31665786D01*
X215138569Y-31576386D01*
X215138566Y-31576384D01*
X215132578Y-31572622D01*
X215125902Y-31570286D01*
X215125898Y-31570284D01*
X214967289Y-31514785D01*
X214967288Y-31514784D01*
X214960610Y-31512448D01*
X214953589Y-31511656D01*
X214953581Y-31511655D01*
X214876265Y-31502944D01*
X214835703Y-31491258D01*
X214801278Y-31466831D01*
X212788470Y-29454023D01*
X212788458Y-29454008D01*
X212788460Y-29454006D01*
X212638091Y-29303637D01*
X212461158Y-29152523D01*
X212316563Y-29029028D01*
X212316553Y-29029020D01*
X212314683Y-29027423D01*
X212283546Y-29004801D01*
X211972606Y-28778892D01*
X211970601Y-28777435D01*
X211968502Y-28776149D01*
X211968492Y-28776142D01*
X211610064Y-28556498D01*
X211610051Y-28556491D01*
X211607966Y-28555213D01*
X211605772Y-28554095D01*
X211231222Y-28363253D01*
X211231210Y-28363247D01*
X211229013Y-28362128D01*
X211226734Y-28361184D01*
X211226721Y-28361178D01*
X210838353Y-28200311D01*
X210838341Y-28200306D01*
X210836080Y-28199370D01*
X210818091Y-28193525D01*
X210433953Y-28068711D01*
X210433942Y-28068708D01*
X210431588Y-28067943D01*
X210429198Y-28067369D01*
X210429176Y-28067363D01*
X210020427Y-27969232D01*
X210020421Y-27969230D01*
X210018031Y-27968657D01*
X210015599Y-27968271D01*
X210015595Y-27968271D01*
X209600383Y-27902507D01*
X209600363Y-27902504D01*
X209597960Y-27902124D01*
X209595529Y-27901932D01*
X209595515Y-27901931D01*
X209176419Y-27868947D01*
X209176411Y-27868946D01*
X209173963Y-27868754D01*
X209171494Y-27868754D01*
X209127684Y-27868754D01*
X209066983Y-27853169D01*
X209021299Y-27810268D01*
X209001933Y-27750666D01*
X209013676Y-27689106D01*
X209053623Y-27640818D01*
X209059021Y-27636896D01*
X209197727Y-27536120D01*
X209325514Y-27394198D01*
X209421001Y-27228810D01*
X209480016Y-27047182D01*
X209494974Y-26904864D01*
X209494974Y-26209644D01*
X209480016Y-26067326D01*
X209421001Y-25885698D01*
X209325514Y-25720310D01*
X209197727Y-25578388D01*
X209192385Y-25574507D01*
X209192382Y-25574504D01*
X209043226Y-25466136D01*
X209044717Y-25464083D01*
X209007382Y-25426730D01*
X208990515Y-25363733D01*
X209007403Y-25300742D01*
X209053521Y-25254631D01*
X209116515Y-25237754D01*
X334326132Y-25237754D01*
X334329795Y-25237806D01*
X334736106Y-25249628D01*
X334736106Y-25249669D01*
X334736258Y-25249633D01*
X334983788Y-25257138D01*
X334990876Y-25257554D01*
X335343317Y-25288388D01*
X335648282Y-25316101D01*
X335655028Y-25316901D01*
X335998555Y-25367219D01*
X336308019Y-25414319D01*
X336314460Y-25415474D01*
X336651690Y-25485105D01*
X336651865Y-25485142D01*
X336960765Y-25551450D01*
X336966839Y-25552915D01*
X337297655Y-25641556D01*
X337298879Y-25641891D01*
X337604154Y-25726992D01*
X337609951Y-25728759D01*
X337689911Y-25755254D01*
X337934223Y-25836210D01*
X337935459Y-25836628D01*
X338236109Y-25940375D01*
X338241426Y-25942347D01*
X338558271Y-26068221D01*
X338559874Y-26068871D01*
X338854211Y-26190788D01*
X338859188Y-26192978D01*
X339167796Y-26336884D01*
X339169614Y-26337751D01*
X339456387Y-26477380D01*
X339460941Y-26479714D01*
X339760442Y-26641203D01*
X339762373Y-26642268D01*
X339947095Y-26746451D01*
X340040485Y-26799123D01*
X340044723Y-26801623D01*
X340334045Y-26980079D01*
X340336204Y-26981442D01*
X340604511Y-27154914D01*
X340608351Y-27157500D01*
X340718365Y-27234532D01*
X340858470Y-27332634D01*
X340886631Y-27352352D01*
X340888976Y-27354035D01*
X341088361Y-27500744D01*
X341146412Y-27543459D01*
X341149886Y-27546109D01*
X341416285Y-27756748D01*
X341418796Y-27758787D01*
X341664369Y-27963446D01*
X341667429Y-27966081D01*
X341921062Y-28191793D01*
X341923648Y-28194160D01*
X342027413Y-28291837D01*
X342156486Y-28413338D01*
X342159217Y-28415988D01*
X342399285Y-28656054D01*
X342401920Y-28658770D01*
X342621074Y-28891579D01*
X342623398Y-28894118D01*
X342721888Y-29004790D01*
X342849155Y-29147798D01*
X342851823Y-29150895D01*
X343056457Y-29396436D01*
X343058500Y-29398953D01*
X343269146Y-29665356D01*
X343271797Y-29668830D01*
X343461187Y-29926217D01*
X343462913Y-29928622D01*
X343657763Y-30206894D01*
X343660360Y-30210753D01*
X343833793Y-30478995D01*
X343835196Y-30481217D01*
X344013657Y-30770544D01*
X344016127Y-30774729D01*
X344115917Y-30951659D01*
X344172954Y-31052787D01*
X344174111Y-31054885D01*
X344335518Y-31354232D01*
X344337898Y-31358873D01*
X344477502Y-31645589D01*
X344478412Y-31647498D01*
X344622285Y-31956032D01*
X344624499Y-31961063D01*
X344746359Y-32255256D01*
X344747048Y-32256955D01*
X344872910Y-32573767D01*
X344874920Y-32579185D01*
X344978623Y-32879699D01*
X344979119Y-32881168D01*
X345086514Y-33205263D01*
X345088282Y-33211061D01*
X345173399Y-33516390D01*
X345173733Y-33517613D01*
X345262359Y-33848362D01*
X345263846Y-33854529D01*
X345330022Y-34162803D01*
X345330226Y-34163768D01*
X345399810Y-34500754D01*
X345400976Y-34507263D01*
X345418274Y-34620909D01*
X345447992Y-34816166D01*
X345448096Y-34816863D01*
X345498384Y-35160165D01*
X345499197Y-35167024D01*
X345526921Y-35472100D01*
X345526958Y-35472521D01*
X345557730Y-35824229D01*
X345558153Y-35831405D01*
X345566422Y-36105021D01*
X345566426Y-36105162D01*
X345577433Y-36483423D01*
X345577156Y-36487155D01*
X345577474Y-36487155D01*
X345577474Y-150205410D01*
X345577421Y-150209075D01*
X345564473Y-150654021D01*
X345564469Y-150654162D01*
X345558194Y-150861807D01*
X345557772Y-150868983D01*
X345524987Y-151243720D01*
X345524949Y-151244141D01*
X345499319Y-151526190D01*
X345498506Y-151533049D01*
X345446202Y-151890123D01*
X345446098Y-151890820D01*
X345401186Y-152185910D01*
X345400017Y-152192430D01*
X345328345Y-152539540D01*
X345328142Y-152540506D01*
X345264152Y-152838602D01*
X345262665Y-152844769D01*
X345171800Y-153183877D01*
X345171465Y-153185100D01*
X345088703Y-153481986D01*
X345086936Y-153487784D01*
X344977182Y-153819001D01*
X344976685Y-153820469D01*
X344875447Y-154113847D01*
X344873437Y-154119266D01*
X344745174Y-154442122D01*
X344744485Y-154443820D01*
X344625140Y-154731945D01*
X344622926Y-154736977D01*
X344476548Y-155050884D01*
X344475638Y-155052793D01*
X344338674Y-155334090D01*
X344336294Y-155338731D01*
X344172270Y-155642933D01*
X344171113Y-155645031D01*
X344017065Y-155918164D01*
X344014558Y-155922413D01*
X343833379Y-156216149D01*
X343831949Y-156218413D01*
X343661432Y-156482148D01*
X343658834Y-156486008D01*
X343461137Y-156768349D01*
X343459411Y-156770754D01*
X343273020Y-157024065D01*
X343270370Y-157027538D01*
X343056749Y-157297707D01*
X343054705Y-157300225D01*
X342853254Y-157541947D01*
X342850587Y-157545044D01*
X342669901Y-157748081D01*
X342621894Y-157802027D01*
X342621699Y-157802246D01*
X342619318Y-157804846D01*
X342403551Y-158034057D01*
X342400901Y-158036788D01*
X342157508Y-158280181D01*
X342154777Y-158282831D01*
X341925566Y-158498598D01*
X341922984Y-158500961D01*
X341922758Y-158501164D01*
X341665764Y-158729867D01*
X341662667Y-158732534D01*
X341420945Y-158933985D01*
X341418427Y-158936029D01*
X341148258Y-159149650D01*
X341144785Y-159152300D01*
X340891474Y-159338691D01*
X340889069Y-159340417D01*
X340606728Y-159538114D01*
X340602868Y-159540712D01*
X340339133Y-159711229D01*
X340336869Y-159712659D01*
X340043133Y-159893838D01*
X340038884Y-159896345D01*
X339765751Y-160050393D01*
X339763653Y-160051550D01*
X339459451Y-160215574D01*
X339454810Y-160217954D01*
X339173513Y-160354918D01*
X339171604Y-160355828D01*
X338857697Y-160502206D01*
X338852665Y-160504420D01*
X338564540Y-160623765D01*
X338562842Y-160624454D01*
X338239986Y-160752717D01*
X338234567Y-160754727D01*
X337941189Y-160855965D01*
X337939721Y-160856462D01*
X337608504Y-160966216D01*
X337602706Y-160967983D01*
X337305820Y-161050745D01*
X337304597Y-161051080D01*
X336965489Y-161141945D01*
X336959322Y-161143432D01*
X336661226Y-161207422D01*
X336660260Y-161207625D01*
X336313150Y-161279297D01*
X336306630Y-161280466D01*
X336011540Y-161325378D01*
X336010843Y-161325482D01*
X335653769Y-161377786D01*
X335646910Y-161378599D01*
X335364861Y-161404229D01*
X335364440Y-161404267D01*
X334989703Y-161437052D01*
X334982527Y-161437474D01*
X334774882Y-161443749D01*
X334774741Y-161443753D01*
X334329795Y-161456701D01*
X334326130Y-161456754D01*
X74129818Y-161456754D01*
X74126153Y-161456701D01*
X73686317Y-161443903D01*
X73686175Y-161443898D01*
X73473283Y-161437463D01*
X73466108Y-161437042D01*
X73094026Y-161404488D01*
X73093606Y-161404450D01*
X72808886Y-161378578D01*
X72802026Y-161377765D01*
X72446441Y-161325679D01*
X72445745Y-161325575D01*
X72149186Y-161280440D01*
X72142665Y-161279271D01*
X71796579Y-161207811D01*
X71795613Y-161207608D01*
X71496483Y-161143396D01*
X71490317Y-161141909D01*
X71152103Y-161051284D01*
X71150879Y-161050949D01*
X70853076Y-160967931D01*
X70847278Y-160966164D01*
X70516887Y-160856684D01*
X70515418Y-160856187D01*
X70221202Y-160754659D01*
X70215784Y-160752649D01*
X69893600Y-160624654D01*
X69891902Y-160623965D01*
X69603122Y-160504349D01*
X69598090Y-160502135D01*
X69284741Y-160356018D01*
X69282832Y-160355108D01*
X69000972Y-160217870D01*
X68996331Y-160215490D01*
X68692651Y-160051747D01*
X68690553Y-160050590D01*
X68416888Y-159896243D01*
X68412639Y-159893736D01*
X68119412Y-159712870D01*
X68117148Y-159711440D01*
X67852889Y-159540585D01*
X67849029Y-159537987D01*
X67567111Y-159340586D01*
X67564758Y-159338897D01*
X67310995Y-159152175D01*
X67307531Y-159149532D01*
X67037758Y-158936224D01*
X67035240Y-158934180D01*
X66793082Y-158732367D01*
X66789985Y-158729699D01*
X66533183Y-158501164D01*
X66530583Y-158498785D01*
X66301007Y-158282676D01*
X66298276Y-158280026D01*
X66055206Y-158036957D01*
X66052555Y-158034225D01*
X65836426Y-157804627D01*
X65834047Y-157802027D01*
X65605521Y-157545234D01*
X65602853Y-157542137D01*
X65486897Y-157403001D01*
X65401046Y-157299987D01*
X65399012Y-157297482D01*
X65185666Y-157027662D01*
X65183060Y-157024246D01*
X64996355Y-156770506D01*
X64994638Y-156768115D01*
X64921040Y-156663006D01*
X64797200Y-156486145D01*
X64794653Y-156482360D01*
X64623770Y-156218060D01*
X64622407Y-156215903D01*
X64441475Y-155922567D01*
X64438972Y-155918324D01*
X64438882Y-155918164D01*
X64284616Y-155644644D01*
X64283508Y-155642635D01*
X64119735Y-155338899D01*
X64117355Y-155334258D01*
X63980309Y-155052793D01*
X63980080Y-155052323D01*
X63979220Y-155050519D01*
X63833075Y-154737111D01*
X63830885Y-154732133D01*
X63711187Y-154443157D01*
X63710627Y-154441776D01*
X63582552Y-154119395D01*
X63580576Y-154114067D01*
X63478997Y-153819700D01*
X63478501Y-153818232D01*
X63455075Y-153747537D01*
X63369046Y-153487915D01*
X63367310Y-153482222D01*
X63284263Y-153184317D01*
X63283936Y-153183123D01*
X63267111Y-153120330D01*
X63193300Y-152844865D01*
X63191833Y-152838779D01*
X63127598Y-152539540D01*
X63127402Y-152538608D01*
X63115974Y-152483265D01*
X63055947Y-152192556D01*
X63054784Y-152186059D01*
X63009626Y-151889357D01*
X63009575Y-151889022D01*
X62957449Y-151533157D01*
X62956645Y-151526381D01*
X62930770Y-151241646D01*
X62898176Y-150869098D01*
X62897757Y-150861970D01*
X62891283Y-150647740D01*
X62878527Y-150209357D01*
X62878474Y-150205692D01*
X62878474Y-143637254D01*
X95499712Y-143637254D01*
X95499961Y-143641212D01*
X95518491Y-143935753D01*
X95518492Y-143935763D01*
X95518741Y-143939716D01*
X95519482Y-143943604D01*
X95519484Y-143943614D01*
X95574784Y-144233507D01*
X95574787Y-144233519D01*
X95575529Y-144237408D01*
X95576751Y-144241170D01*
X95576755Y-144241184D01*
X95667954Y-144521862D01*
X95669180Y-144525635D01*
X95798216Y-144799852D01*
X95864071Y-144903623D01*
X95958481Y-145052390D01*
X95958487Y-145052399D01*
X95960604Y-145055734D01*
X96153782Y-145289246D01*
X96374703Y-145496704D01*
X96619884Y-145674838D01*
X96885457Y-145820839D01*
X97167235Y-145932403D01*
X97460774Y-146007770D01*
X97761444Y-146045754D01*
X98060545Y-146045754D01*
X98064504Y-146045754D01*
X98365174Y-146007770D01*
X98658713Y-145932403D01*
X98940491Y-145820839D01*
X99206064Y-145674838D01*
X99451245Y-145496704D01*
X99672166Y-145289246D01*
X99865344Y-145055734D01*
X100027732Y-144799852D01*
X100156768Y-144525635D01*
X100250419Y-144237408D01*
X100307207Y-143939716D01*
X100326236Y-143637254D01*
X308099712Y-143637254D01*
X308099961Y-143641212D01*
X308118491Y-143935753D01*
X308118492Y-143935763D01*
X308118741Y-143939716D01*
X308119482Y-143943604D01*
X308119484Y-143943614D01*
X308174784Y-144233507D01*
X308174787Y-144233519D01*
X308175529Y-144237408D01*
X308176751Y-144241170D01*
X308176755Y-144241184D01*
X308267954Y-144521862D01*
X308269180Y-144525635D01*
X308398216Y-144799852D01*
X308464071Y-144903623D01*
X308558481Y-145052390D01*
X308558487Y-145052399D01*
X308560604Y-145055734D01*
X308753782Y-145289246D01*
X308974703Y-145496704D01*
X309219884Y-145674838D01*
X309485457Y-145820839D01*
X309767235Y-145932403D01*
X310060774Y-146007770D01*
X310361444Y-146045754D01*
X310660545Y-146045754D01*
X310664504Y-146045754D01*
X310965174Y-146007770D01*
X311258713Y-145932403D01*
X311540491Y-145820839D01*
X311806064Y-145674838D01*
X312051245Y-145496704D01*
X312272166Y-145289246D01*
X312465344Y-145055734D01*
X312627732Y-144799852D01*
X312756768Y-144525635D01*
X312850419Y-144237408D01*
X312907207Y-143939716D01*
X312926236Y-143637254D01*
X312907207Y-143334792D01*
X312850419Y-143037100D01*
X312756768Y-142748873D01*
X312627732Y-142474656D01*
X312465344Y-142218774D01*
X312272166Y-141985262D01*
X312051245Y-141777804D01*
X312048041Y-141775476D01*
X311809266Y-141601996D01*
X311809261Y-141601993D01*
X311806064Y-141599670D01*
X311802592Y-141597761D01*
X311543959Y-141455575D01*
X311543951Y-141455571D01*
X311540491Y-141453669D01*
X311521924Y-141446317D01*
X311262382Y-141343557D01*
X311262372Y-141343553D01*
X311258713Y-141342105D01*
X311233274Y-141335573D01*
X310969009Y-141267722D01*
X310968999Y-141267720D01*
X310965174Y-141266738D01*
X310961249Y-141266242D01*
X310961238Y-141266240D01*
X310668435Y-141229250D01*
X310668425Y-141229249D01*
X310664504Y-141228754D01*
X310361444Y-141228754D01*
X310357523Y-141229249D01*
X310357512Y-141229250D01*
X310064709Y-141266240D01*
X310064695Y-141266242D01*
X310060774Y-141266738D01*
X310056951Y-141267719D01*
X310056938Y-141267722D01*
X309771055Y-141341124D01*
X309771052Y-141341124D01*
X309767235Y-141342105D01*
X309763579Y-141343552D01*
X309763565Y-141343557D01*
X309489131Y-141452214D01*
X309489126Y-141452216D01*
X309485457Y-141453669D01*
X309482002Y-141455568D01*
X309481988Y-141455575D01*
X309223355Y-141597761D01*
X309223345Y-141597766D01*
X309219884Y-141599670D01*
X309216693Y-141601988D01*
X309216681Y-141601996D01*
X308977906Y-141775476D01*
X308977897Y-141775483D01*
X308974703Y-141777804D01*
X308971825Y-141780506D01*
X308971816Y-141780514D01*
X308756668Y-141982551D01*
X308756661Y-141982558D01*
X308753782Y-141985262D01*
X308751265Y-141988304D01*
X308751257Y-141988313D01*
X308563126Y-142215724D01*
X308563117Y-142215735D01*
X308560604Y-142218774D01*
X308558492Y-142222101D01*
X308558481Y-142222117D01*
X308400340Y-142471309D01*
X308398216Y-142474656D01*
X308396531Y-142478234D01*
X308396528Y-142478242D01*
X308270869Y-142745282D01*
X308270864Y-142745292D01*
X308269180Y-142748873D01*
X308267956Y-142752639D01*
X308267954Y-142752645D01*
X308176755Y-143033323D01*
X308176750Y-143033340D01*
X308175529Y-143037100D01*
X308174788Y-143040984D01*
X308174784Y-143041000D01*
X308119484Y-143330893D01*
X308119482Y-143330905D01*
X308118741Y-143334792D01*
X308118492Y-143338742D01*
X308118491Y-143338754D01*
X308099961Y-143633296D01*
X308099712Y-143637254D01*
X100326236Y-143637254D01*
X100307207Y-143334792D01*
X100250419Y-143037100D01*
X100156768Y-142748873D01*
X100027732Y-142474656D01*
X99865344Y-142218774D01*
X99672166Y-141985262D01*
X99451245Y-141777804D01*
X99448041Y-141775476D01*
X99209266Y-141601996D01*
X99209261Y-141601993D01*
X99206064Y-141599670D01*
X99202592Y-141597761D01*
X98943959Y-141455575D01*
X98943951Y-141455571D01*
X98940491Y-141453669D01*
X98921924Y-141446317D01*
X98662382Y-141343557D01*
X98662372Y-141343553D01*
X98658713Y-141342105D01*
X98633274Y-141335573D01*
X98369009Y-141267722D01*
X98368999Y-141267720D01*
X98365174Y-141266738D01*
X98361249Y-141266242D01*
X98361238Y-141266240D01*
X98068435Y-141229250D01*
X98068425Y-141229249D01*
X98064504Y-141228754D01*
X97761444Y-141228754D01*
X97757523Y-141229249D01*
X97757512Y-141229250D01*
X97464709Y-141266240D01*
X97464695Y-141266242D01*
X97460774Y-141266738D01*
X97456951Y-141267719D01*
X97456938Y-141267722D01*
X97171055Y-141341124D01*
X97171052Y-141341124D01*
X97167235Y-141342105D01*
X97163579Y-141343552D01*
X97163565Y-141343557D01*
X96889131Y-141452214D01*
X96889126Y-141452216D01*
X96885457Y-141453669D01*
X96882002Y-141455568D01*
X96881988Y-141455575D01*
X96623355Y-141597761D01*
X96623345Y-141597766D01*
X96619884Y-141599670D01*
X96616693Y-141601988D01*
X96616681Y-141601996D01*
X96377906Y-141775476D01*
X96377897Y-141775483D01*
X96374703Y-141777804D01*
X96371825Y-141780506D01*
X96371816Y-141780514D01*
X96156668Y-141982551D01*
X96156661Y-141982558D01*
X96153782Y-141985262D01*
X96151265Y-141988304D01*
X96151257Y-141988313D01*
X95963126Y-142215724D01*
X95963117Y-142215735D01*
X95960604Y-142218774D01*
X95958492Y-142222101D01*
X95958481Y-142222117D01*
X95800340Y-142471309D01*
X95798216Y-142474656D01*
X95796531Y-142478234D01*
X95796528Y-142478242D01*
X95670869Y-142745282D01*
X95670864Y-142745292D01*
X95669180Y-142748873D01*
X95667956Y-142752639D01*
X95667954Y-142752645D01*
X95576755Y-143033323D01*
X95576750Y-143033340D01*
X95575529Y-143037100D01*
X95574788Y-143040984D01*
X95574784Y-143041000D01*
X95519484Y-143330893D01*
X95519482Y-143330905D01*
X95518741Y-143334792D01*
X95518492Y-143338742D01*
X95518491Y-143338754D01*
X95499961Y-143633296D01*
X95499712Y-143637254D01*
X62878474Y-143637254D01*
X62878474Y-93347300D01*
X114869712Y-93347300D01*
X114869961Y-93351258D01*
X114888491Y-93645799D01*
X114888492Y-93645809D01*
X114888741Y-93649762D01*
X114889482Y-93653650D01*
X114889484Y-93653660D01*
X114944784Y-93943553D01*
X114944787Y-93943565D01*
X114945529Y-93947454D01*
X114946751Y-93951216D01*
X114946755Y-93951230D01*
X115013211Y-94155758D01*
X115039180Y-94235681D01*
X115168216Y-94509898D01*
X115234071Y-94613669D01*
X115328481Y-94762436D01*
X115328487Y-94762445D01*
X115330604Y-94765780D01*
X115523782Y-94999292D01*
X115526668Y-95002002D01*
X115735850Y-95198437D01*
X115744703Y-95206750D01*
X115989884Y-95384884D01*
X116255457Y-95530885D01*
X116537235Y-95642449D01*
X116830774Y-95717816D01*
X117131444Y-95755800D01*
X117430545Y-95755800D01*
X117434504Y-95755800D01*
X117735174Y-95717816D01*
X118028713Y-95642449D01*
X118310491Y-95530885D01*
X118576064Y-95384884D01*
X118821245Y-95206750D01*
X119042166Y-94999292D01*
X119235344Y-94765780D01*
X119397732Y-94509898D01*
X119526768Y-94235681D01*
X119620419Y-93947454D01*
X119677207Y-93649762D01*
X119696236Y-93347300D01*
X119677207Y-93044838D01*
X119620419Y-92747146D01*
X119526768Y-92458919D01*
X119397732Y-92184702D01*
X119235344Y-91928820D01*
X119042166Y-91695308D01*
X118821245Y-91487850D01*
X118818041Y-91485522D01*
X118579266Y-91312042D01*
X118579261Y-91312039D01*
X118576064Y-91309716D01*
X118572592Y-91307807D01*
X118313959Y-91165621D01*
X118313951Y-91165617D01*
X118310491Y-91163715D01*
X118291924Y-91156363D01*
X118032382Y-91053603D01*
X118032372Y-91053599D01*
X118028713Y-91052151D01*
X118003274Y-91045619D01*
X117739009Y-90977768D01*
X117738999Y-90977766D01*
X117735174Y-90976784D01*
X117731249Y-90976288D01*
X117731238Y-90976286D01*
X117438435Y-90939296D01*
X117438425Y-90939295D01*
X117434504Y-90938800D01*
X117131444Y-90938800D01*
X117127523Y-90939295D01*
X117127512Y-90939296D01*
X116834709Y-90976286D01*
X116834695Y-90976288D01*
X116830774Y-90976784D01*
X116826951Y-90977765D01*
X116826938Y-90977768D01*
X116541055Y-91051170D01*
X116541052Y-91051170D01*
X116537235Y-91052151D01*
X116533579Y-91053598D01*
X116533565Y-91053603D01*
X116259131Y-91162260D01*
X116259126Y-91162262D01*
X116255457Y-91163715D01*
X116252002Y-91165614D01*
X116251988Y-91165621D01*
X115993355Y-91307807D01*
X115993345Y-91307812D01*
X115989884Y-91309716D01*
X115986693Y-91312034D01*
X115986681Y-91312042D01*
X115747906Y-91485522D01*
X115747897Y-91485529D01*
X115744703Y-91487850D01*
X115741825Y-91490552D01*
X115741816Y-91490560D01*
X115526668Y-91692597D01*
X115526661Y-91692604D01*
X115523782Y-91695308D01*
X115521265Y-91698350D01*
X115521257Y-91698359D01*
X115333126Y-91925770D01*
X115333117Y-91925781D01*
X115330604Y-91928820D01*
X115328492Y-91932147D01*
X115328481Y-91932163D01*
X115170340Y-92181355D01*
X115168216Y-92184702D01*
X115166531Y-92188280D01*
X115166528Y-92188288D01*
X115040869Y-92455328D01*
X115040864Y-92455338D01*
X115039180Y-92458919D01*
X115037956Y-92462685D01*
X115037954Y-92462691D01*
X114946755Y-92743369D01*
X114946750Y-92743386D01*
X114945529Y-92747146D01*
X114944788Y-92751030D01*
X114944784Y-92751046D01*
X114889484Y-93040939D01*
X114889482Y-93040951D01*
X114888741Y-93044838D01*
X114888492Y-93048788D01*
X114888491Y-93048800D01*
X114869961Y-93343342D01*
X114869712Y-93347300D01*
X62878474Y-93347300D01*
X62878474Y-56731449D01*
X202461552Y-56731449D01*
X202468037Y-56737933D01*
X202476853Y-56742179D01*
X202635356Y-56797642D01*
X202649073Y-56800773D01*
X202815945Y-56819575D01*
X202830003Y-56819575D01*
X202996874Y-56800773D01*
X203010591Y-56797642D01*
X203169093Y-56742179D01*
X203177909Y-56737933D01*
X203184394Y-56731448D01*
X203178372Y-56721863D01*
X202834704Y-56378194D01*
X202822973Y-56371421D01*
X202811244Y-56378193D01*
X202467578Y-56721859D01*
X202461552Y-56731449D01*
X62878474Y-56731449D01*
X62878474Y-56014283D01*
X202010653Y-56014283D01*
X202029454Y-56181154D01*
X202032585Y-56194871D01*
X202088049Y-56353375D01*
X202092293Y-56362188D01*
X202098778Y-56368674D01*
X202108366Y-56362649D01*
X202452032Y-56018984D01*
X202458805Y-56007253D01*
X202452033Y-55995524D01*
X202108365Y-55651856D01*
X202098778Y-55645832D01*
X202092293Y-55652318D01*
X202088049Y-55661131D01*
X202032585Y-55819636D01*
X202029454Y-55833353D01*
X202010653Y-56000225D01*
X202010653Y-56014283D01*
X62878474Y-56014283D01*
X62878474Y-54739283D01*
X202010653Y-54739283D01*
X202029454Y-54906154D01*
X202032585Y-54919871D01*
X202088049Y-55078375D01*
X202092293Y-55087188D01*
X202098778Y-55093674D01*
X202108366Y-55087649D01*
X202452032Y-54743984D01*
X202458805Y-54732253D01*
X202452033Y-54720524D01*
X202108365Y-54376856D01*
X202098778Y-54370832D01*
X202092293Y-54377318D01*
X202088049Y-54386131D01*
X202032585Y-54544636D01*
X202029454Y-54558353D01*
X202010653Y-54725225D01*
X202010653Y-54739283D01*
X62878474Y-54739283D01*
X62878474Y-53464283D01*
X202010653Y-53464283D01*
X202029454Y-53631154D01*
X202032585Y-53644871D01*
X202088049Y-53803375D01*
X202092293Y-53812188D01*
X202098778Y-53818674D01*
X202108366Y-53812649D01*
X202452032Y-53468984D01*
X202458805Y-53457253D01*
X202452033Y-53445524D01*
X202108365Y-53101856D01*
X202098778Y-53095832D01*
X202092293Y-53102318D01*
X202088049Y-53111131D01*
X202032585Y-53269636D01*
X202029454Y-53283353D01*
X202010653Y-53450225D01*
X202010653Y-53464283D01*
X62878474Y-53464283D01*
X62878474Y-52733058D01*
X202461552Y-52733058D01*
X202467576Y-52742645D01*
X202811244Y-53086313D01*
X202822973Y-53093085D01*
X202834704Y-53086312D01*
X203178369Y-52742646D01*
X203184394Y-52733058D01*
X203177908Y-52726573D01*
X203169095Y-52722329D01*
X203010591Y-52666865D01*
X202996874Y-52663734D01*
X202830003Y-52644933D01*
X202815945Y-52644933D01*
X202649073Y-52663734D01*
X202635356Y-52666865D01*
X202476851Y-52722329D01*
X202468038Y-52726573D01*
X202461552Y-52733058D01*
X62878474Y-52733058D01*
X62878474Y-47150637D01*
X101104712Y-47150637D01*
X101104961Y-47154595D01*
X101123491Y-47449136D01*
X101123492Y-47449146D01*
X101123741Y-47453099D01*
X101124482Y-47456987D01*
X101124484Y-47456997D01*
X101179784Y-47746890D01*
X101179787Y-47746902D01*
X101180529Y-47750791D01*
X101181751Y-47754553D01*
X101181755Y-47754567D01*
X101241439Y-47938253D01*
X101274180Y-48039018D01*
X101275867Y-48042603D01*
X101275869Y-48042608D01*
X101390537Y-48286290D01*
X101403216Y-48313235D01*
X101468927Y-48416779D01*
X101563481Y-48565773D01*
X101563487Y-48565782D01*
X101565604Y-48569117D01*
X101568123Y-48572162D01*
X101568126Y-48572166D01*
X101756257Y-48799577D01*
X101758782Y-48802629D01*
X101979703Y-49010087D01*
X102224884Y-49188221D01*
X102490457Y-49334222D01*
X102772235Y-49445786D01*
X103065774Y-49521153D01*
X103366444Y-49559137D01*
X103665545Y-49559137D01*
X103669504Y-49559137D01*
X103970174Y-49521153D01*
X104263713Y-49445786D01*
X104545491Y-49334222D01*
X104811064Y-49188221D01*
X105056245Y-49010087D01*
X105277166Y-48802629D01*
X105470344Y-48569117D01*
X105632732Y-48313235D01*
X105761768Y-48039018D01*
X105855419Y-47750791D01*
X105912207Y-47453099D01*
X105931236Y-47150637D01*
X105912207Y-46848175D01*
X105855419Y-46550483D01*
X105761768Y-46262256D01*
X105632732Y-45988039D01*
X105470344Y-45732157D01*
X105277166Y-45498645D01*
X105056245Y-45291187D01*
X105053041Y-45288859D01*
X104814266Y-45115379D01*
X104814261Y-45115376D01*
X104811064Y-45113053D01*
X104807592Y-45111144D01*
X104548959Y-44968958D01*
X104548951Y-44968954D01*
X104545491Y-44967052D01*
X104526924Y-44959700D01*
X104267382Y-44856940D01*
X104267372Y-44856936D01*
X104263713Y-44855488D01*
X104238274Y-44848956D01*
X103974009Y-44781105D01*
X103973999Y-44781103D01*
X103970174Y-44780121D01*
X103966249Y-44779625D01*
X103966238Y-44779623D01*
X103673435Y-44742633D01*
X103673425Y-44742632D01*
X103669504Y-44742137D01*
X103366444Y-44742137D01*
X103362523Y-44742632D01*
X103362512Y-44742633D01*
X103069709Y-44779623D01*
X103069695Y-44779625D01*
X103065774Y-44780121D01*
X103061951Y-44781102D01*
X103061938Y-44781105D01*
X102776055Y-44854507D01*
X102776052Y-44854507D01*
X102772235Y-44855488D01*
X102768579Y-44856935D01*
X102768565Y-44856940D01*
X102494131Y-44965597D01*
X102494126Y-44965599D01*
X102490457Y-44967052D01*
X102487002Y-44968951D01*
X102486988Y-44968958D01*
X102228355Y-45111144D01*
X102228345Y-45111149D01*
X102224884Y-45113053D01*
X102221693Y-45115371D01*
X102221681Y-45115379D01*
X101982906Y-45288859D01*
X101982897Y-45288866D01*
X101979703Y-45291187D01*
X101976825Y-45293889D01*
X101976816Y-45293897D01*
X101761668Y-45495934D01*
X101761661Y-45495941D01*
X101758782Y-45498645D01*
X101756265Y-45501687D01*
X101756257Y-45501696D01*
X101568126Y-45729107D01*
X101568117Y-45729118D01*
X101565604Y-45732157D01*
X101563492Y-45735484D01*
X101563481Y-45735500D01*
X101405340Y-45984692D01*
X101403216Y-45988039D01*
X101401531Y-45991617D01*
X101401528Y-45991625D01*
X101275869Y-46258665D01*
X101275864Y-46258675D01*
X101274180Y-46262256D01*
X101272956Y-46266022D01*
X101272954Y-46266028D01*
X101181755Y-46546706D01*
X101181750Y-46546723D01*
X101180529Y-46550483D01*
X101179788Y-46554367D01*
X101179784Y-46554383D01*
X101124484Y-46844276D01*
X101124482Y-46844288D01*
X101123741Y-46848175D01*
X101123492Y-46852125D01*
X101123491Y-46852137D01*
X101104961Y-47146679D01*
X101104712Y-47150637D01*
X62878474Y-47150637D01*
X62878474Y-42507254D01*
X199324358Y-42507254D01*
X199344757Y-42688301D01*
X199347092Y-42694973D01*
X199385680Y-42805253D01*
X199392271Y-42835886D01*
X199411112Y-43051264D01*
X199411352Y-43054003D01*
X199411828Y-43056708D01*
X199411830Y-43056716D01*
X199474325Y-43411171D01*
X199474328Y-43411185D01*
X199474804Y-43413884D01*
X199475513Y-43416533D01*
X199475516Y-43416543D01*
X199568670Y-43764217D01*
X199569380Y-43766866D01*
X199694361Y-44110262D01*
X199848795Y-44441459D01*
X199850172Y-44443844D01*
X200030135Y-44755560D01*
X200030143Y-44755573D01*
X200031507Y-44757935D01*
X200033077Y-44760178D01*
X200033082Y-44760185D01*
X200099812Y-44855488D01*
X200241107Y-45057283D01*
X200475999Y-45337223D01*
X200542509Y-45403735D01*
X200542514Y-45403743D01*
X200605196Y-45466425D01*
X200661567Y-45522798D01*
X200661569Y-45522799D01*
X200661578Y-45522807D01*
X202942333Y-47803562D01*
X202974945Y-47860046D01*
X202974945Y-47925268D01*
X202942334Y-47981751D01*
X202826863Y-48097223D01*
X202823100Y-48103211D01*
X202823095Y-48103218D01*
X202733695Y-48245497D01*
X202733691Y-48245504D01*
X202729931Y-48251489D01*
X202727596Y-48258160D01*
X202727593Y-48258168D01*
X202672093Y-48416779D01*
X202672091Y-48416784D01*
X202669757Y-48423457D01*
X202668965Y-48430483D01*
X202668965Y-48430485D01*
X202665044Y-48465287D01*
X202649358Y-48604504D01*
X202669757Y-48785551D01*
X202672092Y-48792224D01*
X202672093Y-48792228D01*
X202727593Y-48950839D01*
X202727595Y-48950843D01*
X202729931Y-48957519D01*
X202733693Y-48963507D01*
X202733694Y-48963508D01*
X202744662Y-48980963D01*
X202763974Y-49047998D01*
X202763974Y-50732797D01*
X202763971Y-50732810D01*
X202763971Y-50732840D01*
X202763971Y-50732841D01*
X202763973Y-50811495D01*
X202763964Y-50811568D01*
X202763954Y-50811568D01*
X202763954Y-50811646D01*
X202763954Y-50811647D01*
X202763957Y-50918794D01*
X202763957Y-50918806D01*
X202763958Y-50922925D01*
X202764496Y-50927011D01*
X202764497Y-50927024D01*
X202792497Y-51139643D01*
X202793036Y-51143733D01*
X202794101Y-51147710D01*
X202794102Y-51147711D01*
X202842310Y-51327607D01*
X202850685Y-51358857D01*
X202852258Y-51362654D01*
X202852261Y-51362663D01*
X202904171Y-51487975D01*
X202935919Y-51564616D01*
X202937974Y-51568176D01*
X202937976Y-51568179D01*
X202946969Y-51583754D01*
X203047280Y-51757490D01*
X203049797Y-51760770D01*
X203129193Y-51864239D01*
X203182862Y-51934179D01*
X203185777Y-51937094D01*
X203185778Y-51937095D01*
X203231697Y-51983013D01*
X203774208Y-52525524D01*
X203805163Y-52576356D01*
X203809333Y-52635726D01*
X203785787Y-52690386D01*
X203749205Y-52720407D01*
X203745088Y-52724523D01*
X203745177Y-52724665D01*
X203744557Y-52725054D01*
X203736552Y-52733058D01*
X203742575Y-52742644D01*
X204368089Y-53368159D01*
X204400700Y-53424643D01*
X204400700Y-53489865D01*
X204368089Y-53546349D01*
X204187070Y-53727369D01*
X204130585Y-53759981D01*
X204065363Y-53759981D01*
X204008879Y-53727369D01*
X203472203Y-53190693D01*
X203460474Y-53183921D01*
X203448744Y-53190693D01*
X202556413Y-54083024D01*
X202549641Y-54094754D01*
X202556413Y-54106483D01*
X203093089Y-54643159D01*
X203125701Y-54699643D01*
X203125701Y-54764865D01*
X203093089Y-54821349D01*
X202556413Y-55358024D01*
X202549641Y-55369754D01*
X202556413Y-55381483D01*
X202822974Y-55648044D01*
X203448745Y-56273814D01*
X203460474Y-56280585D01*
X203472204Y-56273813D01*
X204008879Y-55737139D01*
X204065363Y-55704527D01*
X204130585Y-55704527D01*
X204187069Y-55737139D01*
X204360927Y-55910997D01*
X204390761Y-55958477D01*
X204397040Y-56014199D01*
X204378519Y-56067128D01*
X204338868Y-56106779D01*
X204203438Y-56191875D01*
X204203431Y-56191880D01*
X204197443Y-56195643D01*
X204192438Y-56200647D01*
X204192434Y-56200651D01*
X204073621Y-56319464D01*
X204073619Y-56319467D01*
X204068613Y-56324473D01*
X204064850Y-56330461D01*
X204064845Y-56330468D01*
X203975447Y-56472745D01*
X203971681Y-56478739D01*
X203969480Y-56485027D01*
X203945216Y-56519222D01*
X203742576Y-56721862D01*
X203736552Y-56731449D01*
X203743037Y-56737933D01*
X203751855Y-56742180D01*
X203811588Y-56763081D01*
X203868484Y-56803450D01*
X203895180Y-56867902D01*
X203911507Y-57012801D01*
X203913842Y-57019474D01*
X203913843Y-57019478D01*
X203969343Y-57178089D01*
X203969345Y-57178093D01*
X203971681Y-57184769D01*
X203975443Y-57190757D01*
X203975444Y-57190758D01*
X203986412Y-57208213D01*
X204005724Y-57275248D01*
X204005724Y-59386297D01*
X204005721Y-59386310D01*
X204005721Y-59386340D01*
X204005721Y-59386341D01*
X204005723Y-59464939D01*
X204005707Y-59465068D01*
X204005689Y-59465068D01*
X204005689Y-59465204D01*
X204005689Y-59465205D01*
X204005692Y-59572298D01*
X204005692Y-59572310D01*
X204005693Y-59576428D01*
X204006231Y-59580516D01*
X204006232Y-59580525D01*
X204034233Y-59793144D01*
X204034773Y-59797241D01*
X204035840Y-59801223D01*
X204035842Y-59801232D01*
X204055091Y-59873056D01*
X204092426Y-60012369D01*
X204094000Y-60016170D01*
X204094003Y-60016177D01*
X204116517Y-60070525D01*
X204125757Y-60128160D01*
X204108032Y-60183774D01*
X204067146Y-60225433D01*
X203949434Y-60299396D01*
X203949430Y-60299398D01*
X203943443Y-60303161D01*
X203938438Y-60308165D01*
X203938434Y-60308169D01*
X203819621Y-60426982D01*
X203819617Y-60426986D01*
X203814613Y-60431991D01*
X203810850Y-60437979D01*
X203810845Y-60437986D01*
X203721445Y-60580265D01*
X203721441Y-60580272D01*
X203717681Y-60586257D01*
X203715346Y-60592928D01*
X203715343Y-60592936D01*
X203659843Y-60751547D01*
X203659841Y-60751552D01*
X203657507Y-60758225D01*
X203637108Y-60939272D01*
X203657507Y-61120319D01*
X203659842Y-61126992D01*
X203659843Y-61126996D01*
X203715343Y-61285607D01*
X203715345Y-61285611D01*
X203717681Y-61292287D01*
X203721443Y-61298275D01*
X203721445Y-61298278D01*
X203806656Y-61433891D01*
X203814613Y-61446553D01*
X203943443Y-61575383D01*
X204097709Y-61672315D01*
X204103210Y-61674240D01*
X204136955Y-61698184D01*
X207389456Y-64950685D01*
X207389462Y-64950692D01*
X207470963Y-65032195D01*
X207653846Y-65172530D01*
X207853483Y-65287791D01*
X207975557Y-65338356D01*
X208062642Y-65374428D01*
X208062645Y-65374429D01*
X208066457Y-65376008D01*
X208289125Y-65435670D01*
X208517674Y-65465756D01*
X208632935Y-65465754D01*
X209629043Y-65465754D01*
X209670657Y-65472824D01*
X209749666Y-65500471D01*
X209930713Y-65520870D01*
X210111760Y-65500471D01*
X210283728Y-65440297D01*
X210437994Y-65343365D01*
X210566824Y-65214535D01*
X210663756Y-65060269D01*
X210723930Y-64888301D01*
X210744329Y-64707254D01*
X210723930Y-64526207D01*
X210663756Y-64354239D01*
X210566824Y-64199973D01*
X210437994Y-64071143D01*
X210432000Y-64067377D01*
X210431998Y-64067375D01*
X210289719Y-63977975D01*
X210289716Y-63977973D01*
X210283728Y-63974211D01*
X210277052Y-63971875D01*
X210277048Y-63971873D01*
X210118437Y-63916373D01*
X210118433Y-63916372D01*
X210111760Y-63914037D01*
X209930713Y-63893638D01*
X209923684Y-63894430D01*
X209756694Y-63913245D01*
X209756692Y-63913245D01*
X209749666Y-63914037D01*
X209742993Y-63916371D01*
X209742988Y-63916373D01*
X209670658Y-63941683D01*
X209629043Y-63948754D01*
X208712641Y-63948754D01*
X208712633Y-63948753D01*
X208712626Y-63948752D01*
X208712604Y-63948752D01*
X208641161Y-63948753D01*
X208624713Y-63947675D01*
X208586854Y-63942691D01*
X208555086Y-63934180D01*
X208550858Y-63932429D01*
X208527497Y-63922753D01*
X208499011Y-63906306D01*
X208468712Y-63883056D01*
X208456323Y-63872190D01*
X208449780Y-63865647D01*
X208405806Y-63821671D01*
X208405805Y-63821670D01*
X208405793Y-63821658D01*
X208405787Y-63821654D01*
X208045047Y-63460914D01*
X210618367Y-63460914D01*
X210648642Y-63632608D01*
X210651546Y-63639342D01*
X210651548Y-63639346D01*
X210656128Y-63649963D01*
X210717695Y-63792692D01*
X210722077Y-63798578D01*
X210722080Y-63798583D01*
X210772008Y-63865647D01*
X210821806Y-63932537D01*
X210955360Y-64044603D01*
X211111159Y-64122848D01*
X211280803Y-64163054D01*
X211407741Y-64163054D01*
X211411410Y-64163054D01*
X211541138Y-64147891D01*
X211704967Y-64088262D01*
X211850628Y-63992459D01*
X211970270Y-63865647D01*
X212057441Y-63714661D01*
X212107443Y-63547642D01*
X212117581Y-63373594D01*
X212087306Y-63201900D01*
X212018253Y-63041816D01*
X212009101Y-63029523D01*
X211963940Y-62968861D01*
X211914142Y-62901971D01*
X211780588Y-62789905D01*
X211624789Y-62711660D01*
X211591850Y-62703853D01*
X211462283Y-62673145D01*
X211462276Y-62673144D01*
X211455145Y-62671454D01*
X211324538Y-62671454D01*
X211320910Y-62671877D01*
X211320893Y-62671879D01*
X211202094Y-62685765D01*
X211202088Y-62685766D01*
X211194810Y-62686617D01*
X211187923Y-62689123D01*
X211187917Y-62689125D01*
X211037877Y-62743735D01*
X211037869Y-62743738D01*
X211030981Y-62746246D01*
X211024849Y-62750278D01*
X211024847Y-62750280D01*
X210891455Y-62838013D01*
X210891449Y-62838017D01*
X210885320Y-62842049D01*
X210880286Y-62847384D01*
X210880282Y-62847388D01*
X210770716Y-62963520D01*
X210770712Y-62963525D01*
X210765678Y-62968861D01*
X210762006Y-62975220D01*
X210762006Y-62975221D01*
X210695094Y-63091118D01*
X210678507Y-63119847D01*
X210676402Y-63126876D01*
X210676401Y-63126880D01*
X210630609Y-63279835D01*
X210630607Y-63279842D01*
X210628505Y-63286866D01*
X210618367Y-63460914D01*
X208045047Y-63460914D01*
X207425783Y-62841650D01*
X207392037Y-62780592D01*
X207395949Y-62710939D01*
X207436320Y-62654043D01*
X207500770Y-62627348D01*
X207552771Y-62621489D01*
X207724739Y-62561315D01*
X207879005Y-62464383D01*
X208007835Y-62335553D01*
X208104767Y-62181287D01*
X208164941Y-62009319D01*
X208185340Y-61828272D01*
X208164941Y-61647225D01*
X208104767Y-61475257D01*
X208086731Y-61446553D01*
X208011602Y-61326986D01*
X208011601Y-61326985D01*
X208007835Y-61320991D01*
X207879005Y-61192161D01*
X207873011Y-61188395D01*
X207873009Y-61188393D01*
X207730730Y-61098993D01*
X207730727Y-61098991D01*
X207724739Y-61095229D01*
X207718063Y-61092893D01*
X207718059Y-61092891D01*
X207559448Y-61037391D01*
X207559444Y-61037390D01*
X207552771Y-61035055D01*
X207371724Y-61014656D01*
X207364695Y-61015448D01*
X207197705Y-61034263D01*
X207197703Y-61034263D01*
X207190677Y-61035055D01*
X207184004Y-61037389D01*
X207183999Y-61037391D01*
X207019113Y-61095087D01*
X206957552Y-61100569D01*
X206900790Y-61076118D01*
X206861473Y-61045946D01*
X206849092Y-61035086D01*
X206799454Y-60985443D01*
X206799443Y-60985436D01*
X206799423Y-60985417D01*
X205547565Y-59733559D01*
X205547560Y-59733553D01*
X205547555Y-59733545D01*
X205502682Y-59688676D01*
X205497704Y-59683698D01*
X205486841Y-59671313D01*
X205454122Y-59628677D01*
X205437675Y-59600192D01*
X205420297Y-59558244D01*
X205411784Y-59526481D01*
X205404801Y-59473457D01*
X205403724Y-59457020D01*
X205403724Y-57275248D01*
X205423036Y-57208213D01*
X205437767Y-57184769D01*
X205497941Y-57012801D01*
X205511742Y-56890304D01*
X205538439Y-56825855D01*
X205595335Y-56785485D01*
X205719091Y-56742180D01*
X205727909Y-56737933D01*
X205734394Y-56731448D01*
X205728372Y-56721863D01*
X205367530Y-56361020D01*
X205349939Y-56338961D01*
X205344601Y-56330466D01*
X205344599Y-56330463D01*
X205340835Y-56324473D01*
X205212005Y-56195643D01*
X205206019Y-56191882D01*
X205206012Y-56191876D01*
X205197511Y-56186535D01*
X205175454Y-56168944D01*
X205102859Y-56096349D01*
X205070247Y-56039865D01*
X205070247Y-56007253D01*
X205737141Y-56007253D01*
X205743914Y-56018984D01*
X206087583Y-56362652D01*
X206097168Y-56368674D01*
X206103653Y-56362189D01*
X206107899Y-56353373D01*
X206163362Y-56194871D01*
X206166493Y-56181154D01*
X206185295Y-56014283D01*
X206185295Y-56000225D01*
X206166493Y-55833353D01*
X206163362Y-55819636D01*
X206107899Y-55661133D01*
X206103653Y-55652317D01*
X206097169Y-55645832D01*
X206087579Y-55651858D01*
X205743913Y-55995524D01*
X205737141Y-56007253D01*
X205070247Y-56007253D01*
X205070247Y-55974643D01*
X205102859Y-55918159D01*
X205372974Y-55648044D01*
X205372974Y-55648043D01*
X205639534Y-55381482D01*
X205646305Y-55369754D01*
X205639534Y-55358025D01*
X205102858Y-54821348D01*
X205070247Y-54764864D01*
X205070247Y-54732253D01*
X205737141Y-54732253D01*
X205743914Y-54743984D01*
X206087583Y-55087652D01*
X206097168Y-55093674D01*
X206103653Y-55087189D01*
X206107899Y-55078373D01*
X206163362Y-54919871D01*
X206166493Y-54906154D01*
X206185295Y-54739283D01*
X206185295Y-54725225D01*
X206166493Y-54558353D01*
X206163362Y-54544636D01*
X206107899Y-54386133D01*
X206103653Y-54377317D01*
X206097169Y-54370832D01*
X206087579Y-54376858D01*
X205743913Y-54720524D01*
X205737141Y-54732253D01*
X205070247Y-54732253D01*
X205070247Y-54699642D01*
X205102859Y-54643157D01*
X205372974Y-54373043D01*
X205372977Y-54373040D01*
X205639534Y-54106482D01*
X205646305Y-54094754D01*
X205639534Y-54083025D01*
X205103791Y-53547281D01*
X205071811Y-53493066D01*
X205070807Y-53457253D01*
X205737141Y-53457253D01*
X205743914Y-53468984D01*
X206087583Y-53812652D01*
X206097168Y-53818674D01*
X206103653Y-53812189D01*
X206107899Y-53803373D01*
X206163362Y-53644871D01*
X206166493Y-53631154D01*
X206185295Y-53464283D01*
X206185295Y-53450225D01*
X206166493Y-53283353D01*
X206163362Y-53269636D01*
X206107899Y-53111133D01*
X206103653Y-53102317D01*
X206097169Y-53095832D01*
X206087579Y-53101858D01*
X205743913Y-53445524D01*
X205737141Y-53457253D01*
X205070807Y-53457253D01*
X205070047Y-53430146D01*
X205098938Y-53374224D01*
X205151272Y-53339257D01*
X205184739Y-53327547D01*
X205339005Y-53230615D01*
X205467835Y-53101785D01*
X205564767Y-52947519D01*
X205577482Y-52911179D01*
X205607315Y-52863702D01*
X205728368Y-52742648D01*
X205734394Y-52733058D01*
X205727909Y-52726573D01*
X205715880Y-52720781D01*
X205663861Y-52674295D01*
X205644548Y-52607258D01*
X205644548Y-52601533D01*
X205645340Y-52594504D01*
X205624941Y-52413457D01*
X205564767Y-52241489D01*
X205549539Y-52217254D01*
X205471602Y-52093218D01*
X205471601Y-52093217D01*
X205467835Y-52087223D01*
X205339005Y-51958393D01*
X205333011Y-51954627D01*
X205333009Y-51954625D01*
X205190730Y-51865225D01*
X205190727Y-51865223D01*
X205184739Y-51861461D01*
X205178062Y-51859124D01*
X205178061Y-51859124D01*
X205061867Y-51818466D01*
X205014387Y-51788632D01*
X204665978Y-51440223D01*
X204305822Y-51080066D01*
X204305821Y-51080064D01*
X204255966Y-51030210D01*
X204245100Y-51017819D01*
X204212387Y-50975187D01*
X204195942Y-50946705D01*
X204178563Y-50904752D01*
X204170048Y-50872979D01*
X204163052Y-50819849D01*
X204161974Y-50803400D01*
X204161974Y-49048657D01*
X204181287Y-48981620D01*
X204233306Y-48935134D01*
X204302085Y-48923450D01*
X204316690Y-48925096D01*
X204316695Y-48925096D01*
X204323724Y-48925888D01*
X204504771Y-48905489D01*
X204676739Y-48845315D01*
X204831005Y-48748383D01*
X204959835Y-48619553D01*
X205056767Y-48465287D01*
X205116941Y-48293319D01*
X205137340Y-48112272D01*
X205116941Y-47931225D01*
X205056767Y-47759257D01*
X204959835Y-47604991D01*
X204831005Y-47476161D01*
X204825011Y-47472395D01*
X204825009Y-47472393D01*
X204682733Y-47382995D01*
X204682731Y-47382994D01*
X204676739Y-47379229D01*
X204671236Y-47377303D01*
X204637493Y-47353360D01*
X201680405Y-44396272D01*
X201675564Y-44391153D01*
X201483243Y-44175940D01*
X201474445Y-44164907D01*
X201437435Y-44112745D01*
X201309505Y-43932439D01*
X201301990Y-43920478D01*
X201164116Y-43671005D01*
X201157993Y-43658291D01*
X201048918Y-43394952D01*
X201044252Y-43381615D01*
X200965351Y-43107727D01*
X200962207Y-43093952D01*
X200955420Y-43054003D01*
X200914465Y-42812943D01*
X200912885Y-42798921D01*
X200911468Y-42773696D01*
X200918341Y-42725023D01*
X200931191Y-42688301D01*
X200951590Y-42507254D01*
X200931191Y-42326207D01*
X200871017Y-42154239D01*
X200774085Y-41999973D01*
X200645255Y-41871143D01*
X200639261Y-41867377D01*
X200639259Y-41867375D01*
X200496980Y-41777975D01*
X200496977Y-41777973D01*
X200490989Y-41774211D01*
X200484313Y-41771875D01*
X200484309Y-41771873D01*
X200325698Y-41716373D01*
X200325694Y-41716372D01*
X200319021Y-41714037D01*
X200137974Y-41693638D01*
X200130945Y-41694430D01*
X199963955Y-41713245D01*
X199963953Y-41713245D01*
X199956927Y-41714037D01*
X199950254Y-41716371D01*
X199950249Y-41716373D01*
X199791638Y-41771873D01*
X199791630Y-41771876D01*
X199784959Y-41774211D01*
X199778974Y-41777971D01*
X199778967Y-41777975D01*
X199636688Y-41867375D01*
X199636681Y-41867380D01*
X199630693Y-41871143D01*
X199625688Y-41876147D01*
X199625684Y-41876151D01*
X199506871Y-41994964D01*
X199506867Y-41994968D01*
X199501863Y-41999973D01*
X199498100Y-42005961D01*
X199498095Y-42005968D01*
X199408695Y-42148247D01*
X199408691Y-42148254D01*
X199404931Y-42154239D01*
X199402596Y-42160910D01*
X199402593Y-42160918D01*
X199347093Y-42319529D01*
X199347091Y-42319534D01*
X199344757Y-42326207D01*
X199324358Y-42507254D01*
X62878474Y-42507254D01*
X62878474Y-36489096D01*
X62878527Y-36485432D01*
X62879623Y-36447770D01*
X62891470Y-36040568D01*
X62897754Y-35832646D01*
X62898171Y-35825544D01*
X62930964Y-35450721D01*
X62956633Y-35168247D01*
X62957430Y-35161527D01*
X63009837Y-34803748D01*
X63047806Y-34554283D01*
X63054757Y-34508613D01*
X63055920Y-34502119D01*
X63127715Y-34154414D01*
X63127755Y-34154224D01*
X63144277Y-34077254D01*
X180204712Y-34077254D01*
X180204961Y-34081212D01*
X180223491Y-34375753D01*
X180223492Y-34375763D01*
X180223741Y-34379716D01*
X180224482Y-34383604D01*
X180224484Y-34383614D01*
X180279784Y-34673507D01*
X180279787Y-34673519D01*
X180280529Y-34677408D01*
X180281751Y-34681170D01*
X180281755Y-34681184D01*
X180350830Y-34893772D01*
X180374180Y-34965635D01*
X180375867Y-34969220D01*
X180375869Y-34969225D01*
X180450596Y-35128028D01*
X180503216Y-35239852D01*
X180537731Y-35294239D01*
X180663481Y-35492390D01*
X180663487Y-35492399D01*
X180665604Y-35495734D01*
X180668123Y-35498779D01*
X180668126Y-35498783D01*
X180806427Y-35665960D01*
X180858782Y-35729246D01*
X181079703Y-35936704D01*
X181082907Y-35939031D01*
X181082906Y-35939031D01*
X181243045Y-36055379D01*
X181324884Y-36114838D01*
X181590457Y-36260839D01*
X181872235Y-36372403D01*
X182165774Y-36447770D01*
X182466444Y-36485754D01*
X182765545Y-36485754D01*
X182769504Y-36485754D01*
X183070174Y-36447770D01*
X183363713Y-36372403D01*
X183645491Y-36260839D01*
X183911064Y-36114838D01*
X184156245Y-35936704D01*
X184377166Y-35729246D01*
X184570344Y-35495734D01*
X184732732Y-35239852D01*
X184861768Y-34965635D01*
X184955419Y-34677408D01*
X185012207Y-34379716D01*
X185031236Y-34077254D01*
X185012207Y-33774792D01*
X184955419Y-33477100D01*
X184946727Y-33450350D01*
X184912426Y-33344783D01*
X184861768Y-33188873D01*
X184732732Y-32914656D01*
X184597550Y-32701643D01*
X184572466Y-32662117D01*
X184572462Y-32662111D01*
X184570344Y-32658774D01*
X184554556Y-32639690D01*
X184379690Y-32428313D01*
X184377166Y-32425262D01*
X184285627Y-32339301D01*
X184159131Y-32220514D01*
X184159129Y-32220513D01*
X184156245Y-32217804D01*
X184153041Y-32215476D01*
X183914266Y-32041996D01*
X183914261Y-32041993D01*
X183911064Y-32039670D01*
X183901025Y-32034151D01*
X183648959Y-31895575D01*
X183648951Y-31895571D01*
X183645491Y-31893669D01*
X183626924Y-31886317D01*
X183367382Y-31783557D01*
X183367372Y-31783553D01*
X183363713Y-31782105D01*
X183311706Y-31768752D01*
X183074009Y-31707722D01*
X183073999Y-31707720D01*
X183070174Y-31706738D01*
X183066249Y-31706242D01*
X183066238Y-31706240D01*
X182773435Y-31669250D01*
X182773425Y-31669249D01*
X182769504Y-31668754D01*
X182466444Y-31668754D01*
X182462523Y-31669249D01*
X182462512Y-31669250D01*
X182169709Y-31706240D01*
X182169695Y-31706242D01*
X182165774Y-31706738D01*
X182161951Y-31707719D01*
X182161938Y-31707722D01*
X181876055Y-31781124D01*
X181876052Y-31781124D01*
X181872235Y-31782105D01*
X181868579Y-31783552D01*
X181868565Y-31783557D01*
X181594131Y-31892214D01*
X181594126Y-31892216D01*
X181590457Y-31893669D01*
X181587002Y-31895568D01*
X181586988Y-31895575D01*
X181328355Y-32037761D01*
X181328345Y-32037766D01*
X181324884Y-32039670D01*
X181321693Y-32041988D01*
X181321681Y-32041996D01*
X181082906Y-32215476D01*
X181082897Y-32215483D01*
X181079703Y-32217804D01*
X181076825Y-32220506D01*
X181076816Y-32220514D01*
X180861668Y-32422551D01*
X180861661Y-32422558D01*
X180858782Y-32425262D01*
X180856265Y-32428304D01*
X180856257Y-32428313D01*
X180668126Y-32655724D01*
X180668117Y-32655735D01*
X180665604Y-32658774D01*
X180663492Y-32662101D01*
X180663481Y-32662117D01*
X180505340Y-32911309D01*
X180503216Y-32914656D01*
X180501531Y-32918234D01*
X180501528Y-32918242D01*
X180375869Y-33185282D01*
X180375864Y-33185292D01*
X180374180Y-33188873D01*
X180372956Y-33192639D01*
X180372954Y-33192645D01*
X180281755Y-33473323D01*
X180281750Y-33473340D01*
X180280529Y-33477100D01*
X180279788Y-33480984D01*
X180279784Y-33481000D01*
X180224484Y-33770893D01*
X180224482Y-33770905D01*
X180223741Y-33774792D01*
X180223492Y-33778742D01*
X180223491Y-33778754D01*
X180207628Y-34030898D01*
X180204712Y-34077254D01*
X63144277Y-34077254D01*
X63191800Y-33855870D01*
X63193271Y-33849773D01*
X63284175Y-33510515D01*
X63284445Y-33509529D01*
X63367259Y-33212458D01*
X63368987Y-33206789D01*
X63478836Y-32875282D01*
X63479185Y-32874251D01*
X63580515Y-32580607D01*
X63582489Y-32575287D01*
X63710875Y-32252120D01*
X63711378Y-32250880D01*
X63830841Y-31962472D01*
X63832973Y-31957627D01*
X63979469Y-31643463D01*
X63980214Y-31641902D01*
X64117298Y-31360359D01*
X64119636Y-31355800D01*
X64283726Y-31051475D01*
X64284765Y-31049591D01*
X64438896Y-30776309D01*
X64441361Y-30772131D01*
X64622599Y-30478300D01*
X64623970Y-30476130D01*
X64794535Y-30212321D01*
X64797073Y-30208550D01*
X64994882Y-29926050D01*
X64996515Y-29923775D01*
X65182972Y-29670373D01*
X65185496Y-29667065D01*
X65399274Y-29396699D01*
X65401162Y-29394373D01*
X65602719Y-29152523D01*
X65605297Y-29149528D01*
X65834397Y-28892091D01*
X65836541Y-28889750D01*
X66052424Y-28660414D01*
X66054976Y-28657784D01*
X66298504Y-28414256D01*
X66301134Y-28411704D01*
X66530470Y-28195821D01*
X66532811Y-28193677D01*
X66790248Y-27964577D01*
X66793243Y-27961999D01*
X67035093Y-27760442D01*
X67037419Y-27758554D01*
X67307785Y-27544776D01*
X67311093Y-27542252D01*
X67564495Y-27355795D01*
X67566770Y-27354162D01*
X67849270Y-27156353D01*
X67853041Y-27153815D01*
X68116850Y-26983250D01*
X68119020Y-26981879D01*
X68412851Y-26800641D01*
X68417029Y-26798176D01*
X68690311Y-26644045D01*
X68692195Y-26643006D01*
X68996520Y-26478916D01*
X69001079Y-26476578D01*
X69282622Y-26339494D01*
X69284183Y-26338749D01*
X69598347Y-26192253D01*
X69603192Y-26190121D01*
X69891600Y-26070658D01*
X69892840Y-26070155D01*
X70216007Y-25941769D01*
X70221327Y-25939795D01*
X70514971Y-25838465D01*
X70516002Y-25838116D01*
X70847509Y-25728267D01*
X70853178Y-25726539D01*
X71150249Y-25643725D01*
X71151235Y-25643455D01*
X71490493Y-25552551D01*
X71496590Y-25551080D01*
X71794944Y-25487035D01*
X71795134Y-25486995D01*
X72142839Y-25415200D01*
X72149333Y-25414037D01*
X72225932Y-25402378D01*
X72444468Y-25369117D01*
X72802247Y-25316710D01*
X72808967Y-25315913D01*
X73091386Y-25290249D01*
X73466264Y-25257451D01*
X73473366Y-25257034D01*
X73681676Y-25250740D01*
X73681676Y-25250771D01*
X73681805Y-25250735D01*
X74126152Y-25237806D01*
X74129816Y-25237754D01*
X199076433Y-25237754D01*
X199139427Y-25254631D01*
G37*
G04 #@! TD.AperFunction*
G04 #@! TA.AperFunction,Conductor*
G36*
X283600928Y-108831250D02*
G01*
X283644982Y-108866921D01*
X283665226Y-108910328D01*
X283666458Y-108909928D01*
X283723430Y-109085271D01*
X283723433Y-109085278D01*
X283725473Y-109091556D01*
X283820960Y-109256944D01*
X283901595Y-109346498D01*
X283929312Y-109396908D01*
X283931733Y-109454385D01*
X283908352Y-109506947D01*
X283864043Y-109543637D01*
X283808043Y-109556808D01*
X242860259Y-109584564D01*
X242803032Y-109570862D01*
X242758268Y-109532666D01*
X242735731Y-109478308D01*
X242740336Y-109419644D01*
X242771076Y-109369471D01*
X243285144Y-108855404D01*
X243326022Y-108828091D01*
X243374240Y-108818500D01*
X283545697Y-108818500D01*
X283600928Y-108831250D01*
G37*
G04 #@! TD.AperFunction*
G04 #@! TA.AperFunction,Conductor*
G36*
X242122763Y-108063212D02*
G01*
X242167570Y-108101393D01*
X242190142Y-108155762D01*
X242185552Y-108214450D01*
X242154802Y-108264648D01*
X241814856Y-108604595D01*
X241773978Y-108631909D01*
X241725760Y-108641500D01*
X131966577Y-108641500D01*
X131903578Y-108624620D01*
X131857459Y-108578503D01*
X131840577Y-108515505D01*
X131857455Y-108452505D01*
X131897629Y-108412325D01*
X131896752Y-108411118D01*
X131896751Y-108411118D01*
X132051253Y-108298866D01*
X132078135Y-108269009D01*
X132120431Y-108238252D01*
X132171567Y-108227317D01*
X242065502Y-108049553D01*
X242122763Y-108063212D01*
G37*
G04 #@! TD.AperFunction*
M02*
